<svg width="174" height="100" viewBox="0 0 174 100" fill="none" xmlns="http://www.w3.org/2000/svg">
<path d="M54.2482 99.929C54.0284 99.8464 53.715 99.56 53.7141 99.4387C53.7132 99.3098 53.3009 98.5277 53.0647 98.207C52.6263 97.6114 52.49 97.1681 52.4241 96.1259C52.3943 95.7777 52.3588 95.3361 52.3291 95.1446C52.2994 94.9531 52.2577 94.6822 52.2399 94.5429C52.2102 94.4035 52.1804 94.1045 52.1507 93.8782C51.8234 91.445 52.6866 87.3644 55.2645 79.1564C57.7784 71.1515 60.869 62.4565 68.3186 42.4313C72.3919 31.4823 73.7064 27.8485 75.4983 22.5808C76.8955 18.473 78.7878 12.4807 78.7118 12.4042C78.6761 12.3683 76.4947 15.0104 75.1448 16.7239C68.6575 24.9599 61.837 34.907 52.0481 50.4095C48.6279 55.8259 45.1037 61.5256 37.6194 73.7426C32.0752 82.7927 29.0177 87.5847 26.7788 90.7335C25.3038 92.8085 24.5681 93.7764 23.9551 94.4493C23.8125 94.6066 23.482 94.9767 23.2227 95.2715C22.6815 95.8866 22.2429 96.3104 21.9123 96.5377C21.7846 96.6247 21.47 96.9051 21.2107 97.1606C20.6422 97.7209 20.0915 98.1255 19.5498 98.3809C19.226 98.5334 19.0564 98.5719 18.6858 98.5782C17.8761 98.5902 17.6436 98.4467 17.341 97.7407C17.243 97.5143 17.0417 97.149 16.8917 96.9289C16.3464 96.128 16.2268 95.7462 16.1231 94.4798C16.0845 94.027 15.9981 93.2576 15.9327 92.7701C15.6595 90.8151 15.8317 89.3043 16.7489 85.5907C18.1915 79.7539 22.5506 66.2135 30.6736 42.3366C31.7693 39.1152 32.9013 35.7815 33.1891 34.9282C33.4772 34.075 33.8856 32.8781 34.0974 32.2687C34.3082 31.6593 34.4418 31.2036 34.3943 31.2558C33.7147 31.9813 31.6148 34.4339 30.1214 36.246C19.5311 49.0961 8.07841 65.8832 1.85433 77.6795C0.97515 79.3458 0.819598 79.7345 0.962762 79.9081C1.12018 80.0981 0.635194 80.7712 0.342034 80.7712C-0.0868641 80.7712 -0.117743 79.2487 0.279672 77.7001C1.5628 72.7031 7.73234 60.9929 15.4911 48.8267C23.4189 36.3955 33.8389 22.4335 37.309 19.5929C37.4665 19.4648 37.7626 19.2697 37.9693 19.1592C38.3275 18.9678 38.3691 18.96 38.8482 18.9962C39.1244 19.0171 39.5492 19.0766 39.7912 19.1284C40.0348 19.1801 40.4028 19.2233 40.6125 19.2238C40.859 19.2246 41.1239 19.2765 41.3681 19.3728C41.576 19.4542 41.9058 19.5377 42.1045 19.5583C42.7353 19.6239 43.1787 19.9599 43.3688 20.5164C43.4282 20.6908 43.5289 20.7969 43.7864 20.9515C44.7824 21.5521 44.7822 23.0019 43.7854 27.0131C43.1227 29.6791 41.4252 35.3616 40.4468 38.1888C37.9176 45.4972 32.4558 61.7884 29.0376 72.219C28.8832 72.687 28.7824 73.0431 28.8121 73.0105C28.8418 72.9779 30.0963 70.9422 31.6007 68.487C36.3889 60.6716 38.4042 57.3934 40.437 54.1136C53.3568 33.2696 62.7007 19.5503 70.6757 9.71361C74.6795 4.77538 77.7371 1.61919 79.5867 0.515403C80.5894 -0.0829475 80.9512 -0.121631 82.5272 0.201176C83.0009 0.298099 83.3647 0.339471 83.5373 0.315839C83.7363 0.288916 83.9397 0.321837 84.3223 0.450768C84.6044 0.545597 84.8508 0.64464 84.8669 0.670964C84.8966 0.697887 85.0511 0.722348 85.2403 0.726835C85.6719 0.735809 86.2098 0.935979 86.4201 1.16321C86.6459 1.40821 86.8961 1.81299 86.9448 2.01533C86.9745 2.13648 87.0845 2.2425 87.3182 2.37538C87.9126 2.7133 88.1608 3.1682 88.2885 4.15485C88.5825 6.42859 87.3503 11.7482 84.4303 20.8078C82.3601 27.2318 80.4608 32.5386 74.5382 48.4464C71.3473 57.0172 69.8961 60.9722 68.1953 65.7325C67.0007 69.0764 65.5925 73.1246 65.616 73.1481C65.616 73.1601 65.9311 72.6936 66.2893 72.1109C76.7916 55.0287 84.513 43.4409 92.1209 33.3449C102.926 19.0061 111.718 9.98713 115.577 9.28399C116.046 9.19843 116.592 9.23793 117.496 9.4222C117.841 9.4925 118.364 9.55915 118.658 9.56991C119.055 9.58487 119.309 9.63436 119.635 9.7609C119.878 9.85483 120.262 9.95231 120.491 9.97744C121.332 10.0699 121.916 10.4805 122.333 11.2725C122.425 11.4487 122.597 11.6517 122.732 11.7405C123.557 12.2908 123.857 13.0383 123.922 14.7047C124.046 17.9242 123.009 22.3538 119.221 34.7849C117.443 40.6217 116.874 42.6754 117.139 42.3026C117.169 42.2688 117.323 42.1272 117.497 41.9878C117.816 41.7315 118.053 41.5333 118.181 41.4178C118.22 41.3831 118.434 41.1983 118.66 41.007C119.488 40.3032 122.583 37.5697 122.747 37.3982C122.777 37.3803 123.061 37.109 123.406 36.7955C123.751 36.4821 124.501 35.7983 125.073 35.2759C125.644 34.7535 126.394 34.0698 126.74 33.7564C127.085 33.443 127.382 33.1723 127.399 33.1548C127.429 33.1369 127.714 32.8664 128.059 32.5532C128.405 32.2398 128.702 31.9677 128.72 31.9487C128.788 31.8718 132.658 28.3654 133.808 27.3373C134.485 26.7322 135.137 26.1475 135.258 26.0381C136.15 25.2306 139.363 22.4336 140.57 21.4123C140.778 21.2367 140.961 21.078 140.979 21.0594C141.071 20.9606 142.287 19.9528 143.336 19.1061C143.993 18.5761 144.588 18.0948 144.657 18.0365C144.725 17.9782 145.416 17.4522 146.189 16.8676C149.549 14.3293 151.564 13.1742 152.97 12.9822C153.274 12.9406 154.221 13.0469 154.756 13.1827C154.952 13.2324 155.39 13.2851 155.731 13.2997C156.204 13.3207 156.455 13.3667 156.791 13.4956C157.034 13.5887 157.372 13.678 157.545 13.6945C158.426 13.7782 159.039 14.1876 159.384 14.9227C159.512 15.1967 159.616 15.3153 159.852 15.4581C160.414 15.7996 160.715 16.3398 160.844 17.2445C160.996 18.2886 160.892 19.4117 160.335 22.8021C159.657 26.929 159.525 28.0691 159.525 29.8168C159.525 31.3894 159.703 32.4589 160.127 33.4077C160.299 33.795 160.529 33.9735 161.317 34.3356L161.695 34.5087L163.958 34.4848C167.231 34.4503 167.774 34.4609 168.578 34.5784C168.976 34.6362 169.551 34.7091 169.856 34.7406C170.36 34.7923 171.118 34.9604 172.036 35.2237C172.736 35.4241 173.317 35.8055 173.768 36.3601L174 36.6447L173.899 36.91C173.655 37.5537 172.548 38.8386 171.254 39.982C169.644 41.4044 168.706 41.9124 166.741 42.4253C165.278 42.8072 163.383 43.127 162.197 43.1918C161.852 43.2098 161.393 43.2396 161.179 43.2561C160.661 43.2959 159.151 43.1841 158.573 43.0633C158.318 43.01 157.885 42.8911 157.608 42.7993C155.781 42.1919 154.72 41.2927 153.926 39.6765C153.816 39.4501 153.611 39.0977 153.474 38.8932C153.118 38.3647 152.644 37.333 152.458 36.6838C152.25 35.9567 152.124 35.2081 152.011 34.0252C151.96 33.4941 151.907 33.0026 151.895 32.933C151.895 32.8633 151.85 32.6211 151.826 32.3947C151.797 32.1683 151.773 31.9681 151.761 31.9498C151.705 31.857 151.637 30.2584 151.645 29.1971C151.645 27.7224 151.895 25.3016 152.205 23.5221C152.255 23.2304 152.297 22.9682 152.297 22.9392C152.297 22.8148 150.305 24.1647 148.706 25.372C148.002 25.9046 147.41 26.357 147.393 26.3771C147.363 26.3981 147.023 26.6839 146.608 27.014C146.193 27.3441 145.797 27.661 145.728 27.7182C144.727 28.5423 144.312 28.8892 143.81 29.3218C141.515 31.2978 140.949 31.7874 140.443 32.2364C140.129 32.5149 139.676 32.9139 139.438 33.1229C139.2 33.3317 138.848 33.6441 138.656 33.8169C138.466 33.9895 138.212 34.2177 138.094 34.3235C137.975 34.4294 137.806 34.5828 137.717 34.6648C137.628 34.7467 137.358 34.9889 137.119 35.203C136.879 35.4172 136.654 35.6208 136.616 35.6557C136.577 35.6904 136.265 35.9754 135.919 36.2889C135.573 36.6023 135.277 36.8731 135.259 36.8905C135.2 36.9506 133.815 38.2117 133.348 38.6318C133.17 38.7915 131.955 39.9016 131.927 39.9298C131.898 39.9477 131.613 40.2178 131.268 40.5312C130.679 41.0658 130.342 41.3716 130.014 41.6711C129.937 41.7408 129.626 42.0256 129.32 42.3043C129.015 42.5828 128.734 42.8393 128.696 42.8741C128.657 42.9088 128.343 43.1939 127.998 43.5073C127.652 43.8208 127.355 44.094 127.338 44.1146C127.275 44.1891 125.193 46.0418 123.815 47.2494C123.382 47.629 122.834 48.1105 122.596 48.3195C122.358 48.5283 121.849 48.965 121.465 49.2896C121.082 49.6141 120.697 49.9408 120.611 50.0153C120.213 50.3589 118.507 51.7213 117.97 52.1249C115.136 54.2553 113.52 55.0874 112.055 55.172C111.544 55.202 111.39 55.1871 111.044 55.0698C110.512 54.8918 110.3 54.6747 109.961 53.9628C109.81 53.645 109.597 53.2728 109.488 53.1359C109.01 52.5358 108.772 51.7758 108.663 50.4981C108.627 50.066 108.535 49.3136 108.464 48.826C108.208 47.1018 108.295 45.2568 108.737 43.0956C109.28 40.4455 109.814 38.5122 111.812 31.9669C113.481 26.4943 114.425 23.1976 115.086 20.5224C115.258 19.8259 115.414 19.2038 115.433 19.1399C115.466 19.0277 115.462 19.0275 115.287 19.1371C115.008 19.3136 114.202 19.9171 113.82 20.2341C112.599 21.2457 109.488 24.4567 107.466 26.7909C100.972 34.2889 93.8883 43.8228 86.344 55.2201C81.8061 62.076 78.6506 67.059 72.0092 77.8577C66.7992 86.3296 64.4849 89.9446 62.3615 92.9278C60.8743 95.0173 60.6635 95.2801 58.9972 97.1316C58.6303 97.5394 58.2835 97.8591 57.9939 98.0566C57.8662 98.1436 57.5711 98.4073 57.3377 98.6425C56.8378 99.1464 56.2558 99.5771 55.7779 99.7975C55.3359 100.001 54.6122 100.063 54.2511 99.9283L54.2482 99.929Z" fill="#0A66C2"/>
</svg>
