<?xml version="1.0" standalone="no"?>
<!DOCTYPE svg PUBLIC "-//W3C//DTD SVG 1.1//EN" "http://www.w3.org/Graphics/SVG/1.1/DTD/svg11.dtd" >
<svg xmlns="http://www.w3.org/2000/svg" xmlns:xlink="http://www.w3.org/1999/xlink" version="1.1">
<metadata>
Created by FontForge 20230101 at Mon Aug 16 05:03:06 2021
 By Unknown
Copyright (c) 2021 by VAIMINIT. All rights reserved.
</metadata>
<defs>
<font id="Mouly" horiz-adv-x="412" >
  <font-face 
    font-family="Mouly"
    font-weight="400"
    font-stretch="normal"
    units-per-em="1000"
    panose-1="0 0 0 0 0 0 0 0 0 0"
    ascent="750"
    descent="-250"
    x-height="369"
    cap-height="610"
    bbox="-223 -289 3172 1059"
    underline-thickness="50"
    underline-position="-100"
    unicode-range="U+000D-FB02"
  />
<missing-glyph horiz-adv-x="252" 
 />
    <glyph glyph-name="M.001_o_u_l_y.002" unicode="Mouly" horiz-adv-x="3228" 
d="M461 246q0 42 2.5 83.5t6.5 83.5q3 31 4.5 61.5t8.5 57.5t22.5 49.5t45.5 39.5q11 6 23.5 11.5t25.5 5.5q17 0 29 -22.5t22.5 -55.5t21 -72.5t25 -72.5t34.5 -55.5t49 -22.5q21 0 42.5 22.5t39.5 53t31.5 61t18.5 47.5q4 14 9.5 28t13 25t19 17.5t29.5 6.5q6 0 11.5 -0.5
t11.5 -1.5q31 -5 45.5 -20t19 -36.5t3.5 -47.5t-1 -52l1 -361q0 -14 -1 -28t-6 -25t-15 -18.5t-28 -7.5q-21 0 -37.5 12t-23.5 32q-6 19 -8 57.5t-1.5 82t2 83t2.5 59.5q-19 -17 -39 -36t-41.5 -34.5t-46 -26t-52.5 -10.5q-35 0 -64.5 15t-53.5 39t-43.5 52.5t-35.5 55.5
q-4 -17 -6 -33t-2 -34q0 -29 1.5 -61t4.5 -65t8.5 -64.5t13.5 -59.5q6 -21 12 -42.5t6 -43.5q0 -23 -14.5 -36.5t-38.5 -13.5q-25 0 -42.5 19t-29.5 49.5t-19 67t-10.5 72t-4.5 65t-1 45.5zM160 583q0 26 16 41t41 15q16 0 43 -16.5t52.5 -40t44 -48.5t18.5 -42
q0 -15 -14 -27t-28 -12q-18 0 -47 13.5t-57 33t-48.5 42.5t-20.5 41zM118 85q-24 0 -40.5 13.5t-16.5 39.5q0 24 21.5 40.5t51 27t59.5 15.5t48 5q24 0 41 -8.5t17 -37.5q0 -20 -22.5 -37.5t-52.5 -30t-60 -20t-46 -7.5zM164 303q-17 0 -41 2t-46.5 8.5t-38 20t-15.5 37.5
q0 17 7 27.5t18 16t24.5 7.5t27.5 2q13 0 41 -3t56 -10.5t49 -19.5t21 -31q0 -20 -10 -31.5t-25.5 -17t-33.5 -7t-34 -1.5zM1115 154q0 50 25 100t64.5 89.5t89.5 64.5t100 25q42 0 76 -13.5t59 -37.5t38.5 -58.5t13.5 -76.5q0 -50 -30 -94.5t-75 -77.5t-98 -52.5t-99 -19.5
q-36 0 -66 9.5t-51.5 28.5t-34 47t-12.5 66zM1230 150q0 -20 10 -23t26 -3q25 0 58 10t63 27.5t51 41.5t21 53q0 19 -11 29t-27.5 15t-34.5 6t-31 1q-21 0 -43 -17.5t-40 -42t-30 -51.5t-12 -46zM1861 50q-23 -17 -46 -30t-53 -13q-39 0 -65.5 23t-43 57t-24 72.5t-7.5 69.5
q0 19 1 45.5t8 50.5t21 41t41 17t37 -17t11.5 -40.5t-1.5 -49t-3 -42.5q0 -6 2 -23.5t5.5 -36t9 -33t12.5 -14.5q27 11 44.5 35t28.5 53t19.5 60t17.5 56t22 41.5t33 16.5q25 0 38.5 -9t19.5 -23.5t7 -33.5t1 -39q0 -65 -2 -134.5t-11 -134.5q-3 -22 -22 -34.5t-40 -12.5
q-16 0 -26.5 8t-17 20t-10.5 26.5t-7 27.5zM2327 129q14 -8 24 -20t10 -29q0 -21 -13.5 -37t-33 -27t-41.5 -16.5t-39 -5.5q-59 0 -97 29.5t-60 74.5t-30 98t-8 101q0 17 1 43.5t4 56t9.5 58.5t18 52.5t28.5 38t41 14.5q21 0 28.5 -13t7.5 -31q0 -29 -4 -57t-8.5 -56
t-8 -56.5t-3.5 -57.5q0 -15 3 -44.5t11 -59t23 -51t38 -21.5q22 0 43 9t44 9q4 0 12 -2zM2543 33q0 4 -5 7t-11 5.5t-12 4t-9 2.5q-38 12 -66.5 39.5t-48 63t-29.5 75.5t-10 77q0 18 13 34.5t32 16.5q24 0 38 -14t22.5 -35.5t13.5 -46t11 -46t16.5 -35.5t29.5 -14
q16 0 31.5 15t31 37.5t30.5 48.5t29.5 48.5t29 37.5t29.5 15q26 0 44.5 -17.5t18.5 -44.5q0 -12 -4 -27t-9.5 -30t-12 -29.5t-10.5 -25.5q-36 -90 -66 -183.5t-47 -189.5q-3 -15 -4.5 -32t-7 -31t-16 -23.5t-29.5 -9.5q-14 0 -26.5 6.5t-21.5 17t-14 24t-5 26.5q0 29 7 63
t15 66.5t15 60t7 43.5zM2862 453q-14 0 -28 12t-14 27q0 17 18.5 42t44 48.5t52.5 40t43 16.5q25 0 41 -15t16 -41q0 -18 -20.5 -41t-48.5 -42.5t-57 -33t-47 -13.5zM2896 180q0 29 17 37.5t41 8.5q18 0 48 -5t59.5 -15.5t51 -27t21.5 -40.5q0 -26 -16.5 -39.5t-40.5 -13.5
q-16 0 -46 7.5t-60 20t-52.5 30t-22.5 37.5zM2928 360q0 19 21 31t49 19.5t56 10.5t41 3t27 -2t25 -7.5t18 -16t7 -27.5q0 -24 -15.5 -37.5t-38 -20t-46.5 -8.5t-41 -2q-16 0 -34 1.5t-33.5 7t-25.5 17t-10 31.5z" />
    <glyph glyph-name="t_t" unicode="tt" horiz-adv-x="547" 
d="M411 372q7 1 10 1.5t10 0.5q19 0 36 -14.5t17 -34.5q0 -27 -12 -38t-26 -16.5t-26 -11t-12 -20.5q0 -16 2.5 -37t8.5 -40t17 -32.5t29 -13.5q29 0 47 -13.5t18 -45.5q0 -17 -8 -30t-20.5 -22t-28.5 -13.5t-31 -4.5q-34 0 -59 21.5t-43 53.5t-28.5 67.5t-14.5 64.5
q-4 25 -14 37t-23 11q-20 -2 -36 -8.5t-16 -25.5q0 -16 2 -32t8 -29.5t16.5 -22t28.5 -8.5q29 0 47 -13.5t18 -45.5q0 -17 -8 -30t-20.5 -22t-28.5 -13.5t-31 -4.5q-34 0 -59 17t-42 42.5t-27.5 56.5t-14.5 60q-3 20 -10 30.5t-16.5 16t-19.5 8.5t-18.5 8t-14 14t-5.5 26
q0 16 7.5 26t18.5 16.5t25 9.5t26 6q2 10 4 30t5.5 43.5t9.5 48t15 44.5t22 33t32 13q21 0 37.5 -12.5t16.5 -34.5q0 -15 -3.5 -34.5t-8.5 -40t-10 -40t-7 -33.5q23 2 43.5 5.5t43.5 8.5q3 15 7 45.5t13 60.5t25.5 52.5t44.5 22.5q21 0 37.5 -12.5t16.5 -34.5q0 -30 -9 -59
t-14 -58z" />
    <glyph glyph-name="T_T" unicode="TT" horiz-adv-x="911" 
d="M886 574q0 -21 -17 -33.5t-44 -19t-59.5 -9t-63.5 -2t-57 1t-39 0.5q-5 -86 -1 -173.5t4 -174.5q0 -21 2.5 -56t-1.5 -69t-18 -58.5t-48 -24.5q-16 0 -29 10q-9 6 -13.5 33t-6.5 64t-2 80.5t0.5 83.5t1.5 72.5t1 47.5v31t-0.5 53t-2 51.5t-4.5 27.5q-3 0 -5.5 0.5
t-5.5 0.5q-32 -2 -66 -1t-76 2q-5 -86 -1 -173.5t4 -174.5q0 -21 2.5 -56t-1.5 -69t-18 -58.5t-48 -24.5q-16 0 -29 10q-9 6 -13.5 33t-6.5 64t-2 80.5t0.5 83.5t1.5 72.5t1 47.5v31t-0.5 53t-2 51.5t-4.5 27.5q-20 3 -38 3q-26 0 -50.5 -3t-50.5 -3q-21 0 -36 16.5
t-15 37.5q0 13 6.5 23.5t16.5 18.5q9 8 33 13t55.5 8t67 4t67.5 1.5t57.5 0.5h37.5q59 1 112.5 1.5t103.5 0.5h97h94h35.5t35.5 -5t27 -17t11 -36z" />
    <glyph glyph-name="o_o" unicode="oo" horiz-adv-x="843" 
d="M14 154q0 50 25 100t64.5 89.5t89.5 64.5t100 25q42 0 76 -13.5t59 -37.5t38.5 -58.5t13.5 -76.5q0 -50 -30 -94.5t-75 -77.5t-98 -52.5t-99 -19.5q-36 0 -66 9.5t-51.5 28.5t-34 47t-12.5 66zM129 150q0 -20 10 -23t26 -3q25 0 58 10t63 27.5t51 41.5t21 53q0 19 -11 29
t-27.5 15t-34.5 6t-31 1q-21 0 -43 -17.5t-40 -42t-30 -51.5t-12 -46zM338 154q0 50 25 100t64.5 89.5t89.5 64.5t100 25q42 0 76 -13.5t59 -37.5t38.5 -58.5t13.5 -76.5q0 -50 -30 -94.5t-75 -77.5t-98 -52.5t-99 -19.5q-36 0 -66 9.5t-51.5 28.5t-34 47t-12.5 66zM453 150
q0 -20 10 -23t26 -3q25 0 58 10t63 27.5t51 41.5t21 53q0 19 -11 29t-27.5 15t-34.5 6t-31 1q-21 0 -43 -17.5t-40 -42t-30 -51.5t-12 -46z" />
    <glyph glyph-name=".notdef" horiz-adv-x="252" 
 />
    <glyph glyph-name="NULL" horiz-adv-x="0" 
 />
    <glyph glyph-name="nonmarkingreturn" unicode="&#xd;" horiz-adv-x="252" 
 />
    <glyph glyph-name="space" unicode=" " horiz-adv-x="179" 
 />
    <glyph glyph-name="E" unicode="E" horiz-adv-x="462" 
d="M140 352q8 -1 29.5 -1t48.5 -1.5t56.5 -4.5t54 -10.5t40.5 -19.5t16 -30q0 -31 -26 -43t-61.5 -14.5t-71.5 1t-56 3.5h-19q-3 -3 -3.5 -8.5t-0.5 -9.5q0 -26 6.5 -44t18.5 -41q45 6 91 12t92 6q26 0 46 -13t20 -42q0 -30 -27.5 -46t-65 -23t-75 -8t-58.5 -1
q-67 0 -102 24.5t-50.5 64.5t-17 90.5t-1.5 101.5q0 55 3.5 104t21.5 85.5t56.5 58t108.5 21.5q10 0 30 -1t44 -4t48.5 -7.5t44.5 -11.5t33 -17t13 -23q0 -18 -8 -29.5t-20 -17.5t-27.5 -8.5t-30.5 -2.5q-32 0 -64.5 3t-64.5 3q-30 0 -43.5 -4.5t-19 -16t-6 -30t-3.5 -45.5z
" />
    <glyph glyph-name="F" unicode="F" horiz-adv-x="446" 
d="M277 432q-36 0 -62 0.5t-42.5 -5.5t-24.5 -22t-8 -49v-16t1 -23t2 -22t4 -14l13 -4q30 4 62 3.5t63 -0.5h33t36.5 -4t30 -14t12.5 -31q0 -17 -7.5 -29t-20 -19.5t-27.5 -11.5t-30 -4l-165 -3q-1 -17 0.5 -46t-3 -57.5t-17.5 -49t-42 -20.5q-16 0 -26.5 7t-17.5 18.5
t-10 25t-4 26.5q-7 71 -6.5 146t0.5 147q0 58 15.5 94t44.5 55.5t71.5 26.5t96.5 7q16 0 47 0.5t61 -4.5t52.5 -18.5t22.5 -41.5q0 -24 -19 -34.5t-44.5 -13.5t-51.5 -1.5t-40 1.5z" />
    <glyph glyph-name="G" unicode="G" horiz-adv-x="571" 
d="M547 246q0 -52 -30.5 -94.5t-76 -73t-98.5 -47.5t-98 -17t-86 15.5t-71.5 43.5t-49 66.5t-18.5 84.5t17 91.5t46 87t67.5 77t82.5 61.5t90 40.5t91 14.5q20 0 38.5 -4t33 -14t23 -25.5t8.5 -37.5q0 -11 -3.5 -23t-10.5 -21.5t-17 -16t-23 -6.5q-8 0 -16.5 5t-17.5 11.5
t-20 11.5t-23 5q-40 0 -83 -25.5t-79 -64t-59 -84t-23 -85.5q0 -23 10 -39t26 -26.5t36 -15t40 -4.5q18 0 46.5 9t56.5 23.5t48 33.5t20 39q0 3 -6 3.5t-8 0.5q-23 0 -44.5 -6.5t-42.5 -14t-41 -14t-41 -6.5q-24 0 -40 13.5t-16 38.5q0 28 25 49t59.5 35.5t70.5 22t58 7.5
q28 0 54.5 -8t47.5 -24t34 -39t13 -54z" />
    <glyph glyph-name="H" unicode="H" horiz-adv-x="498" 
d="M29 172q0 8 -1 15t-3 15q-8 11 -8 28q0 20 0.5 56.5t3 79.5t8.5 88t16.5 81.5t26.5 59.5t40 23q9 0 20 -4t21 -11t16.5 -16t6.5 -19q0 -8 -5 -16t-9 -16q-8 -15 -13 -41t-7.5 -54.5t-3.5 -56t-1 -44.5v-13q14 -1 27 -1h27q35 0 71 2.5t71 5.5q2 17 3 46.5t2.5 63t6 67.5
t14.5 61.5t27.5 45t44.5 17.5q21 0 32.5 -13t11.5 -33q0 -72 -6.5 -144t-6.5 -145q0 -58 2.5 -115t2.5 -115q0 -17 -3 -33t-10.5 -28.5t-21 -20t-34.5 -7.5q-20 0 -31.5 15t-18 38t-8.5 51t-1.5 54t1.5 47.5t1 30.5q-49 -2 -97 -3.5t-96 -9.5q-4 -3 -4 -12v-13q0 -30 3 -60
t3 -60q0 -23 -14 -43.5t-40 -20.5q-28 0 -42 21t-19.5 49.5t-5.5 58.5v48z" />
    <glyph glyph-name="I" unicode="I" horiz-adv-x="171" 
d="M142 122q0 -16 1 -37t-3 -40t-15.5 -32t-35.5 -13q-28 0 -46 24q-6 7 -9.5 38.5t-6 75.5t-3.5 95.5t-1 99v85.5v55q0 16 -1.5 39.5t1.5 45.5t14.5 37t37.5 15q5 0 13 -2q16 -3 26.5 -24.5t16 -53t7.5 -68.5t2.5 -71.5t0 -61t-0.5 -37.5q1 -43 1.5 -85t0.5 -85z" />
    <glyph glyph-name="J" unicode="J" horiz-adv-x="565" 
d="M269 81q39 0 69.5 19t51 49t31.5 66.5t11 70.5q0 69 -23 127t-61 113h-98q-18 0 -42 -0.5t-45 4.5t-35.5 18t-14.5 40q0 11 3 21.5t12 17.5q3 2 20.5 4t43 3.5t55 2.5t56.5 1.5t47 1t27 0.5h37t39.5 -5.5t31 -18t12.5 -36.5q0 -16 -8.5 -25.5t-8.5 -20.5q0 -9 11 -32
t23.5 -54.5t23.5 -68t11 -71.5q0 -64 -17 -126.5t-52 -111.5t-87.5 -79t-124.5 -30q-37 0 -81 14.5t-82.5 40t-64 61t-25.5 77.5q0 12 5 23.5t13.5 21.5t19.5 16t23 6q17 0 28.5 -10.5t21.5 -26t20.5 -33.5t26 -33.5t38.5 -26t58 -10.5z" />
    <glyph glyph-name="K" unicode="K" horiz-adv-x="462" 
d="M161 142q29 0 58 5.5t56.5 12t54.5 12t53 5.5t41.5 -12.5t15.5 -39.5q0 -28 -29 -47.5t-68 -32t-78.5 -18.5t-60.5 -8q-3 0 -13 -1t-20.5 -2.5t-18.5 -4.5t-8 -8q0 -7 -6.5 -16.5t-15.5 -17.5t-19 -14t-17 -6q-27 0 -41 18.5t-20 44.5t-7 53t-1 44v69t1 105t2.5 119.5
t3.5 113.5t6 87.5t9 40.5q17 17 39 17q24 0 35 -18t14.5 -42t2.5 -49.5t-1 -40.5l3 -121q10 12 27 33t38.5 45.5t46 49.5t49 45t46.5 33t40 13q24 0 44.5 -16t20.5 -41q0 -13 -6 -23q-3 -5 -9 -10t-13.5 -9.5t-14.5 -8.5t-12 -7q-18 -10 -41.5 -31.5t-49 -50t-50 -61.5
t-44 -65.5t-31.5 -61.5t-12 -50v-32z" />
    <glyph glyph-name="L" unicode="L" horiz-adv-x="587" 
d="M509 103q28 0 44 -9t16 -39q0 -22 -14.5 -37.5t-37 -25t-50 -15t-55 -7.5t-51 -2.5t-37.5 -0.5q-84 0 -141 10t-92 40t-50.5 84.5t-15.5 143.5q0 73 6 145.5t6 146.5q0 15 -2 29.5t-2 28.5q0 24 18.5 41t41.5 17t35 -11.5t17.5 -28.5t6 -37t0.5 -36q0 -75 -4 -148.5
t-4 -148.5q0 -46 3.5 -76t17.5 -48t41.5 -25t75.5 -7q57 0 113.5 8t113.5 8z" />
    <glyph glyph-name="M" unicode="M" horiz-adv-x="665" 
d="M25 246q0 42 2.5 83.5t6.5 83.5q3 31 4.5 61.5t8.5 57.5t22.5 49.5t45.5 39.5q11 6 23.5 11.5t25.5 5.5q17 0 29 -22.5t22.5 -55.5t21 -72.5t25 -72.5t34.5 -55.5t49 -22.5q21 0 42.5 22.5t39.5 53t31.5 61t18.5 47.5q4 14 9.5 28t13 25t19 17.5t29.5 6.5q6 0 11.5 -0.5
t11.5 -1.5q31 -5 45.5 -20t19 -36.5t3.5 -47.5t-1 -52l1 -361q0 -14 -1 -28t-6 -25t-15 -18.5t-28 -7.5q-21 0 -37.5 12t-23.5 32q-6 19 -8 57.5t-1.5 82t2 83t2.5 59.5q-19 -17 -39 -36t-41.5 -34.5t-46 -26t-52.5 -10.5q-35 0 -64.5 15t-53.5 39t-43.5 52.5t-35.5 55.5
q-4 -17 -6 -33t-2 -34q0 -29 1.5 -61t4.5 -65t8.5 -64.5t13.5 -59.5q6 -21 12 -42.5t6 -43.5q0 -23 -14.5 -36.5t-38.5 -13.5q-25 0 -42.5 19t-29.5 49.5t-19 67t-10.5 72t-4.5 65t-1 45.5z" />
    <glyph glyph-name="N" unicode="N" horiz-adv-x="509" 
d="M32 361q0 12 -0.5 33.5t0 46t3.5 50.5t10 46.5t19.5 34t31.5 13.5q20 0 31.5 -12.5t17 -31.5t7 -43t0.5 -47t-3 -42.5t-2 -30.5q16 27 37.5 60t48 61t58.5 47t69 19q35 0 57 -16.5t34.5 -43.5t17 -60.5t5 -67.5t-1 -65t-1.5 -52q0 -65 3.5 -129.5t3.5 -128.5
q0 -22 -15 -34t-35 -12q-28 0 -45 18t-26 46.5t-12 63.5t-2.5 69.5t2.5 64.5t2 48q0 42 -1 84.5t-3 84.5l-2 1q-8 0 -22 -15.5t-28 -35.5t-26 -39t-16 -26q-29 -53 -49 -109.5t-28 -116.5q-2 -13 -4.5 -29.5t-8 -31.5t-16 -25t-27.5 -10t-35.5 14t-26.5 28q-5 9 -8 33
t-5.5 55.5t-4 67t-2.5 68.5t-1.5 59t-0.5 38z" />
    <glyph glyph-name="O" unicode="O" horiz-adv-x="689" 
d="M25 230q0 37 10.5 84.5t30.5 96t47.5 95t62 82.5t74 58t83.5 22q17 0 37 -7t40 -16.5t39 -20.5t35 -18q81 -39 128 -100t47 -153q0 -80 -30 -155t-82.5 -132.5t-124 -92t-154.5 -34.5q-63 0 -108.5 24.5t-75.5 65t-44.5 93t-14.5 108.5zM255 505q-23 -29 -42.5 -63
t-33.5 -71t-22 -75.5t-8 -75.5q0 -30 7.5 -59t23.5 -51.5t40.5 -36.5t59.5 -14q47 0 93.5 26t83.5 66t60 89t23 95q0 44 -12 73.5t-33 48t-49.5 28t-60 13.5t-65 5t-65.5 2z" />
    <glyph glyph-name="P" unicode="P" horiz-adv-x="462" 
d="M169 132q3 -32 6.5 -65t3.5 -65q0 -15 -2 -30t-8 -27t-17 -19.5t-30 -7.5q-22 0 -36 22t-22 56t-11 75t-3.5 80t0.5 70t1 45q0 45 3 90t3 90q0 16 -6.5 27.5t-15 22t-15 22.5t-6.5 29q0 33 19.5 58.5t49 42t63 25t61.5 8.5q44 0 86.5 -15t75.5 -42t53.5 -65.5t20.5 -86.5
q0 -47 -21 -92t-53.5 -85.5t-72 -74t-77.5 -55.5q-28 -16 -50 -33zM172 282q19 14 45.5 35.5t50.5 47t40.5 53t16.5 54.5q0 29 -13 47t-33.5 28t-45 14t-46.5 5q-11 -55 -17.5 -109t-6.5 -111q0 -16 2 -32.5t7 -31.5z" />
    <glyph glyph-name="Q" unicode="Q" horiz-adv-x="579" 
d="M554 344q0 -35 -3.5 -61.5t-12 -50.5t-21.5 -47.5t-31 -51.5l18.5 -18.5t17.5 -20t13.5 -23t5.5 -25.5q0 -23 -16 -34t-37 -11q-15 0 -27.5 5.5t-23 14t-19.5 19t-19 20.5q-16 -7 -28 -11.5t-24 -7.5t-25 -4.5t-31 -1.5q-60 0 -109 21t-84.5 57.5t-55 87t-19.5 109.5
q0 53 20 106.5t55.5 96t84 69.5t105.5 27q60 0 109 -19.5t84 -54.5t54 -84t19 -107zM435 343q0 11 -1 23t-5 23q-8 22 -18 26.5t-21 5.5t-23 5t-24 26q-9 17 -23.5 30.5t-35.5 13.5q-27 0 -53.5 -19t-47.5 -47t-34.5 -59.5t-13.5 -55.5q0 -30 13 -59.5t35 -52.5t50.5 -37.5
t59.5 -14.5q6 0 12.5 2t10.5 7q-4 13 -11.5 26t-15 25.5t-13.5 25t-6 26.5q0 24 16.5 35.5t38.5 11.5q14 0 26 -8t22.5 -19.5t19.5 -24.5t17 -22q13 27 19 52t6 55z" />
    <glyph glyph-name="R" unicode="R" horiz-adv-x="453" 
d="M39 310q0 45 1 94.5t-8 93.5q-2 7 -3 13t-1 13q0 18 7.5 35.5t19.5 32t28 24t34 10.5q40 2 78.5 11t78.5 9q27 0 59.5 -6t60 -20t46 -36.5t18.5 -56.5q0 -46 -28.5 -83.5t-68.5 -69.5t-83.5 -59.5t-73.5 -54.5q17 -12 50 -30t66 -39.5t58 -44.5t25 -45q0 -21 -14.5 -38.5
t-36.5 -17.5q-14 0 -39.5 11t-54 26t-55 30t-40.5 23q-6 -11 -8 -29t-3.5 -38.5t-3.5 -41t-8 -37t-18 -27t-32 -10.5q-23 0 -34.5 8t-16.5 20.5t-5.5 28.5t-0.5 33q0 68 3 134.5t3 133.5zM247 530q-36 0 -55 -5t-27.5 -17.5t-10 -33t-1.5 -51.5l1 -41q9 6 38.5 24.5t61 40.5
t56 42t25.5 28q-7 4 -18.5 6.5t-24 4t-25 2t-20.5 0.5z" />
    <glyph glyph-name="S" unicode="S" horiz-adv-x="539" 
d="M367 665q38 0 66 -14.5t46.5 -39t27.5 -56.5t9 -67q0 -15 -4 -41.5t-13.5 -52.5t-24 -45t-35.5 -19q-9 0 -18.5 4.5t-17.5 12t-13 16.5t-5 18q0 28 10.5 55t10.5 56q0 20 -8.5 39.5t-31.5 19.5q-22 0 -48 -16.5t-48.5 -40.5t-38 -51t-15.5 -48q0 -22 20 -45t49.5 -46.5
t64.5 -49.5t64.5 -54t49.5 -59.5t20 -66.5q0 -42 -23 -67.5t-57 -39t-72.5 -18t-69.5 -4.5q-27 0 -68 4t-79 16.5t-65 35.5t-27 61q0 22 14.5 35.5t35.5 13.5q17 0 34 -6.5t32 -14.5q35 -18 66.5 -20.5t70.5 -2.5h15.5t26.5 1t25 3.5t11 8.5q-17 31 -42.5 53t-54 41
t-56.5 38.5t-51 46t-37 63.5t-14 90q0 43 26 88t65.5 82t87 60t89.5 23z" />
    <glyph glyph-name="T" unicode="T" horiz-adv-x="637" 
d="M616 574q0 -21 -17 -33.5t-44 -19t-59.5 -9t-63.5 -2t-57 1t-39 0.5q-5 -86 -1 -173.5t4 -174.5q0 -21 2.5 -56t-1.5 -69t-18 -58.5t-48 -24.5q-16 0 -29 10q-9 6 -13.5 33t-6.5 64t-2 80.5t0.5 83.5t1.5 72.5t1 47.5v31t-0.5 53t-2 51.5t-4.5 27.5q-20 3 -38 3
q-26 0 -50.5 -3t-50.5 -3q-21 0 -36 16.5t-15 37.5q0 13 6.5 23.5t16.5 18.5q9 8 33 13t55.5 8t67 4t67.5 1.5t57.5 0.5h37.5q35 1 68.5 1.5t68.5 0.5h35.5t35.5 -5t27 -17t11 -36z" />
    <glyph glyph-name="U" unicode="U" horiz-adv-x="567" 
d="M517 309q0 -38 4 -75.5t9 -75t9 -74.5t4 -74q0 -26 -15.5 -40.5t-40.5 -14.5q-30 0 -45.5 23t-23 54.5t-10.5 64.5t-7 53q-24 -9 -41 -23t-35 -27.5t-42 -23.5t-63 -10q-55 0 -90.5 28t-56 70t-28.5 92t-8 94q0 17 2 45.5t7 61.5t13 66t21 60t30.5 44t40.5 17
q17 0 31.5 -14.5t14.5 -31.5q0 -15 -6.5 -32.5t-11.5 -31.5q-14 -38 -20.5 -88t-6.5 -90q0 -15 2 -44t9 -57.5t21 -50t37 -21.5q11 0 25.5 8.5t28 20t25 24.5t17.5 22q12 19 24 47t21.5 58.5t17 60t12.5 52.5q3 16 7 41.5t12 50.5t21.5 43t36.5 18q21 0 33 -5t17.5 -14.5
t7 -24t1.5 -33.5q0 -61 -5.5 -121.5t-5.5 -121.5z" />
    <glyph glyph-name="V" unicode="V" horiz-adv-x="505" 
d="M484 632q0 -29 -10.5 -82t-27.5 -118t-38.5 -136t-44.5 -134.5t-45.5 -113.5t-40.5 -73q-15 -19 -38 -35t-49 -16q-31 0 -56 41t-44 104.5t-33 140.5t-23 148.5t-13 128.5t-4 81q0 20 14.5 34.5t34.5 14.5q26 0 42 -16.5t21 -41.5q3 -17 8 -54.5t10.5 -84t12.5 -97.5
t14 -95.5t14 -77t14 -42.5q0 -2 2 -2q3 0 6 4.5t6 10.5t5 11.5t3 7.5q48 111 82 232.5t58 239.5q3 12 5.5 27t8.5 28t15.5 22t25.5 9q35 0 50 -15.5t15 -50.5z" />
    <glyph glyph-name="W" unicode="W" horiz-adv-x="816" 
d="M714 626q27 0 43 -19t23.5 -45.5t9.5 -55.5t2 -48q0 -62 -10 -127t-32.5 -126.5t-58.5 -115.5t-87 -93q-29 -22 -64 -39t-73 -17q-42 0 -71.5 22t-49.5 55t-33.5 71.5t-23.5 70.5q-14 -15 -28 -29.5t-30 -26.5t-35 -19t-41 -7q-31 0 -52.5 16t-35 41.5t-21 57.5
t-10.5 64.5t-3.5 62t-0.5 50.5q0 16 -1 39.5t-0.5 50t3.5 52.5t11 47.5t22 34.5t37 13t37 -16.5t14 -39.5q0 -38 -5 -77t-5 -78q0 -37 2 -73.5t7 -73.5q0 -2 1 -8.5t2.5 -13t3.5 -12t5 -5.5q9 0 20 15t23 37t25 48t27.5 48t30 37t32.5 15q10 0 19.5 -4t17.5 -9
q26 -16 30.5 -36.5t4.5 -49.5q0 -10 2 -32t6.5 -49.5t11 -57t15 -54t19 -40t23.5 -15.5q12 0 29 11.5t34 27t32 31.5t21 25q22 32 37.5 70t25.5 79t14.5 82.5t4.5 79.5q0 28 -8 54t-8 52q0 10 6 19t14.5 16.5t19 12t19.5 4.5z" />
    <glyph glyph-name="X" unicode="X" horiz-adv-x="569" 
d="M104 699q12 0 21.5 -6t17.5 -14q5 -6 9 -15.5t7.5 -20t6 -20.5t4.5 -17q14 -53 38.5 -105.5t46.5 -102.5q9 10 25 28.5t36 40.5t42.5 45t44.5 41.5t42 30.5t35 12q21 0 40.5 -12t19.5 -35q0 -12 -15 -33t-38 -46.5t-50 -53t-50.5 -53t-40.5 -46.5t-19 -33q-2 -8 12 -30
t35.5 -51t47.5 -62t48 -63.5t37 -55t15 -36.5q0 -20 -15 -32.5t-34 -12.5q-27 0 -60 28.5t-64.5 67t-58 77t-42.5 58.5q-16 -24 -34 -57.5t-38.5 -65.5t-44.5 -57t-53 -31q-20 6 -34.5 22.5t-14.5 38.5q0 10 9 30.5t23 46.5t31.5 55t34 56t30 50.5t20.5 37.5
q-14 28 -35 72.5t-41 93.5t-34.5 95.5t-14.5 78.5q0 22 14 41.5t38 19.5z" />
    <glyph glyph-name="Y" unicode="Y" horiz-adv-x="494" 
d="M409 626q23 0 40.5 -17t17.5 -40q0 -7 -12 -33.5t-30.5 -63.5t-41 -78.5t-43 -77.5t-37 -62t-22.5 -31q-8 -6 -10.5 -30t-2.5 -52.5t1.5 -55t1.5 -38.5q0 -14 -1.5 -28t-6.5 -24.5t-15.5 -17t-28.5 -6.5q-27 0 -39.5 17t-17 40.5t-4.5 49.5v44v40t-2 37t-7.5 35.5
t-16.5 36.5q-6 11 -16 35t-21 55.5t-22 65.5t-20 65.5t-14.5 55.5t-5.5 35q0 18 13.5 33.5t31.5 15.5q20 0 36 -15t28 -39t22 -54t19.5 -59t19 -55t21.5 -41q7 10 19.5 31t28 47.5t32 55t31.5 52.5t26 40.5t16 20.5q13 10 32 10z" />
    <glyph glyph-name="Z" unicode="Z" horiz-adv-x="629" 
d="M593 36q0 -35 -30 -50q-4 -2 -33.5 -3.5t-72.5 -3.5t-93.5 -3.5t-97 -2.5t-83 -1.5t-50.5 -0.5q-18 0 -37.5 2.5t-35.5 10t-26.5 21.5t-10.5 37q0 38 29.5 80.5t73.5 86t95.5 85t95.5 77t73.5 63t29.5 41.5q0 3 -5.5 4.5t-12.5 1.5h-13h-7q-57 0 -113 -4t-113 -4
q-14 0 -31 1t-32 6t-25 15.5t-10 29.5q0 22 15.5 36.5t35.5 17.5q72 11 148 12.5t149 1.5q22 0 54 -0.5t62 -7.5t51.5 -23.5t21.5 -47.5q0 -27 -22.5 -60t-58.5 -70t-79.5 -75.5t-86 -75.5t-78.5 -71t-56 -62l164 -1q13 0 34 1.5t45 1.5t48 -2t43.5 -9t32 -20t12.5 -35z" />
    <glyph glyph-name="bracketleft" unicode="[" horiz-adv-x="341" 
d="M141 656q0 -132 2.5 -263.5t2.5 -265.5q0 -6 -1 -22t-1 -36.5t1 -42t4.5 -40t10 -30t17.5 -11.5q10 0 15.5 -0.5t10.5 -0.5t10.5 -0.5t16.5 -0.5q15 0 28 -0.5t22.5 -5t15 -15t5.5 -29.5q0 -29 -18.5 -44t-45 -21.5t-55 -7t-49.5 -0.5q-48 0 -70.5 22.5t-30 56t-6 72.5
t1.5 71q0 59 -1 128t-1.5 140t-1 140t0 127.5t2.5 103t7 66.5q5 25 21.5 35.5t39.5 13t49 0.5t51 -2h41.5t39 -5.5t29 -19.5t11.5 -42q0 -21 -13 -30.5t-32.5 -13t-42 -2.5t-42 0t-32.5 -6t-13 -19z" />
    <glyph glyph-name="backslash" unicode="\" horiz-adv-x="836" 
d="M831 -236q0 -23 -14.5 -38t-37.5 -15q-13 0 -23 4.5t-20 11.5q-17 12 -56 60.5t-91 121t-112.5 161.5t-122 182.5t-120 184t-105 166t-77.5 128.5t-38 71q-5 11 -8 22t-3 22q0 9 4.5 18t11.5 17t16 13t18 5q13 0 26 -11t24.5 -26.5t20.5 -31t15 -24.5
q145 -235 296.5 -463t317.5 -448q7 -10 20.5 -26.5t26 -35.5t22 -37.5t9.5 -31.5z" />
    <glyph glyph-name="bracketright" unicode="]" horiz-adv-x="396" 
d="M208 30q0 112 3 219t5 219q2 51 1 100.5t7 98.5l4 20q-23 -3 -45 -5.5t-45 -2.5q-13 0 -30.5 2t-33.5 9t-27 20.5t-11 35.5q0 16 7.5 24t18 11.5t23 4t21.5 0.5q35 0 68 8.5t68 8.5q12 0 27.5 -2t29 -7t23 -13.5t11.5 -21.5q3 -24 3 -65.5t-1 -95.5t-3 -115.5t-4 -125.5
t-3.5 -126.5t-1.5 -116.5t1 -109.5t1 -103.5q0 -24 -12.5 -33.5t-30 -11.5t-36.5 0t-32 2q-40 0 -79 -10.5t-78 -10.5q-19 0 -30 15.5t-11 35.5q0 26 21.5 42.5t51 26.5t59 13.5t45.5 3.5q6 0 11.5 1t4.5 10z" />
    <glyph glyph-name="a" unicode="a" horiz-adv-x="476" 
d="M143 -11q-28 0 -50 12t-37.5 31.5t-23.5 44.5t-8 50l1 33q3 40 24 89.5t54.5 93.5t76 74t86.5 30q25 0 43 -10t27 -10q8 0 20.5 9.5t34.5 9.5q31 0 43.5 -22t15.5 -52t0 -61.5t-3 -50.5v-61q0 -18 1.5 -40.5t-2 -42t-14.5 -33t-36 -13.5q-8 0 -17.5 3t-17.5 8.5
t-13.5 13.5t-5.5 17q0 2 -2 2q-6 0 -23 -19.5t-43 -43t-59.5 -43t-71.5 -19.5zM139 136q0 -6 2 -15.5t11 -9.5q23 15 45 36.5t39 46.5t27.5 53.5t10.5 57.5q0 2 -0.5 7t-1.5 10t-3 8.5t-6 3.5q-19 0 -41 -24t-40.5 -56.5t-30.5 -66t-12 -51.5z" />
    <glyph glyph-name="b" unicode="b" horiz-adv-x="408" 
d="M92 98q-5 8 -19 12q-24 5 -34.5 21.5t-14 37.5t-2.5 44t1 43q0 60 -1 119.5t-1 119.5q0 14 -0.5 38t3 47t14 40t32.5 17q21 0 34.5 -13.5t20.5 -34.5t9.5 -47t2 -52t-1.5 -48.5t-1 -36.5q0 -15 2 -28.5t5 -27.5q30 23 59 40.5t69 17.5q24 0 44.5 -9t36.5 -25t25 -36.5
t9 -44.5q0 -26 -11 -58.5t-29.5 -65t-43 -63.5t-52.5 -55.5t-57 -39t-57 -14.5q-61 0 -61 60q0 13 3 19.5t6.5 10t6.5 5.5t3 7zM151 131q0 -2 1 -2q12 9 30 27t35.5 39.5t30 43.5t12.5 37q0 5 -2 5q-10 -6 -28 -26.5t-35.5 -44.5t-30.5 -46.5t-13 -32.5z" />
    <glyph glyph-name="c" unicode="c" horiz-adv-x="348" 
d="M200 343q-15 -7 -27 -22.5t-20.5 -35t-12.5 -39.5t-4 -36q0 -14 3.5 -30t11 -30t19.5 -23.5t29 -9.5q10 0 25 9t35 9q23 0 41.5 -15t18.5 -39q0 -15 -12 -31t-29.5 -29t-36.5 -21.5t-33 -8.5q-44 0 -79 18.5t-59.5 49.5t-37.5 69.5t-13 79.5q0 37 13 81.5t37.5 83.5
t59 65t77.5 26q28 0 50 -14.5t37 -37t22.5 -49.5t7.5 -52q0 -30 -13 -48t-45 -18q-26 0 -35.5 15.5t-13.5 33.5t-5.5 33.5t-10.5 15.5z" />
    <glyph glyph-name="d" unicode="d" horiz-adv-x="410" 
d="M23 159q0 54 17 102t48.5 82.5t77.5 52t103 10.5l5 124q1 16 0.5 44t4.5 55t18 46.5t41 19.5q10 0 17 -4.5t14 -10.5q5 -5 8.5 -30t5.5 -60t2.5 -76t0.5 -78.5v-66.5v-40q0 -26 -0.5 -59.5t-5 -67t-15 -63.5t-31.5 -49q-23 -20 -41 -36.5t-37 -28t-42 -18t-56 -6.5
q-30 0 -55 14t-43 36.5t-27.5 51t-9.5 56.5zM217 284q-17 0 -30 -14t-22.5 -33.5t-14.5 -40t-5 -33.5q0 -17 5 -27t20 -17q32 7 56 33t42 51q-2 5 -7.5 18.5t-12 27.5t-15 24.5t-16.5 10.5z" />
    <glyph glyph-name="e" unicode="e" horiz-adv-x="468" 
d="M24 210q0 44 13 87t38.5 77.5t63 55.5t86.5 21q54 0 90 -33t36 -89q0 -38 -9 -66.5t-26 -51.5t-40.5 -42.5t-52.5 -39.5h28q18 0 37.5 7.5t38 17t36 17t32.5 7.5q9 0 18.5 -5.5t17.5 -14t13.5 -18t5.5 -18.5q0 -30 -28.5 -52t-67.5 -36.5t-79 -21.5t-62 -7q-44 0 -79 16
t-59.5 43.5t-37.5 65t-13 80.5zM150 262q0 -11 7.5 -16.5t17.5 -5.5q14 0 24.5 7.5t18 19t11.5 25t4 25.5q0 5 -0.5 12t-7.5 7q-9 0 -22 -8.5t-24.5 -20t-20 -24t-8.5 -21.5z" />
    <glyph glyph-name="f" unicode="f" horiz-adv-x="354" 
d="M186 157q20 2 39.5 5t39.5 3q19 0 36 -17t17 -36q0 -20 -13.5 -32t-32 -20t-37.5 -14.5t-30 -15.5q0 -23 9 -48t20 -48.5t20 -44.5t9 -34q0 -11 -5.5 -20.5t-14 -17.5t-18.5 -12.5t-20 -4.5q-25 0 -42.5 15.5t-30 38t-20.5 47.5t-12 43q-2 9 -4 19t-5.5 18t-9.5 13t-18 5
q-20 0 -34.5 13t-14.5 34q0 16 8 28.5t21 20.5q13 9 19 20t8.5 23.5t3 26t1.5 28.5q1 21 6 53t14.5 68.5t22.5 73t31.5 65.5t42 47.5t52.5 18.5q28 0 45 -10.5t26 -28t12 -40t3 -45.5q0 -17 -1.5 -35.5t-8 -34t-19 -26t-34.5 -10.5q-27 0 -43 24q-1 1 -2 3l-3 3q-3 0 -5 -4
t-3.5 -9t-2.5 -10t-1 -6q-8 -33 -13 -66t-8 -67z" />
    <glyph glyph-name="g" unicode="g" horiz-adv-x="479" 
d="M150 22q-69 0 -100 39.5t-31 104.5q0 42 21 82.5t54.5 73t75.5 52t83 19.5q34 0 64 -15q15 -8 31.5 -13t33.5 -7q20 -2 31 -8t17 -15.5t8 -23.5t4 -32q3 -39 8.5 -79t5.5 -79q0 -41 -6.5 -82t-22.5 -78q-13 -30 -38 -63.5t-56.5 -61.5t-67.5 -46.5t-71 -18.5
q-58 0 -58 56q0 20 13.5 32.5t34.5 25t45.5 28t46 40t37.5 62.5t19 95q-23 -18 -43 -34t-41 -28t-44.5 -19t-53.5 -7zM135 165q0 -10 3.5 -16.5t14.5 -6.5q15 0 35 9.5t37.5 24.5t29.5 33t12 35q0 10 -3 23t-16 13q-16 0 -35.5 -12t-37 -29t-29 -37.5t-11.5 -36.5z" />
    <glyph glyph-name="h" unicode="h" horiz-adv-x="358" 
d="M283 -9q-23 0 -37.5 13.5t-22 34.5t-10.5 47t-3.5 51.5t1 47t1.5 34.5q-4 -9 -10 -29t-15 -44.5t-20.5 -50t-25 -47t-29 -35t-32.5 -13.5q-14 0 -27.5 5t-22.5 16q-5 6 -7.5 23t-3.5 40.5t-0.5 50t1 51t1 44.5t0.5 30q0 65 -3 129t-3 128q0 12 1.5 26.5t6.5 26.5
t14.5 20.5t25.5 8.5q22 0 36 -18t22 -46.5t11.5 -63t5 -68t1 -62t0.5 -43.5q13 33 39 58t64 25q32 0 51 -16.5t29 -43t12.5 -59.5t2 -66.5t-1.5 -64t1 -51.5q1 -8 1.5 -15.5t0.5 -15.5q0 -24 -15 -41t-40 -17z" />
    <glyph glyph-name="i" unicode="i" horiz-adv-x="161" 
d="M135 127q0 -18 0.5 -40t-4 -41.5t-17 -33t-37.5 -13.5q-23 0 -34.5 15.5t-16 37t-4.5 44.5v38q0 12 -1 34.5t-1 49t2.5 54t9.5 50t19.5 36.5t33.5 14q13 0 22.5 -6.5t16 -16t10 -21.5t3.5 -23zM75 407q-22 0 -35.5 19t-13.5 39q0 21 14 38.5t37 17.5q21 0 38 -18.5
t17 -39.5t-18 -38.5t-39 -17.5z" />
    <glyph glyph-name="j" unicode="j" horiz-adv-x="181" 
d="M94 312q28 0 41.5 -23.5t18 -55.5t3.5 -65t-1 -53q0 -26 -2 -61t-8 -72.5t-17 -73.5t-29.5 -65t-45.5 -46.5t-64 -17.5q-23 0 -47 12t-44 31t-32.5 42.5t-12.5 46.5t17.5 42t40.5 19q20 0 31.5 -10t19 -22.5t13 -22.5t14.5 -10q14 0 23.5 15.5t15 40t8.5 53t4 55t1.5 47
t0.5 27.5q0 15 -0.5 43t3 55.5t14 48t34.5 20.5zM34 426q0 15 5.5 30t15 28t22.5 21t29 8q22 0 38 -11.5t16 -34.5q0 -12 -7 -28.5t-18 -31.5t-24 -25.5t-26 -10.5q-22 0 -36.5 17t-14.5 38z" />
    <glyph glyph-name="k" unicode="k" horiz-adv-x="330" 
d="M187 184q0 -12 7.5 -15.5t18 -3t21 2.5t17.5 2q9 0 18 -5.5t16.5 -14t12 -18.5t4.5 -19q0 -17 -11.5 -30.5t-28.5 -23.5t-35.5 -15.5t-32.5 -5.5q-10 0 -18.5 3t-16.5 3q-6 0 -8.5 -12.5t-7.5 -27.5t-16.5 -27.5t-35.5 -12.5q-22 0 -35.5 17.5t-21.5 44.5t-11.5 60.5
t-4.5 65t-0.5 58t0.5 39.5q0 16 -0.5 46.5t0.5 66.5t4.5 73.5t12.5 67.5t24 49.5t38 19.5t34.5 -14.5t11.5 -36.5q0 -31 -5 -61.5t-5 -61.5l1 -24q12 10 24.5 26t26 31t29 25.5t33.5 10.5q10 0 21 -5.5t20 -14t14.5 -19.5t5.5 -21q0 -1 -9 -12.5t-22.5 -29.5t-29 -40.5
t-29 -47t-22.5 -49t-9 -44.5z" />
    <glyph glyph-name="l" unicode="l" horiz-adv-x="364" 
d="M311 129q14 -8 24 -20t10 -29q0 -21 -13.5 -37t-33 -27t-41.5 -16.5t-39 -5.5q-59 0 -97 29.5t-60 74.5t-30 98t-8 101q0 17 1 43.5t4 56t9.5 58.5t18 52.5t28.5 38t41 14.5q21 0 28.5 -13t7.5 -31q0 -29 -4 -57t-8.5 -56t-8 -56.5t-3.5 -57.5q0 -15 3 -44.5t11 -59
t23 -51t38 -21.5q22 0 43 9t44 9q4 0 12 -2z" />
    <glyph glyph-name="m" unicode="m" horiz-adv-x="629" 
d="M475 107q-15 -12 -25 -25t-21.5 -24.5t-26 -19t-36.5 -7.5q-28 0 -49 16t-34.5 40t-20 52.5t-6.5 52.5q0 3 -1 3q-5 0 -14 -15t-21.5 -38t-28 -49t-32.5 -49t-35 -38t-36 -15q-27 0 -41 17.5t-19.5 42.5t-6 51.5t-0.5 43.5q0 13 -1 36t-0.5 49t3 52.5t9.5 48.5t19 35.5
t32 13.5q22 0 33 -10.5t16 -26t5.5 -34t0.5 -33.5q0 -8 0.5 -16.5t1.5 -16.5q13 18 27.5 39.5t32 39.5t38.5 30.5t46 12.5q28 0 45.5 -19.5t28 -47.5t16 -57.5t9.5 -49.5q7 15 23 47t36.5 64.5t44.5 57t49 24.5q29 0 42.5 -17.5t18.5 -42.5t4 -52t-1 -45q0 -40 3 -79.5
t3 -78.5q0 -24 -10.5 -45t-38.5 -21q-27 0 -40.5 9.5t-20 24.5t-10 33.5t-11.5 35.5z" />
    <glyph glyph-name="n" unicode="n" horiz-adv-x="380" 
d="M359 156q0 -18 1 -44.5t-4 -50.5t-18.5 -41t-42.5 -17q-16 0 -26 12.5t-16 32.5t-9 44t-4 47.5t-0.5 43t0.5 29.5q0 2 -0.5 4t-2.5 2q-12 -14 -22.5 -35t-21.5 -45t-23 -48.5t-26 -44t-31.5 -32t-39.5 -12.5q-20 0 -30.5 10.5t-15.5 26.5t-6 34t-1 32q0 16 -1 47t0 68
t4.5 75.5t12.5 69.5t25.5 51t41.5 20q22 0 34.5 -10.5t18.5 -26t7 -34.5t0 -36q6 12 17.5 28t25.5 30t29.5 24t30.5 10q26 0 43 -14.5t27 -38t15 -53t7 -58.5t1.5 -55.5t-0.5 -44.5z" />
    <glyph glyph-name="o" unicode="o" horiz-adv-x="503" 
d="M14 154q0 50 25 100t64.5 89.5t89.5 64.5t100 25q42 0 76 -13.5t59 -37.5t38.5 -58.5t13.5 -76.5q0 -50 -30 -94.5t-75 -77.5t-98 -52.5t-99 -19.5q-36 0 -66 9.5t-51.5 28.5t-34 47t-12.5 66zM129 150q0 -20 10 -23t26 -3q25 0 58 10t63 27.5t51 41.5t21 53q0 19 -11 29
t-27.5 15t-34.5 6t-31 1q-21 0 -43 -17.5t-40 -42t-30 -51.5t-12 -46z" />
    <glyph glyph-name="p" unicode="p" horiz-adv-x="358" 
d="M92 369q24 0 47 6.5t48 6.5q31 0 57.5 -7.5t46 -23t31 -40t11.5 -57.5q0 -37 -17.5 -75.5t-45 -72.5t-61.5 -60.5t-67 -39.5l1 -70v-32.5t-4 -32t-14.5 -24t-32.5 -9.5q-13 0 -26 4.5t-21 15.5q-7 9 -11.5 34.5t-7 59t-3 72t-1 74t0 63t0.5 40.5q0 25 -2 54.5t2 55t19 42
t50 16.5zM137 160q0 -3 1 -7t5 -4q6 0 18.5 14.5t25 33t21.5 36t9 24.5q0 8 -6 11t-13 3l-11 -1q-14 -2 -18.5 -11.5t-6 -22t-3.5 -27t-11 -24.5q-5 -5 -8 -11t-3 -14z" />
    <glyph glyph-name="q" unicode="q" horiz-adv-x="357" 
d="M337 358q0 -92 -9.5 -190.5t-9.5 -198.5q0 -45 4 -88t4 -87q0 -23 -17 -41.5t-41 -18.5q-23 0 -37 19t-22 48t-11.5 64t-4.5 67.5t-0.5 57.5t0.5 35q-16 -11 -29 -18.5t-33 -7.5q-33 0 -54.5 14.5t-34 37.5t-17 50.5t-4.5 54.5q0 35 9.5 76t29.5 76t50 60t71 28
q14 1 26.5 6t24.5 10.5t23.5 10t23.5 4.5q31 0 44.5 -20.5t13.5 -48.5zM192 281h-2q-12 0 -22 -15.5t-17.5 -35.5t-11.5 -40.5t-4 -29.5v-4.5t3 -4.5q6 7 15 24.5t17.5 37.5t15 39t6.5 29z" />
    <glyph glyph-name="r" unicode="r" horiz-adv-x="330" 
d="M72 -11q-25 0 -36 21.5t-14.5 50.5t-2 58t1.5 44q0 63 -4 124.5t-4 124.5q0 26 12 40.5t40 14.5q21 0 33 -9.5t17.5 -24.5t7 -33t2.5 -34q31 23 57.5 37.5t65.5 14.5q10 0 21 -5.5t19.5 -14t14 -19t5.5 -21.5t-5.5 -21t-14.5 -17.5t-19.5 -13t-20.5 -7.5
q-23 -5 -37 -29.5t-24 -59t-18.5 -73.5t-20.5 -72t-30 -54.5t-46 -21.5z" />
    <glyph glyph-name="s" unicode="s" horiz-adv-x="336" 
d="M169 173q-20 17 -45.5 27t-48 22.5t-38.5 32t-16 55.5q0 34 18 67t46 59t62.5 42t67.5 16q18 0 36 -5t32.5 -15.5t24 -25.5t9.5 -35q0 -26 -15 -37t-39 -11q-6 0 -13.5 1.5t-11.5 6.5q-5 4 -12 6.5t-14 2.5t-18.5 -6t-22.5 -15t-19 -19t-8 -17v-3q20 -13 49.5 -23t57 -23
t47 -31.5t19.5 -48.5q0 -19 -14.5 -43.5t-37.5 -50.5t-51.5 -51.5t-56.5 -45t-53.5 -31.5t-41.5 -12q-21 0 -33 17.5t-12 37.5q0 21 18 43.5t42.5 43.5t50 39t41.5 30z" />
    <glyph glyph-name="t" unicode="t" horiz-adv-x="340" 
d="M203 341q7 1 14 1.5t14 0.5q19 0 36 -14.5t17 -34.5q0 -27 -12 -38t-26 -16.5t-26 -11t-12 -20.5q0 -16 2 -32t8 -29.5t16.5 -22t28.5 -8.5q29 0 47 -13.5t18 -45.5q0 -17 -8 -30t-20.5 -22t-28.5 -13.5t-31 -4.5q-34 0 -59 17t-42 42.5t-27.5 56.5t-14.5 60
q-3 20 -10 30.5t-16.5 16t-19.5 8.5t-18.5 8t-14 14t-5.5 26q0 16 7.5 26t18.5 16.5t25 9.5t26 6q2 10 4 30t5.5 43.5t9.5 48t15 44.5t22 33t32 13q21 0 37.5 -12.5t16.5 -34.5q0 -15 -3.5 -34.5t-8.5 -40t-10 -40t-7 -33.5z" />
    <glyph glyph-name="u" unicode="u" 
d="M257 50q-23 -17 -46 -30t-53 -13q-39 0 -65.5 23t-43 57t-24 72.5t-7.5 69.5q0 19 1 45.5t8 50.5t21 41t41 17t37 -17t11.5 -40.5t-1.5 -49t-3 -42.5q0 -6 2 -23.5t5.5 -36t9 -33t12.5 -14.5q27 11 44 35t29 53t20 60t17 56t21.5 41.5t33.5 16.5q25 0 38.5 -9t19.5 -23.5
t7 -33.5t1 -39q0 -65 -2 -134.5t-11 -134.5q-3 -22 -22 -34.5t-40 -12.5q-16 0 -26.5 8t-17 20t-10.5 26.5t-7 27.5z" />
    <glyph glyph-name="v" unicode="v" horiz-adv-x="420" 
d="M399 363q0 -21 -9 -56t-24 -75.5t-35.5 -82t-44 -75t-49 -54.5t-49.5 -21q-29 0 -52.5 20.5t-43 53.5t-34 73.5t-24.5 80.5t-15 74.5t-5 54.5q0 21 15.5 40t38.5 19q12 0 22.5 -6.5t18.5 -16.5t12.5 -22t4.5 -23q0 -10 6.5 -42t16 -67.5t19.5 -63.5t17 -29
q14 13 26.5 39.5t24 57.5t23 63.5t25 59.5t28.5 44t34 17q29 0 41 -18.5t12 -44.5z" />
    <glyph glyph-name="w" unicode="w" horiz-adv-x="505" 
d="M408 471q26 0 41.5 -20.5t24 -49t11 -57.5t2.5 -47q0 -37 -7.5 -88.5t-26.5 -99t-51 -80.5t-81 -33q-19 0 -32.5 3.5t-24.5 10t-20.5 16.5t-21.5 24q-18 -22 -40 -40t-52 -18q-35 0 -56.5 23t-33.5 55.5t-16 68t-4 61.5v38.5t2.5 56t7 62.5t14 58t23.5 42.5t35 16.5
q9 0 19 -5t18.5 -13.5t13.5 -18t5 -18.5q0 -5 -1 -10t-3 -10q-13 -47 -17 -102t-4 -104q0 -5 0.5 -10t1.5 -10l2 -1q8 0 14.5 21t16 46t25 46t40.5 21q19 0 31 -12t19.5 -29t11.5 -36t6 -32q0 -3 2 -14t4.5 -23.5t6 -22.5t6.5 -10q13 9 22 33.5t14 53.5t7.5 56.5t2.5 42.5
t-3.5 28.5t-7.5 25.5t-7.5 23.5t-3.5 23.5q0 24 20.5 40.5t43.5 16.5z" />
    <glyph glyph-name="x" unicode="x" horiz-adv-x="384" 
d="M15 54q0 16 12 39.5t28 48.5t33 48t26 38q-6 13 -16.5 31.5t-21 38t-18 38t-7.5 32.5q0 17 12.5 30.5t29.5 13.5q15 0 29.5 -10t26.5 -24.5t22 -29.5t17 -25q10 13 22.5 29t27 30t31.5 24t36 10q21 0 39 -18t18 -40q0 -7 -15 -28.5t-34 -45.5t-36.5 -44.5t-21.5 -26.5
q7 -9 23.5 -28.5t33 -42t29.5 -45t13 -37.5q0 -22 -10 -35.5t-33 -13.5q-16 0 -33.5 11.5t-34 27.5t-31.5 33t-26 27q-9 -11 -22 -29.5t-28.5 -36.5t-32 -31t-32.5 -13q-20 0 -38 17t-18 37z" />
    <glyph glyph-name="y" unicode="y" horiz-adv-x="463" 
d="M211 33q0 4 -5 7t-11 5.5t-12 4t-9 2.5q-38 12 -66.5 39.5t-48 63t-29.5 75.5t-10 77q0 18 13 34.5t32 16.5q24 0 38 -14t22.5 -35.5t13.5 -46t11 -46t16.5 -35.5t29.5 -14q16 0 31.5 15t31 37.5t30.5 48.5t29.5 48.5t29 37.5t29.5 15q26 0 44.5 -17.5t18.5 -44.5
q0 -12 -4 -27t-9.5 -30t-12 -29.5t-10.5 -25.5q-36 -90 -66 -183.5t-47 -189.5q-3 -15 -4.5 -32t-7 -31t-16 -23.5t-29.5 -9.5q-14 0 -26.5 6.5t-21.5 17t-14 24t-5 26.5q0 29 7 63t15 66.5t15 60t7 43.5z" />
    <glyph glyph-name="z" unicode="z" 
d="M29 406q0 28 28 45t66.5 26.5t77 12.5t59.5 3q19 0 40 -3t37.5 -11.5t27.5 -24t11 -39.5q0 -16 -14.5 -42t-37 -57t-50 -63t-53 -61t-45.5 -51t-29 -32q17 -2 33 -5t33 -3q29 0 58.5 3.5t59.5 3.5q25 0 43 -10t18 -39q0 -30 -24 -46t-56 -24t-66 -9.5t-53 -1.5
q-26 0 -56.5 2.5t-57 13t-44.5 31t-18 55.5t24.5 75t58 80t68.5 76.5t55 63.5q-35 -1 -68.5 -6t-68.5 -5q-22 0 -39.5 8t-17.5 34z" />
    <glyph glyph-name="braceleft" unicode="{" horiz-adv-x="421" 
d="M308 -72q24 0 42 -15t18 -40q0 -20 -11.5 -34t-28 -22.5t-36.5 -12.5t-36 -4q-51 0 -82.5 24t-50 63t-26 87.5t-9.5 98.5t-2 96t-3 79q-10 8 -21.5 11t-21.5 7.5t-16.5 14t-6.5 30.5q0 25 11.5 36.5t30.5 24.5q30 20 42.5 43.5t16 49.5t1.5 54.5t-2 59.5q0 29 3.5 64.5
t12 71.5t23 69.5t36 60t51 42t68.5 15.5q15 0 30.5 -6t28.5 -16.5t21.5 -24.5t8.5 -30q0 -17 -15 -33.5t-32 -16.5q-13 0 -25.5 4.5t-25.5 4.5q-19 0 -31.5 -20.5t-20 -52t-11.5 -69t-5.5 -72t-1.5 -60.5v-34q-2 -38 -5 -67t-22 -62l-12 -22t-6 -24q0 -17 2.5 -38.5t5.5 -45
l6 -47t3 -44.5v-29t0.5 -41.5t3 -46.5t8.5 -43t15.5 -31.5t25.5 -12.5q13 0 25.5 3t25.5 3z" />
    <glyph glyph-name="braceright" unicode="}" horiz-adv-x="443" 
d="M269 304q-35 38 -54 64t-27.5 52.5t-10 60t-1.5 85.5q0 6 1 29.5t0 48.5t-5 45t-14 20q-11 0 -21 -8.5t-20.5 -18.5t-23 -18.5t-28.5 -8.5q-21 0 -32.5 16.5t-11.5 36.5q0 27 13 48t33.5 35.5t46 21.5t50.5 7q44 0 69.5 -18t38.5 -47t16.5 -66.5t3.5 -76.5v-76t7 -66
q5 -23 16 -35t24.5 -19.5t28.5 -11.5t27 -10.5t19.5 -17t7.5 -30.5q0 -23 -10 -44.5t-21 -41.5q-27 -46 -37.5 -89.5t-15 -84.5t-9.5 -79t-22 -71.5t-51 -61.5t-97 -50q-17 -6 -35.5 -10.5t-37.5 -4.5q-26 0 -44 14.5t-18 42.5q0 31 22 45t51.5 23t58.5 19.5t43 35.5
q4 8 8 26t7 42t6.5 51.5t7.5 54.5t9 51t12 41z" />
    <glyph glyph-name="one" unicode="1" horiz-adv-x="195" 
d="M122 623q13 0 21 -6t12.5 -15t5.5 -20.5t1 -22.5q0 -65 -8.5 -130t-8.5 -131t8 -130.5t8 -129.5q0 -26 -16 -38.5t-40 -12.5q-23 0 -37.5 17.5t-22.5 44.5t-10.5 60t-3 64.5t0.5 57.5t1 40q0 16 -0.5 48t0.5 71t5 80.5t14 75.5t27 55.5t43 21.5z" />
    <glyph glyph-name="three" unicode="3" horiz-adv-x="658" 
d="M622 180q0 -60 -28.5 -112t-74.5 -90.5t-102.5 -61t-112.5 -22.5q-34 0 -79.5 6t-87 22.5t-70.5 45t-29 72.5q0 26 14 47.5t43 21.5q17 0 27 -7t18 -17.5t16.5 -22.5t23.5 -22.5t38 -17.5t61 -7q34 0 73.5 11t72.5 32t55 52t22 71q0 38 -17.5 58t-44.5 31t-57.5 16
t-57.5 13.5t-44.5 23.5t-17.5 46q0 16 13.5 34.5t34 38t44.5 39.5t45 38.5t35 35t15 29.5q-5 7 -14.5 8.5t-17.5 1.5q-12 0 -34 -4t-44 -11.5t-38.5 -19t-17.5 -26.5q0 -8 1.5 -16t1.5 -16q0 -9 -5 -17.5t-12.5 -15.5t-16.5 -11t-18 -4q-12 0 -24 7.5t-22 18.5t-16 24t-6 24
q0 47 26.5 81.5t66.5 57t86 33t85 10.5q26 0 51 -9t44.5 -25t31.5 -38.5t12 -50.5q0 -32 -18 -63.5t-40 -58t-40 -44t-18 -21.5q3 -4 7 -5t9 -3q32 -9 59.5 -31t48 -51t32.5 -62.5t12 -66.5z" />
    <glyph glyph-name="four" unicode="4" horiz-adv-x="445" 
d="M192 86q-70 0 -114.5 36.5t-44.5 110.5q0 24 15 70t39 100.5t55.5 111.5t64 104t64.5 76.5t57 29.5t43 -20.5t18 -44.5q0 -34 -26 -50q-14 -9 -35 -36t-44 -64t-46.5 -80t-42 -82.5t-30 -72t-11.5 -49.5q0 -14 8 -15t20 -1q42 0 60.5 8t25 25.5t7 46t6.5 69.5q2 15 5 36
t9.5 41t19 34t33.5 14q25 0 40.5 -19t15.5 -42q0 -43 -5 -91.5t-10.5 -97t-10.5 -96t-5 -89.5q0 -36 4.5 -72.5t4.5 -73.5q0 -21 -10.5 -35.5t-33.5 -14.5q-36 0 -53 28t-23.5 66t-7 77t-2.5 62q-15 2 -30 1t-30 -1z" />
    <glyph glyph-name="five" unicode="5" horiz-adv-x="511" 
d="M151 424q22 -22 45 -40t42 -38.5t31.5 -45.5t12.5 -61q0 -21 -9 -50.5t-24.5 -62t-36 -64.5t-43.5 -57.5t-46.5 -41.5t-45.5 -16q-20 0 -36.5 13.5t-16.5 35.5q0 25 21.5 53t48 59t48 64t21.5 68q0 19 -19.5 36.5t-42.5 38t-42.5 47t-19.5 64.5q0 28 8.5 56t18.5 54
q16 44 30.5 62.5t33.5 23.5t44.5 2t64.5 -3q44 0 88 7.5t78 7.5q11 0 23 -2t22.5 -7t17 -14t6.5 -23q0 -26 -18 -42t-46 -25t-62.5 -12t-68 -3t-61 1.5t-42.5 2.5q-8 -22 -15 -43.5t-10 -44.5z" />
    <glyph glyph-name="six" unicode="6" horiz-adv-x="469" 
d="M37 116q0 60 19.5 124.5t51.5 126.5t72.5 116.5t82.5 95.5q10 9 22.5 20.5t26.5 21t29.5 16t30.5 6.5q13 0 23 -6.5t17.5 -16t11.5 -21.5t4 -24q0 -29 -16.5 -45t-41.5 -24q-27 -9 -56.5 -41t-56 -71.5t-46.5 -80t-29 -67.5q23 3 46 6.5t46 3.5q22 0 49.5 -6.5t51.5 -20
t40.5 -33.5t16.5 -47q0 -45 -21.5 -81.5t-55 -62.5t-75.5 -40t-84 -14q-36 0 -65.5 12.5t-50 34.5t-32 52.5t-11.5 65.5zM160 101q5 -16 15 -22t27 -6q7 0 24 4.5t34 11.5t30.5 16t13.5 17q0 3 -5.5 5t-12.5 3t-14 1.5t-9 0.5q-7 0 -24 -2t-34.5 -5.5t-31 -9.5t-13.5 -14z
" />
    <glyph glyph-name="seven" unicode="7" horiz-adv-x="540" 
d="M89 554q-26 0 -41.5 9t-15.5 39q0 15 6 28.5t19 21.5q6 4 26.5 8t47.5 7t57.5 5t59 3.5t50.5 2.5t32 1q30 0 61 -4.5t56 -18t40.5 -37t15.5 -61.5q0 -17 -10.5 -50.5t-28 -78t-40.5 -96.5t-48 -104t-51 -101.5t-49 -89t-42 -65.5t-30 -33q-8 -5 -16 -8.5t-16 -3.5
q-11 0 -20 6.5t-16.5 16t-11.5 20.5t-4 21q0 9 11.5 34.5t30 62.5t42.5 82t49 92t49 93.5t42.5 85.5t30 68t11.5 42q0 5 -6.5 7.5t-15 3.5t-16.5 1h-11q-63 0 -124 -5t-124 -5z" />
    <glyph glyph-name="eight" unicode="8" horiz-adv-x="465" 
d="M158 307q-17 31 -32 61.5t-15 67.5q0 30 11.5 57t31 47t46 31.5t57.5 11.5q39 0 67.5 -16.5t46.5 -43t26.5 -60.5t8.5 -68q0 -33 -7.5 -65t-7.5 -64q0 -14 6 -28t13.5 -29t14 -32t6.5 -37q0 -38 -25.5 -65t-62.5 -44t-77.5 -24.5t-70.5 -7.5q-31 0 -60 7.5t-52 24
t-37 41.5t-14 60q0 28 11.5 53.5t30 47t41 40.5t43.5 34zM230 440v-1q0 -5 7 -18.5t16 -27.5t18 -25.5t12 -11.5h1q1 8 1 14.5v14.5q0 6 -1 18t-3.5 25t-8 22.5t-14.5 9.5q-8 0 -15.5 -7t-12.5 -13zM150 135q0 -13 12.5 -16t22.5 -3q27 0 61 8.5t57 22.5q-1 5 -4 12.5
t-7.5 14t-10.5 11t-12 4.5q-9 0 -18.5 -4.5t-19.5 -4.5q-11 0 -20 5t-17 5q-6 0 -13.5 -6.5t-14.5 -15.5t-11.5 -18t-4.5 -15z" />
    <glyph glyph-name="nine" unicode="9" horiz-adv-x="520" 
d="M29 284q0 48 24 93.5t62 81.5t86 58t95 22q16 0 38 -5q20 -4 40.5 -8t40.5 -6q27 -3 43 -21.5t23.5 -43.5t9.5 -52.5t2 -49.5q0 -50 -6 -88.5t-21 -71t-41 -61t-65 -58.5q-16 -12 -36 -25.5t-41.5 -25t-44 -19.5t-43.5 -8q-23 0 -38 13t-15 38q0 21 17.5 38t43.5 33
t57 33t58 38t45.5 48t21.5 64h-1q-2 0 -23.5 -20t-55 -44t-76 -44t-84.5 -20q-24 0 -45 8t-37 22.5t-25 35t-9 45.5zM143 301q0 -7 10 -7q15 0 42 15t53.5 35t46.5 41.5t20 34.5q0 8 -11 8q-18 0 -45 -13t-53 -32t-44.5 -41t-18.5 -41z" />
    <glyph glyph-name="two" unicode="2" horiz-adv-x="576" 
d="M535 37q0 -23 -16 -37t-41 -22.5t-56 -11.5t-61 -4t-55.5 0t-40.5 1h-61.5t-68 7.5t-55 26.5t-22.5 57q0 29 27 69t67 84.5t87 90.5t87 88t67 77.5t27 58.5l-7 15q-7 4 -14.5 5t-15.5 1q-23 0 -49 -6.5t-51.5 -17t-49 -24.5t-39.5 -29q-20 -18 -30 -41t-18.5 -44
t-19 -35.5t-30.5 -14.5q-33 0 -46 18.5t-13 50.5q0 36 17 69t45 62t64 52.5t75 40.5t77 26t69 9q29 0 57 -7.5t50.5 -23t36 -39.5t13.5 -56q0 -37 -18.5 -76.5t-47.5 -79.5t-66 -80t-74 -78t-70.5 -72t-55.5 -62q49 -1 98 1.5t98 2.5q15 0 37 0.5t42.5 -4t35.5 -15.5t15 -33
z" />
    <glyph glyph-name="exclam" unicode="!" horiz-adv-x="183" 
d="M138 335q0 -38 7 -75.5t7 -75.5q0 -21 -18.5 -33t-38.5 -12q-30 0 -45 19t-21 46t-6 56v48q0 15 0.5 40.5t2 57t3.5 65t5.5 63.5t7.5 54.5t10 36.5q6 14 22.5 26.5t32.5 12.5q13 0 22.5 -7t15 -17.5t8 -22.5t2.5 -22q0 -66 -8.5 -130t-8.5 -130zM86 54q23 0 38.5 -14.5
t15.5 -37.5q0 -21 -11 -38.5t-35 -17.5t-38.5 18t-14.5 41q0 20 11.5 34.5t33.5 14.5z" />
    <glyph glyph-name="numbersign" unicode="#" horiz-adv-x="712" 
d="M26 209q0 21 8.5 29.5t21 11.5t27 4.5t27 7t21 19.5t8.5 43q0 12 -14.5 15.5t-31.5 8t-31.5 15t-14.5 37.5q0 22 14 33.5t34 16.5t41.5 7.5t36.5 6.5q3 10 10.5 36t16.5 59.5t19.5 69.5t19.5 66.5t16 51.5t10 24q5 5 12 7t15 2q11 0 24 -5t24.5 -14t19 -20t7.5 -23
q0 -2 -3 -14.5t-7.5 -30.5t-10 -41t-11.5 -46q-14 -55 -31 -122q18 -2 36.5 -4.5t36.5 -2.5q23 0 37.5 18.5t25 46.5t18.5 61t18.5 61t26.5 46.5t41 18.5q23 0 40 -15.5t17 -38.5q0 -21 -5.5 -45t-13.5 -48l-16 -48t-14 -45q18 -8 39.5 -10.5t41 -8t32.5 -17.5t13 -39
q0 -21 -10 -32.5t-25.5 -17t-34 -6t-34.5 -0.5h-30.5t-25.5 -4.5t-17.5 -15t-6.5 -30.5q0 -9 10.5 -13.5t22.5 -11t22.5 -20.5t10.5 -42q0 -14 -7 -23t-17.5 -14.5t-23.5 -7.5t-24 -3q-13 -1 -19.5 -4t-10 -8.5t-5 -14t-4.5 -20.5q-3 -13 -3.5 -34.5t-1.5 -47t-3 -51.5
t-7.5 -46.5t-15 -34t-24.5 -13.5q-23 0 -39 11t-25.5 28t-14 37.5t-4.5 39.5t2.5 39.5t5 40.5t5 38t2.5 33q0 3 -5.5 4.5t-13 2t-14 0.5h-7.5q-13 0 -26 -2t-25 -5q-4 -4 -8 -20.5t-8.5 -40.5t-9 -51.5t-8 -53t-5.5 -45t-2 -27.5q0 -27 -13 -42.5t-41 -15.5q-23 0 -36.5 8.5
t-21.5 22t-10.5 31t-2.5 35.5q0 24 4 47t8.5 46t8.5 46t4 46q0 7 -10.5 11t-23.5 10t-23.5 18.5t-10.5 37.5zM260 278q0 -8 8.5 -8.5t13.5 -0.5q22 0 38.5 1t27.5 7t16.5 20t5.5 40q-19 4 -42 4q-37 0 -52.5 -11t-15.5 -52z" />
    <glyph glyph-name="dollar" unicode="$" horiz-adv-x="491" 
d="M241 -68q-20 0 -27 13t-10 28l-3 22q-24 4 -49 12.5t-46 21t-34.5 29.5t-13.5 39q0 25 18.5 40.5t41.5 15.5q17 0 36 -6.5t40 -14.5q-1 23 -1.5 46t-0.5 46q-28 19 -55 38.5t-48 42.5t-34 49.5t-13 58.5q0 35 12.5 66t34.5 56t50.5 43t60.5 29q3 17 11 32q11 19 28 19
q18 0 29 -14q6 -9 13 -24q27 -1 56.5 -10t53.5 -26.5t39.5 -41.5t15.5 -55q0 -28 -15.5 -47t-44.5 -19q-20 0 -28.5 11.5t-16 26t-17.5 27.5t-31 16q-1 -10 -1 -18.5v-14.5v-62t-1 -106q29 -18 58.5 -38t53 -43t38.5 -49.5t15 -57.5q0 -29 -17.5 -50.5t-43.5 -36.5
t-57 -23.5t-58 -11.5q-1 -5 -1.5 -10t-0.5 -10q-2 -18 -10 -28.5t-27 -10.5zM166 423q0 -27 27 -52q0 32 0.5 56t0.5 38v5q-13 -10 -20.5 -21.5t-7.5 -25.5zM314 128q-6 7 -12 13.5t-14 13.5q-1 -10 -1 -19.5v-19.5q8 1 16 3.5t11 8.5z" />
    <glyph glyph-name="percent" unicode="%" horiz-adv-x="776" 
d="M78 557q0 34 10.5 64t30.5 52t48.5 35t64.5 13q30 0 52.5 -12t37.5 -31.5t22.5 -45.5t7.5 -53q0 -32 -13 -60.5t-34.5 -49.5t-50.5 -33.5t-61 -12.5q-29 0 -50.5 11t-36 29.5t-21.5 42.5t-7 51zM214 603q-7 0 -11.5 -4.5t-7.5 -10.5t-4 -13t-1 -12q0 -6 2.5 -15t10.5 -9
q5 0 11 5t11.5 12t9 14t3.5 11q-2 8 -9 15t-15 7zM582 254q32 0 61 -8t50.5 -25t34 -42.5t12.5 -60.5t-14 -73t-38.5 -69.5t-57.5 -51.5t-71 -20q-29 0 -51.5 11t-38.5 30t-24 43.5t-8 50.5q0 36 6.5 74t23 69.5t44.5 51.5t71 20zM616 107q0 29 -29 29q-13 0 -20.5 -9.5
t-11.5 -23t-5.5 -27.5t-1.5 -23q0 -7 1.5 -20t11.5 -13q11 0 21 10t17.5 24t12 29t4.5 24zM154 -124q-11 0 -21.5 5.5t-18.5 14.5t-13.5 20t-5.5 21q0 22 22 71.5t57.5 114t79 137.5t86.5 142.5t81 129.5t62 99q8 13 17 29t20.5 29.5t25.5 22.5t32 9q21 0 35 -18.5t14 -38.5
q0 -6 -14.5 -35.5t-39 -74t-56.5 -100.5t-67 -116t-69.5 -120t-65 -112t-53.5 -92.5t-34 -62.5q-5 -10 -12.5 -23t-16.5 -24.5t-20.5 -19.5t-24.5 -8z" />
    <glyph glyph-name="ampersand" unicode="&#x26;" horiz-adv-x="571" 
d="M207 -17q-31 0 -62.5 9.5t-57 27.5t-41.5 44.5t-16 61.5q0 26 8.5 50.5t23 46.5t32.5 41t38 35q-9 45 -18.5 90.5t-9.5 92.5q0 31 8 62.5t25 56t43.5 40t62.5 15.5q30 0 55 -13t42 -34t26.5 -48.5t9.5 -55.5q0 -32 -11 -62.5t-27.5 -59t-36 -55t-36.5 -51.5q1 -2 9 -26.5
t19.5 -52.5t23.5 -51t21 -23q13 0 27.5 8.5t26.5 21t20 27.5t8 28q0 11 -7.5 16t-18 6.5t-21.5 1t-18 -0.5q-23 0 -39 12t-16 37q0 15 9 24.5t22.5 15.5t28.5 8.5t26 2.5q27 0 53.5 -8.5t47 -25t33 -39.5t12.5 -53q0 -33 -14 -60.5t-36.5 -50t-49.5 -41t-52 -33.5
q4 -13 8.5 -26t4.5 -27q0 -22 -15 -34t-36 -12q-24 0 -36.5 10t-21.5 21.5t-18 21.5t-25 10zM148 126q0 -9 6 -15t14 -9.5t17.5 -5.5t16.5 -2q8 0 8 6q0 3 -5 14.5t-11 24t-12.5 23t-9.5 10.5q-11 -8 -17.5 -20.5t-6.5 -25.5zM226 463v-6.5t0.5 -10t1 -9.5t2.5 -4
q5 0 9.5 11t8.5 25t6 27t2 17q0 3 -0.5 9t-2 12t-3.5 10.5t-6 4.5q-7 0 -10.5 -12t-5 -27t-2 -29t-0.5 -18z" />
    <glyph glyph-name="parenleft" unicode="(" horiz-adv-x="366" 
d="M28 193q0 108 23.5 221t68.5 211q6 12 16.5 34t24.5 47t31 50.5t34.5 46.5t35.5 34t35 13q21 0 39 -13t18 -36q0 -16 -7.5 -29t-18.5 -24q-19 -20 -36.5 -46t-33 -54.5t-28.5 -57t-23 -54.5q-29 -78 -43 -161t-14 -167q0 -18 2 -48t7.5 -64.5t15 -69t23 -63t32.5 -46
t44 -17.5q26 0 44 -14t18 -43q0 -17 -7 -30t-19 -22t-27 -14t-31 -5q-41 0 -73.5 22.5t-57 59t-42.5 82.5t-29 93t-16.5 90t-5.5 74z" />
    <glyph glyph-name="parenright" unicode=")" horiz-adv-x="396" 
d="M86 -254q-20 0 -34 15t-14 34q0 13 15.5 40.5t39 67t50.5 88.5t50.5 106t39 120t15.5 129q0 67 -15.5 122.5t-39 100.5t-50.5 80t-50.5 62.5t-39 47t-15.5 33.5q0 23 19 34t38 11q16 0 41.5 -21t51 -48.5t47 -55t30.5 -40.5q49 -76 74 -162t25 -177q0 -112 -33 -220
t-90 -204q-11 -20 -27 -47.5t-35.5 -53.5t-43 -44t-49.5 -18z" />
    <glyph glyph-name="asterisk" unicode="*" horiz-adv-x="482" 
d="M442 665q0 -14 -8 -23t-19.5 -14t-24.5 -6.5t-24 -1.5q-19 0 -39 -5q7 -11 16.5 -20t18 -18t14.5 -19.5t6 -26.5q0 -15 -10 -28t-26 -13q-17 0 -35 13.5t-34.5 29t-30.5 29t-24 13.5q-3 0 -3 -5q-8 -9 -22 -24.5t-30 -30.5t-32.5 -25.5t-29.5 -10.5q-20 0 -32 18t-12 35
q0 18 7 31t16 22t16 15t7 9q-7 7 -19.5 9t-24.5 6t-21 13.5t-9 30.5q0 17 6.5 26.5t17 13.5t23.5 4.5t25 0.5q2 0 4.5 0.5t2.5 2.5q0 5 -4.5 13t-10.5 17.5t-10.5 19.5t-4.5 19q0 6 4.5 13t11.5 13.5t14.5 11t13.5 4.5q9 0 23.5 -13.5t29 -30.5t27 -33.5t17.5 -23.5
q5 4 20.5 20t35 33.5t38 31t29.5 13.5q20 0 35 -15t15 -35q0 -17 -9 -29.5t-20 -24.5q13 -2 26.5 -4t24 -8t17.5 -16t7 -27z" />
    <glyph glyph-name="mu" unicode="&#xb5;" horiz-adv-x="486" 
d="M451 99q0 -55 -55 -55q-23 0 -35.5 12t-19 27t-10 27t-9.5 12q-23 -8 -38 -15.5t-41 -7.5q-17 0 -27 2t-19 5.5t-18 9t-22 11.5q-5 -39 -6 -81.5t-5.5 -78.5t-16.5 -59.5t-38 -23.5q-28 0 -40 23t-16 61t-2 85.5t2 97.5q0 16 -1 47.5t-1.5 70t0.5 79.5t6 77.5t15 63.5
t26 37q5 3 11 6t12 3q22 0 36 -12t22 -30t11.5 -38.5t3.5 -36.5q0 -11 5 -42.5t13.5 -65.5t20 -60.5t24.5 -26.5q11 0 18.5 20t14.5 49.5t14 64t17 64t24.5 49.5t36.5 20q16 0 33.5 -8.5t24.5 -24.5q2 -5 3 -17.5t1.5 -26.5t0.5 -27v-19q0 -34 3.5 -67.5t8 -67t8.5 -67
t4 -66.5z" />
    <glyph glyph-name="quotedbl" unicode="&#x22;" horiz-adv-x="340" 
d="M176 578q0 13 2 44.5t6 66.5t9 64.5t11 37.5q11 14 29 21t35 7q15 0 25.5 -8.5t10.5 -24.5q0 -8 -1 -29.5t-3 -48.5t-4.5 -57t-5 -55.5t-5.5 -44t-5 -22.5q-8 -14 -23 -20t-31 -6q-15 0 -24.5 7t-15.5 18.5t-8 24.5t-2 25zM25 589q0 14 0.5 37t2.5 49t7.5 52.5t14.5 48
t23.5 35t35.5 13.5q14 0 23 -5.5t14 -14.5t6.5 -20.5t1.5 -23.5q0 -49 -6 -96.5t-6 -97.5q0 -12 -1.5 -26.5t-6 -26.5t-14.5 -20.5t-26 -8.5q-23 0 -36.5 9.5t-20.5 25t-9.5 34t-2.5 36.5z" />
    <glyph glyph-name="quotesingle" unicode="'" horiz-adv-x="183" 
d="M96 759q23 0 35.5 -17t18 -40.5t6.5 -48t1 -40.5q0 -19 -0.5 -43.5t-6.5 -46t-20 -36.5t-40 -15q-22 0 -33 18.5t-15 44t-3.5 52t0.5 41.5v38.5t5 43t16.5 35t35.5 14.5z" />
    <glyph glyph-name="plus" unicode="+" horiz-adv-x="410" 
d="M23 330q0 21 12.5 32.5t30.5 17t38 7t34 3.5q1 16 0.5 49.5t4 67t18 58.5t42.5 25q31 0 43 -25.5t14.5 -59.5t-0.5 -67.5t-3 -49.5q16 0 38 1.5t42 -2t34.5 -15t14.5 -36.5q0 -24 -13 -36t-32 -17.5t-41 -6t-39 -2.5q0 -2 0.5 -19t0.5 -42v-54.5t-1.5 -55.5t-4 -45.5
t-7.5 -24.5q-8 -8 -18.5 -10.5t-21.5 -2.5q-24 0 -38 15t-22 38t-10 52t-2 56.5t1.5 51.5t1.5 38h-37.5t-38 5.5t-29.5 17.5t-12 36z" />
    <glyph glyph-name="comma" unicode="," horiz-adv-x="191" 
d="M11 -25q0 19 9.5 36t17.5 33q-8 9 -13 20.5t-5 23.5q0 15 6.5 27t17.5 20.5t24 13t27 4.5q28 0 47 -18.5t19 -46.5q0 -20 -7.5 -47t-21.5 -51t-33 -41t-43 -17q-19 0 -32 11.5t-13 31.5z" />
    <glyph glyph-name="hyphen" unicode="-" horiz-adv-x="390" 
d="M97 178q-14 0 -27.5 2t-24 7.5t-16.5 16.5t-6 29q0 27 25 40t58.5 18t67 4.5t51.5 -0.5h40.5t42.5 -5t33.5 -18t13.5 -39q0 -32 -28 -44q-5 -3 -21.5 -4.5t-39 -3t-48.5 -2t-50 -1t-43 -0.5h-28z" />
    <glyph glyph-name="period" unicode="." horiz-adv-x="199" 
d="M34 85q0 29 21 47t49 18q26 0 45 -14.5t19 -41.5q0 -14 -4 -27.5t-12 -25t-19.5 -18.5t-26.5 -7q-29 0 -50.5 20t-21.5 49z" />
    <glyph glyph-name="slash" unicode="/" horiz-adv-x="758" 
d="M690 795q20 0 36.5 -17.5t16.5 -37.5q0 -23 -16 -43t-30 -36q-51 -55 -96.5 -116t-88.5 -124.5t-84.5 -128t-82.5 -126.5q-5 -7 -23 -34t-42.5 -64t-52 -78t-51.5 -76.5t-40.5 -59t-18.5 -25.5q-10 -8 -18.5 -11t-21.5 -3q-25 0 -39.5 13.5t-14.5 39.5q0 15 20 53t53 92
t76 119t89.5 132.5t93.5 133t87 121.5t71 97t45 60q9 11 24.5 31t34 39.5t38 34t35.5 14.5z" />
    <glyph glyph-name="colon" unicode=":" horiz-adv-x="203" 
d="M86 263q-29 0 -44 18t-15 46q0 32 20.5 56.5t53.5 24.5q26 0 47 -18t21 -45q0 -17 -7 -31.5t-18 -26t-26.5 -18t-31.5 -6.5zM116 161q10 0 19 -5t16 -13t11 -18t4 -20q0 -16 -7 -31.5t-18.5 -28t-27 -20t-31.5 -7.5q-24 0 -40 20t-16 43q0 16 8.5 31t21.5 25.5t29 17
t31 6.5z" />
    <glyph glyph-name="semicolon" unicode=";" horiz-adv-x="201" 
d="M92 252q-37 0 -51.5 20.5t-14.5 54.5q0 35 20 58t56 23q29 0 47.5 -18.5t18.5 -47.5q0 -15 -5.5 -31t-15.5 -29t-24 -21.5t-31 -8.5zM11 -25q0 19 9.5 36t17.5 33q-8 9 -13 20.5t-5 23.5q0 15 6.5 27t17.5 20.5t24 13t27 4.5q28 0 47 -18.5t19 -46.5q0 -20 -7.5 -47
t-21.5 -51t-33 -41t-43 -17q-19 0 -32 11.5t-13 31.5z" />
    <glyph glyph-name="less" unicode="&#x3c;" horiz-adv-x="404" 
d="M317 398q21 -3 37 -19t16 -38q-1 -16 -16.5 -31t-39.5 -28.5t-51.5 -25t-51.5 -21.5t-40 -18t-16 -13q12 -10 33 -17.5t45 -14.5t49 -15t44.5 -19t32 -26t11.5 -36q-1 -18 -12 -26.5t-26 -11.5t-31.5 -1.5t-28.5 3.5q-19 3 -44.5 9.5t-53.5 16.5t-55.5 24t-49.5 31.5
t-35 39t-12 45.5q0 23 17 47t43.5 46.5t59.5 41.5t65.5 32.5t61.5 20.5t48 4z" />
    <glyph glyph-name="equal" unicode="=" horiz-adv-x="482" 
d="M279 214q18 0 46 1.5t54.5 -2.5t46 -17t19.5 -42q0 -14 -7 -25.5t-18 -19.5q-7 -5 -26 -8t-43.5 -4.5t-52 -1.5h-52t-44.5 0.5t-28 0.5l-97 -1q-21 0 -34 11t-13 34q0 21 14.5 34.5t37.5 22t51 12t56 5t52 1t38 -0.5zM279 381q18 0 46 1.5t54.5 -2.5t46 -17t19.5 -42
q0 -14 -7 -25.5t-18 -19.5q-7 -5 -26 -8t-43.5 -4.5t-52 -1.5h-52t-44.5 0.5t-28 0.5l-97 -1q-21 0 -34 11t-13 34q0 21 14.5 34.5t37.5 22t51 12t56 5t52 1t38 -0.5z" />
    <glyph glyph-name="greater" unicode="&#x3e;" horiz-adv-x="448" 
d="M27 388q0 21 16 34t36 13q18 0 37.5 -7t38.5 -16.5t38.5 -19t37.5 -13.5q23 -5 55 -10t61.5 -15t50 -28.5t20.5 -50.5q0 -14 -3.5 -29t-11.5 -27q-9 -14 -32.5 -35t-54 -44t-66 -45.5t-68 -41t-60 -30t-42.5 -11.5q-24 0 -40 17t-16 41q0 16 18 34t45 36t58 35t58 31
t45 25t18 17q0 4 -11.5 9t-25.5 10t-27.5 8.5t-16.5 4.5q-16 5 -43 14.5t-52.5 23.5t-44 31.5t-18.5 38.5z" />
    <glyph glyph-name="question" unicode="?" horiz-adv-x="565" 
d="M187 10q29 0 42 -23t13 -48q0 -31 -16.5 -49t-48.5 -18q-29 0 -42.5 18t-13.5 47q0 27 18.5 50t47.5 23zM540 575q0 -37 -18 -75t-45.5 -76.5t-61.5 -77.5t-65.5 -78t-57 -77.5t-36.5 -75.5q-6 -21 -23.5 -38t-40.5 -17q-13 0 -23.5 6.5t-18 16t-12 21.5t-4.5 24
q0 29 21 68t52.5 81.5t68.5 87t68.5 85t52.5 73.5t21 54q0 13 -8.5 20.5t-20.5 12t-25 6t-22 1.5q-23 0 -57 -10t-66 -27t-55 -40.5t-23 -50.5q0 -12 6 -22t13 -20t13 -21t6 -25q0 -20 -14.5 -32t-34.5 -12q-23 0 -41 11t-31 28.5t-20 38.5t-7 41q0 59 30.5 107t78 82.5
t104.5 53t110 18.5q36 0 69.5 -10.5t59.5 -31t41.5 -51t15.5 -69.5z" />
    <glyph glyph-name="at" unicode="@" horiz-adv-x="794" 
d="M28 260q0 83 36 155.5t95 126t134.5 84t155.5 30.5q60 0 117 -21t102 -58.5t72 -90.5t27 -117q0 -37 -12 -72.5t-34.5 -63t-55 -44.5t-72.5 -17q-22 0 -40 6.5t-32.5 15t-26.5 15t-21 6.5q-6 0 -17.5 -5.5t-27.5 -11.5t-34.5 -11.5t-37.5 -5.5q-25 0 -49.5 7t-44 21
t-31.5 35t-12 49q0 37 23.5 70t58 57.5t74.5 38.5t73 14q32 0 57.5 -6t42.5 -36q9 -17 24 -35.5t15 -38.5q0 -14 -3.5 -28.5t-3.5 -29.5q0 -4 1 -8.5t7 -4.5q14 0 25.5 7t20 18.5t13 25t4.5 25.5q0 39 -19 71t-49 55.5t-67 36.5t-72 13q-52 0 -104.5 -23t-94.5 -61.5
t-68.5 -88t-26.5 -103.5q0 -27 10.5 -50.5t28.5 -41t41.5 -27.5t50.5 -10q29 0 55.5 8.5t50.5 19t45 19t39 8.5q22 0 36 -19t14 -40q0 -18 -14 -34t-36.5 -29.5t-50.5 -23.5t-55.5 -17.5t-51.5 -11t-39 -3.5q-52 0 -97 19.5t-78 53.5t-52 79.5t-19 97.5zM453 360q0 3 -7 3
q-8 0 -25.5 -6.5t-35 -15.5t-31.5 -19.5t-14 -19.5q2 -1 5.5 -1h5.5q8 0 25 6t34 14.5t30 19t13 19.5z" />
    <glyph glyph-name="asciicircum" unicode="^" horiz-adv-x="424" 
d="M75 449q-18 0 -33.5 12.5t-15.5 32.5q0 9 10.5 36.5t24 60t26.5 63.5t18 47q5 17 12.5 38t19 39t27 30.5t37.5 12.5q18 0 31 -12.5t22 -30t15.5 -36.5t10.5 -32q7 -24 25.5 -59.5t37 -72t33 -68t14.5 -46.5q0 -20 -14.5 -33t-34.5 -13q-26 0 -49 21t-42.5 50t-34 59
t-23.5 49q-7 -15 -18.5 -40t-26.5 -49t-33 -41.5t-39 -17.5z" />
    <glyph glyph-name="underscore" unicode="_" horiz-adv-x="633" 
d="M444 -126q-17 0 -51.5 -0.5t-78 -1t-90.5 0t-86.5 3t-68 7.5t-34.5 13q-12 16 -12 36q0 38 33 50q5 2 35.5 3.5t75 3t96.5 2.5t99 1.5t82.5 1t47.5 0.5q21 0 41.5 -0.5t37.5 -6.5t27.5 -20.5t10.5 -41.5q0 -25 -20 -36t-47 -14.5t-55 -2t-43 1.5z" />
    <glyph glyph-name="grave" unicode="`" horiz-adv-x="235" 
d="M30 703q0 20 16 34.5t36 14.5q22 0 43 -21.5t37.5 -51.5t26.5 -61t10 -49q0 -19 -12 -31t-32 -12t-41.5 21t-40.5 50t-31 58.5t-12 47.5z" />
    <glyph glyph-name="bar" unicode="|" horiz-adv-x="187" 
d="M97 823q10 0 18 -4t16 -10q9 -8 15 -53.5t8.5 -111.5t3 -143.5t0.5 -149.5t-1 -130t-1 -85q0 -12 0.5 -35t0.5 -50.5t-2.5 -56.5t-9 -53t-17.5 -39t-29 -15q-20 0 -33 14.5t-20 37t-10 50.5t-3.5 55t0 50.5t0.5 36.5v49.5t0.5 84t1 106.5t2 116.5t3.5 114t5 99.5
t6.5 72.5t8.5 33.5q16 16 37 16z" />
    <glyph glyph-name="Euro" unicode="&#x20ac;" horiz-adv-x="496" 
d="M353 600q22 0 44 -4.5t39 -15.5t28 -29t11 -44q0 -20 -15 -38.5t-36 -18.5q-12 0 -21 6t-17 12.5t-16.5 12.5t-20.5 6q-18 0 -37 -12.5t-36 -30t-30.5 -36.5t-21.5 -33h23.5t21.5 -3.5t16 -11.5t6 -24q0 -22 -14.5 -30t-31.5 -11t-31.5 -6.5t-14.5 -15.5q0 -9 5.5 -12
t13 -2.5t16.5 2.5t15 2q18 0 29.5 -8.5t11.5 -27.5q0 -21 -11.5 -30.5t-25 -13.5t-25 -7.5t-11.5 -12.5q4 -10 13.5 -20t20.5 -10q18 0 36 7.5t36 17t35.5 17t35.5 7.5q8 0 17.5 -6t18 -15t14.5 -19t6 -18q0 -27 -24.5 -48t-58 -36t-68.5 -22.5t-56 -7.5q-47 0 -76 21.5
t-47 47.5t-28 47.5t-20 21.5q-6 0 -14 4.5t-16 11t-13.5 14t-5.5 13.5q4 7 12.5 16t17 18.5t14.5 18.5t6 17q0 9 -7.5 10.5t-16.5 4t-16.5 8.5t-7.5 23q0 15 9.5 25.5t23.5 14.5q23 6 33 25.5t20 39.5q17 36 41 69.5t54.5 60t67 42.5t79.5 16z" />
    <glyph glyph-name="cent" unicode="&#xa2;" horiz-adv-x="422" 
d="M283 38q0 -9 -5 -20t-12.5 -20t-17.5 -15t-20 -6q-15 0 -26 10t-18 24t-11 30t-5 28q-2 13 -2.5 21.5t-3.5 14t-9 9.5t-19 8q-23 6 -43.5 19t-37 30t-26 38.5t-9.5 45.5q0 28 8 56.5t21.5 55.5t31.5 50.5t39 41.5t25.5 47t9 57.5t17.5 49t49 20.5q21 0 36 -16t15 -36
q0 -18 -4 -36t-7 -35q17 -6 36.5 -13.5t36 -19t27.5 -27t11 -38.5q0 -22 -13 -40t-37 -18q-15 0 -24 6t-16.5 13.5t-16.5 14t-23 6.5q-20 0 -38.5 -13.5t-33 -33t-23.5 -42t-9 -40.5q0 -20 18 -25.5t34 -5.5q21 0 40 6t38 13.5t37.5 14t38.5 6.5q23 0 35.5 -14.5t12.5 -37.5
q0 -33 -17.5 -48.5t-38 -26t-38 -20t-17.5 -30.5q0 -15 2 -29.5t2 -29.5z" />
    <glyph glyph-name="sterling" unicode="&#xa3;" horiz-adv-x="460" 
d="M207 379q11 0 23.5 -0.5t23 -4t17.5 -12t7 -24.5q0 -14 -6 -22t-16 -12.5t-21.5 -6t-22.5 -2.5q-5 -47 -9.5 -93t-5.5 -93h10q37 0 73.5 4.5t73.5 4.5q13 0 27.5 -3t26.5 -9.5t20 -17.5t8 -27q0 -20 -15 -34t-39 -23t-53.5 -14.5t-58 -8t-53 -3t-38.5 -0.5
q-56 0 -80.5 27t-24.5 82q0 44 4.5 87t4.5 87q0 11 -1 15t-4 4.5t-7.5 -1t-10.5 -1.5q-20 0 -31.5 7t-11.5 28q0 12 6 20.5t15.5 14t20.5 9t21 4.5l10 6q4 38 17.5 83.5t37 84.5t58.5 65t83 26q12 0 23.5 -5t21 -13t15.5 -19t6 -23q0 -18 -7.5 -26t-20 -14t-28 -12.5
t-31.5 -21t-31.5 -41.5t-26.5 -72z" />
    <glyph glyph-name="currency" unicode="&#xa4;" horiz-adv-x="499" 
d="M33 276q0 44 9 76.5t31 70.5q-3 4 -11 16t-16.5 26.5t-15 27.5t-6.5 20q0 6 3.5 14t8.5 15t12 11.5t14 4.5q16 0 25 -9.5t16.5 -21.5t16 -21.5t22.5 -9.5q39 0 78.5 1t79.5 1q18 0 28 13t19.5 28.5t21.5 28.5t34 13q14 0 24 -6.5t10 -22.5q0 -11 -4.5 -23t-11.5 -24
t-14 -23.5t-12 -19.5q21 -16 34 -30.5t20.5 -31t10.5 -36.5t3 -46q0 -48 -15 -84.5t-37 -77.5q5 -7 13.5 -19.5t16.5 -26.5t14 -27.5t6 -23.5q0 -18 -13 -24t-29 -6q-11 0 -21 9t-18.5 20.5t-16 20.5t-14.5 9q-2 0 -15 -6t-31.5 -13.5t-41 -13.5t-42.5 -6q-17 0 -32.5 5.5
t-31.5 5.5q-8 0 -14 -6.5t-11.5 -15t-11.5 -15t-14 -6.5q-7 0 -15 3.5t-15 9t-11.5 12.5t-4.5 15q0 15 7 28.5t7 27.5q0 10 -6 27t-13.5 39t-13.5 46.5t-6 50.5zM221 173q24 0 45.5 15.5t37 38t24.5 48.5t9 48q0 23 -16.5 34t-39.5 14.5t-47.5 3t-39.5 -0.5q-14 0 -22 -11
t-12.5 -26t-6 -31t-1.5 -25q0 -18 2 -37t9 -35t20.5 -26t37.5 -10z" />
    <glyph glyph-name="yen" unicode="&#xa5;" horiz-adv-x="513" 
d="M448 201q-4 -13 -18 -18t-31 -6t-34 0t-26 1q-22 0 -22 -20q0 -8 11 -11t24.5 -7.5t24.5 -12.5t11 -24q0 -26 -16.5 -33.5t-38.5 -7.5q-16 0 -21 -12.5t-9.5 -27.5t-15 -27.5t-37.5 -12.5q-26 0 -37 12.5t-16 28.5t-10 30.5t-18 19.5q-13 4 -21 13t-8 23q0 18 9 24.5
t19.5 10t19.5 8t9 17.5q0 4 -3.5 5.5t-8 2t-9 0.5h-6.5q-14 0 -29 6t-15 24q0 30 19.5 39t45.5 9q16 0 22 10.5t6 25.5q0 7 -6.5 9.5t-15.5 3t-18 0t-13 -0.5q-31 0 -56.5 24.5t-43.5 59t-27.5 71.5t-9.5 62q0 21 8.5 40t34.5 19q24 0 38 -12t21.5 -30t11.5 -39t9.5 -39
t15 -30t27.5 -12q26 0 48 13t41 33t35.5 42.5t33.5 42.5t34.5 33t37.5 13q23 0 40 -15t17 -38q0 -18 -10 -39.5t-25 -44.5t-33 -47t-33 -48t-25 -47.5t-10 -45.5q0 -5 5 -7t11 -3.5t12.5 -2t9.5 -0.5q15 -2 26 -4.5t18 -8.5t12 -16t8 -26z" />
    <glyph glyph-name="copyright" unicode="&#xa9;" horiz-adv-x="808" 
d="M387 465q39 0 67.5 -25.5t28.5 -66.5t-38 -41q-18 0 -25.5 7.5t-11 17t-7.5 17t-15 7.5q-14 0 -28.5 -14t-26 -33.5t-19 -40t-7.5 -33.5q0 -7 2.5 -15.5t7 -16.5t11 -13.5t15.5 -5.5q11 0 22 7t21.5 16t21.5 16t23 7q17 0 29 -11t12 -28q0 -19 -14 -36t-34.5 -30
t-43.5 -20.5t-40 -7.5q-25 0 -46.5 11.5t-37.5 30t-25.5 42t-9.5 47.5q0 30 13.5 67t36 69.5t53 54t65.5 21.5zM778 336q0 -81 -35.5 -156t-94 -132.5t-134 -91.5t-156.5 -34q-77 0 -138.5 28t-105.5 76t-67.5 112.5t-23.5 138.5q0 75 28 148.5t77 132t116 94.5t146 36
q32 0 55.5 -5t45 -13.5t43 -20.5t48.5 -26q43 -22 79 -51t62 -65t40.5 -78.5t14.5 -92.5zM654 340q0 34 -9 59t-24.5 45t-38 36t-49.5 32q-18 11 -34 22.5t-32.5 21.5t-34.5 16t-40 6q-36 0 -69.5 -15t-62.5 -39.5t-52 -55t-38 -60.5q-8 -17 -12.5 -32t-6.5 -30t-2.5 -30.5
t-0.5 -34.5q0 -50 11 -92.5t35 -73.5t62.5 -48.5t93.5 -17.5q60 0 115 22t97 61t67 92.5t25 115.5z" />
    <glyph glyph-name="registered" unicode="&#xae;" horiz-adv-x="760" 
d="M514 418q0 -22 -18.5 -31t-36.5 -9q-15 0 -28.5 4t-26 9t-23 9t-19.5 4q-7 0 -13 -3.5t-11 -7.5t-11 -7.5t-13 -3.5q-19 0 -29 17.5t-14 41t-4.5 47.5t-0.5 36q0 37 -2 77t6 73t31 54t73 21q43 0 70 -24t27 -67q0 -35 -8.5 -54.5t-22 -34t-30.5 -28.5t-33 -37
q13 -12 36.5 -19.5t45.5 -15.5t38.5 -19.5t16.5 -31.5zM388 651q0 17 -19 17q-6 0 -10 -7t-6 -16t-3 -18.5t-1 -13.5q0 -2 0.5 -4t2.5 -2q6 0 12.5 5t11.5 11.5t8.5 14t3.5 13.5zM725 557q0 -72 -24 -138t-67.5 -116.5t-105 -81t-137.5 -30.5q-71 0 -136.5 25.5t-115.5 70.5
t-80 107t-30 136q0 65 21.5 126.5t59 114t88.5 94t111 65.5q17 7 34.5 13t37.5 6q15 0 32 -3q77 -12 135.5 -46t97.5 -85.5t59 -117t20 -140.5zM602 583q0 45 -17 89t-47 78.5t-71 55.5t-89 21q-46 0 -88 -30.5t-73.5 -75t-50.5 -95.5t-19 -93q0 -49 22 -89.5t58 -70
t80.5 -45.5t89.5 -16q55 0 94 25t63.5 64t36 87t11.5 95z" />
    <glyph glyph-name="eth" unicode="&#xf0;" horiz-adv-x="499" 
d="M276 37q-53 0 -99 36t-79.5 89t-52.5 112.5t-19 107.5q0 25 6 48t19 40.5t33 28t48 10.5q23 0 43 -7.5t38 -19t35 -25.5l34 -28l1 106h-22q-21 0 -33.5 12t-12.5 33q0 15 6.5 26t16.5 18t22.5 11.5t25.5 6.5q1 18 2.5 39.5t8 40.5t20 31.5t37.5 12.5t35 -11.5t14.5 -28.5
t3 -36.5t-0.5 -36.5q14 0 28.5 -2.5t26.5 -9t19.5 -18t7.5 -29.5t-7.5 -29t-19 -17t-26 -8.5t-28.5 -3.5q1 -62 5.5 -121.5t11 -118t15.5 -118t18 -120.5q-12 -18 -26 -34t-38 -16q-14 0 -23 5t-16.5 11t-16 11t-20.5 5q-10 1 -20 -1t-21 -2zM146 380q-2 -3 -2 -8v-8
q0 -16 12.5 -51t30.5 -71t39 -63t38 -27q8 0 12.5 11t4.5 18q0 11 -7 30t-18.5 40.5t-26 44t-29.5 41t-29 30.5t-25 13z" />
    <glyph glyph-name="questiondown" unicode="&#xbf;" horiz-adv-x="549" 
d="M379 626q-29 0 -42 23t-13 48q0 31 16.5 49t48.5 18q29 0 42.5 -18t13.5 -47q0 -27 -18.5 -50t-47.5 -23zM26 61q0 37 18 75t45.5 76.5t61.5 77.5t65.5 78t57 77t36.5 76q6 21 23.5 38t40.5 17q13 0 23.5 -6.5t18 -16t12 -21.5t4.5 -24q0 -29 -21 -68t-52.5 -81.5
t-68.5 -87t-68.5 -85t-52.5 -73.5t-21 -54q0 -13 8.5 -20.5t20.5 -12t25 -6t22 -1.5q22 0 56.5 10t66.5 27t55 40.5t23 50.5q0 12 -6 22t-13 20t-13 21t-6 25q0 20 14.5 32t34.5 12q22 0 40.5 -11t31.5 -28.5t20 -38.5t7 -41q0 -59 -30.5 -107t-78 -82.5t-104.5 -53
t-110 -18.5q-36 0 -69.5 10.5t-59.5 31t-41.5 51t-15.5 69.5z" />
    <glyph glyph-name="perthousand" unicode="&#x2030;" horiz-adv-x="866" 
d="M834 125q0 -39 -17 -75.5t-45.5 -64t-64.5 -44.5t-75 -17q-14 0 -28 3.5t-25.5 8t-21 8.5t-14.5 4q-7 0 -16 -6t-22 -13.5t-29 -13.5t-37 -6q-33 0 -56.5 15t-38 38.5t-21.5 52.5t-7 57q0 27 8.5 62t25.5 66t42 52.5t57 21.5q7 0 14 2.5t13 5.5q4 5 12 6t14 1
q16 0 28.5 -4t22.5 -8.5t18.5 -8.5t16.5 -4q14 0 28 3.5t28 3.5q34 0 68 -8.5t61 -26.5t44 -45.5t17 -65.5zM491 150q0 5 -1.5 13t-9.5 8q-11 0 -20 -12t-15 -28t-9.5 -32t-3.5 -25q0 -2 0.5 -8.5t1.5 -13t3.5 -11.5t5.5 -5q8 0 16.5 15t15.5 34.5t11.5 38t4.5 26.5z
M707 114q0 15 -16 22.5t-29 7.5q-14 0 -24.5 -9t-17.5 -21.5t-10.5 -27t-3.5 -26.5q0 -9 7.5 -12.5t15.5 -3.5q11 0 24.5 6.5t25.5 17t20 23t8 23.5zM157 442q-30 0 -54 11t-41 29.5t-26 44t-9 54.5q0 23 6 50t19 50.5t32.5 39.5t46.5 16q33 0 66 -6t59.5 -21t43 -40
t16.5 -63q0 -34 -12 -64t-33.5 -52.5t-50.5 -35.5t-63 -13zM150 613q-8 0 -8.5 -11.5t-0.5 -16.5q0 -12 4.5 -16.5t16.5 -4.5t21 9t9 22q-6 7 -19.5 12.5t-22.5 5.5zM101 -124q-11 0 -21.5 5.5t-18.5 14.5t-13.5 20t-5.5 21q0 22 22 71.5t57.5 114t79 137.5t86.5 142.5
t81 129.5t62 99q8 13 17 29t20.5 29.5t25.5 22.5t32 9q21 0 35 -18.5t14 -38.5q0 -6 -14.5 -35.5t-39 -74t-56.5 -100.5t-67 -116t-69.5 -120t-65 -112t-53.5 -92.5t-34 -62.5q-5 -10 -12.5 -23t-16.5 -24.5t-20.5 -19.5t-24.5 -8z" />
    <glyph glyph-name="dotlessi" unicode="&#x131;" horiz-adv-x="159" 
d="M135 127q0 -18 0.5 -40t-4 -41.5t-17 -33t-37.5 -13.5q-23 0 -34.5 15.5t-16 37t-4.5 44.5v38q0 12 -1 34.5t-1 49t2.5 54t9.5 50t19.5 36.5t33.5 14q13 0 22.5 -6.5t16 -16t10 -21.5t3.5 -23z" />
    <glyph glyph-name="divide" unicode="&#xf7;" horiz-adv-x="683" 
d="M271 491q0 14 8 26t20 21t26 14t27 5q29 0 49 -19t20 -48q0 -17 -6.5 -32.5t-18 -26.5t-26.5 -17.5t-33 -6.5q-15 0 -27.5 8t-21 20.5t-13 27t-4.5 28.5zM657 279q0 -25 -19.5 -40.5t-42.5 -15.5q-130 0 -258.5 2.5t-258.5 2.5q-23 0 -40.5 7.5t-17.5 36.5l1 15
q2 19 23.5 31t52.5 18.5t69 8.5t74 1.5t66 -1.5t46 -1q21 0 63.5 1t87.5 -0.5t83.5 -7t50.5 -17.5q8 -8 14 -18.5t6 -22.5zM323 173q16 0 29 -7.5t22 -19.5t13.5 -26.5t4.5 -29.5q0 -32 -21 -54.5t-53 -22.5t-48 23t-16 53q0 15 4.5 30t13 27t21.5 19.5t30 7.5z" />
    <glyph glyph-name="acute" unicode="&#xb4;" horiz-adv-x="249" 
d="M158 755q10 0 20 -4t18 -11t13 -16.5t5 -19.5q0 -4 -8 -20.5t-18.5 -35.5t-20 -36.5t-12.5 -23.5q-5 -11 -10.5 -23t-12.5 -22t-16.5 -16.5t-22.5 -7.5h-9q-24 0 -38 12.5t-14 37.5q0 17 12 48.5t30.5 62t41 53t42.5 22.5z" />
    <glyph glyph-name="emdash" unicode="&#x2014;" horiz-adv-x="635" 
d="M602 239q0 -21 -15.5 -33.5t-40 -18.5t-54.5 -7.5t-59.5 -0.5t-55 3t-39.5 2q-65 0 -129 -3.5t-129 -3.5q-24 0 -41.5 9.5t-17.5 38.5q0 22 15 37.5t35 20.5q14 4 42 6.5t63 4.5t73.5 3t74.5 1.5t65.5 0.5h46.5q18 0 46 1.5t54.5 -2.5t46 -17t19.5 -42z" />
    <glyph glyph-name="endash" unicode="&#x2013;" horiz-adv-x="517" 
d="M320 299q17 0 45 1.5t55 -2.5t46.5 -17t19.5 -42q0 -14 -7 -25.5t-18 -19.5q-6 -4 -28.5 -6.5t-52.5 -4t-64.5 -2t-65.5 -0.5h-54h-31l-97 -1q-21 0 -34 11.5t-13 33.5t18 36.5t46 22.5t62.5 11.5t68 4t61.5 0t43 -0.5z" />
    <glyph glyph-name="zero" unicode="0" horiz-adv-x="526" 
d="M33 314q0 56 13 114.5t42 106t75.5 78t112.5 30.5q60 0 101 -29.5t66.5 -75t36.5 -100t11 -103.5q0 -55 -13.5 -117.5t-43 -115.5t-76.5 -88t-114 -35q-39 0 -70 16t-54 43t-40 61.5t-27 72t-15 74.5t-5 68zM248 88q40 0 67.5 28.5t45 69t25.5 84.5t8 75q0 34 -6.5 68
t-22.5 61.5t-43 45t-67 17.5q-21 0 -36.5 -14.5t-27 -37.5t-19.5 -52t-13 -57t-7 -52.5t-2 -39.5q0 -23 3.5 -56.5t14 -64.5t29.5 -53t51 -22z" />
    <glyph glyph-name="fi" unicode="&#xfb01;" horiz-adv-x="515" 
d="M186 157q20 2 39.5 5t39.5 3q19 0 36 -17t17 -36q0 -20 -13.5 -32t-32 -20t-37.5 -14.5t-30 -15.5q0 -23 9 -48t20 -48.5t20 -44.5t9 -34q0 -11 -5.5 -20.5t-14 -17.5t-18.5 -12.5t-20 -4.5q-25 0 -42.5 15.5t-30 38t-20.5 47.5t-12 43q-2 9 -4 19t-5.5 18t-9.5 13t-18 5
q-20 0 -34.5 13t-14.5 34q0 16 8 28.5t21 20.5q13 9 19 20t8.5 23.5t3 26t1.5 28.5q1 21 6 53t14.5 68.5t22.5 73t31.5 65.5t42 47.5t52.5 18.5q28 0 45 -10.5t26 -28t12 -40t3 -45.5q0 -17 -1.5 -35.5t-8 -34t-19 -26t-34.5 -10.5q-27 0 -43 24q-1 1 -2 3l-3 3q-3 0 -5 -4
t-3.5 -9t-2.5 -10t-1 -6q-8 -33 -13 -66t-8 -67zM489 127q0 -18 0.5 -40t-4 -41.5t-17 -33t-37.5 -13.5q-23 0 -34.5 15.5t-16 37t-4.5 44.5v38q0 12 -1 34.5t-1 49t2.5 54t9.5 50t19.5 36.5t33.5 14q13 0 22.5 -6.5t16 -16t10 -21.5t3.5 -23zM429 407q-22 0 -35.5 19
t-13.5 39q0 21 14 38.5t37 17.5q21 0 38 -18.5t17 -39.5t-18 -38.5t-39 -17.5z" />
    <glyph glyph-name="bullet" unicode="&#x2022;" horiz-adv-x="215" 
d="M23 244q0 34 22 56t55 22q18 0 34 -7t28.5 -18.5t20 -27.5t7.5 -34q0 -17 -7 -32.5t-18.5 -27t-27 -18.5t-32.5 -7q-18 0 -33 8.5t-26 22t-17 30t-6 33.5z" />
    <glyph glyph-name="periodcentered" unicode="&#xb7;" horiz-adv-x="155" 
d="M22 243q0 21 14.5 36t35.5 15q23 0 41 -16.5t18 -39.5t-16.5 -39.5t-39.5 -16.5t-38 19.5t-15 41.5z" />
    <glyph glyph-name="dotaccent" unicode="&#x2d9;" horiz-adv-x="155" 
d="M22 649q0 21 14.5 36t35.5 15q23 0 41 -16.5t18 -39.5t-16.5 -39.5t-39.5 -16.5t-38 19.5t-15 41.5z" />
    <glyph glyph-name="dieresis" unicode="&#xa8;" horiz-adv-x="316" 
d="M32 649q0 21 14.5 36t35.5 15q23 0 41 -16.5t18 -39.5t-16.5 -39.5t-39.5 -16.5t-38 19.5t-15 41.5zM175 649q0 21 14.5 36t35.5 15q23 0 41 -16.5t18 -39.5t-16.5 -39.5t-39.5 -16.5t-38 19.5t-15 41.5z" />
    <glyph glyph-name="ring" unicode="&#x2da;" horiz-adv-x="225" 
d="M107 604q10 0 17 7.5t7 16.5q0 11 -8 18t-18 7q-2 0 -7 -2t-7 -3q-8 -6 -8 -17q0 -10 6.5 -18.5t17.5 -8.5zM23 638q0 34 22 56t55 22q18 0 34 -7t28.5 -18.5t20 -27.5t7.5 -34q0 -17 -7 -32.5t-18.5 -27t-27 -18.5t-32.5 -7q-18 0 -33 8.5t-26 22t-17 30t-6 33.5z" />
    <glyph glyph-name="caron" unicode="&#x2c7;" horiz-adv-x="342" 
d="M22 725q0 24 13.5 41t38.5 17q23 0 39.5 -10.5t28.5 -26.5t20 -35.5t15 -37.5q8 13 19.5 31.5t25.5 35.5t30.5 29t34.5 12q16 0 25.5 -13t9.5 -27q0 -22 -16.5 -59t-41.5 -72.5t-54 -61.5t-53 -26q-12 0 -26.5 12t-29.5 31.5t-29.5 43t-25.5 46t-17.5 41.5t-6.5 29z" />
    <glyph glyph-name="circumflex" unicode="&#x2c6;" horiz-adv-x="386" 
d="M204 739q22 0 44.5 -22.5t40.5 -53.5t29 -63.5t11 -51.5q0 -15 -9.5 -29.5t-26.5 -14.5t-30.5 11t-25 26.5t-20 32.5l-14.5 29q-9 -17 -18.5 -34t-22 -31t-28.5 -23t-37 -9t-31.5 12t-10.5 32q0 16 17 47.5t40.5 63t49 55t42.5 23.5z" />
    <glyph glyph-name="tilde" unicode="&#x2dc;" horiz-adv-x="496" 
d="M330 652q7 0 10.5 4t4.5 10t0.5 12.5t-0.5 11.5q0 24 14 43t40 19q34 0 49.5 -25.5t15.5 -55.5q0 -27 -8 -52.5t-23.5 -46t-38 -33t-51.5 -12.5q-37 0 -64 14.5t-47.5 31.5t-37 31.5t-32.5 14.5q-8 0 -12 -4t-5 -10t-0.5 -12.5t0.5 -11.5q0 -24 -14 -43t-40 -19
q-35 0 -50 25t-15 55q0 27 7.5 53t22.5 46.5t37.5 33t52.5 12.5q38 0 65 -14.5t47 -31.5t37 -31.5t35 -14.5z" />
    <glyph glyph-name="asciitilde" unicode="~" horiz-adv-x="523" 
d="M366 193q11 0 13 15t6 32.5t14.5 32.5t37.5 15q32 0 47.5 -22.5t15.5 -50.5q0 -27 -8 -53t-24 -47t-38.5 -34t-51.5 -13q-34 0 -66.5 16.5t-61.5 36t-53.5 36t-40.5 16.5q-11 0 -12.5 -11.5t-1.5 -19.5q0 -24 -15 -44t-41 -20q-32 0 -47.5 22.5t-15.5 51.5q0 26 8 52
t23.5 47t38 34t51.5 13q34 0 68 -16.5t64 -36t53.5 -36t36.5 -16.5z" />
    <glyph glyph-name="cedilla" unicode="&#xb8;" horiz-adv-x="265" 
d="M222 16q19 -36 19 -75q0 -29 -12.5 -51.5t-32.5 -38t-45.5 -23.5t-52.5 -8q-15 0 -29.5 3.5t-26 11t-18.5 20t-7 29.5t6.5 27.5t17.5 16.5t24 8.5t27 2.5q8 0 16.5 2t8.5 13q0 6 -3.5 14t-8.5 15.5t-10.5 14.5t-9.5 12z" />
    <glyph glyph-name="ogonek" unicode="&#x2db;" horiz-adv-x="291" 
d="M172 35q-9 -20 -15.5 -46.5t-6.5 -48.5q0 -18 17 -18q12 0 23 5t24 5q23 0 38.5 -15t15.5 -38q0 -22 -11 -36.5t-27.5 -23.5t-36.5 -12.5t-38 -3.5q-60 0 -93 35.5t-33 93.5q0 16 3 29.5t8 25.5t11 24.5t12 26.5z" />
    <glyph glyph-name="trademark" unicode="&#x2122;" horiz-adv-x="543" 
d="M305 358q-20 0 -32 17t-18 40t-7.5 47.5t-1.5 38.5q0 23 2 46.5t4 46.5q-11 -9 -26.5 -10.5t-29.5 -1.5h-10t-11 0.5t-9 3.5t-5 9q0 -29 3 -57t3 -57q0 -13 -1 -32t-6 -36.5t-15.5 -30t-28.5 -12.5q-14 0 -22 13t-12.5 33.5t-5 45.5t0 48.5t2.5 43t3 28.5q-9 1 -18 0
t-18 -1q-20 0 -31 8.5t-11 29.5q0 19 16 29t37.5 14.5t43.5 5.5t34 1q10 0 28.5 0.5t38 -1t36 -5.5t21.5 -14v1l6 -10q4 6 11.5 11.5t16 10t17 7.5t15.5 3q16 0 23 -15t11 -35t9 -39.5t18 -27.5q10 10 17 26.5t15 32.5t18 28t27 12q22 0 33.5 -6.5t16.5 -17.5t5 -26v-32
l1 -137q0 -21 -7.5 -34.5t-31.5 -13.5q-14 0 -26 9t-16 22v-2q-6 14 -5.5 34.5t1.5 35.5q-11 -7 -22.5 -11.5t-24.5 -4.5q-16 0 -30.5 7t-26.5 17q2 -14 3 -29t5 -29v1l6 -20t3 -21q0 -17 -13 -27.5t-29 -10.5z" />
    <glyph glyph-name="fl" unicode="&#xfb02;" horiz-adv-x="718" 
d="M186 157q20 2 39.5 5t39.5 3q19 0 36 -17t17 -36q0 -20 -13.5 -32t-32 -20t-37.5 -14.5t-30 -15.5q0 -23 9 -48t20 -48.5t20 -44.5t9 -34q0 -11 -5.5 -20.5t-14 -17.5t-18.5 -12.5t-20 -4.5q-25 0 -42.5 15.5t-30 38t-20.5 47.5t-12 43q-2 9 -4 19t-5.5 18t-9.5 13t-18 5
q-20 0 -34.5 13t-14.5 34q0 16 8 28.5t21 20.5q13 9 19 20t8.5 23.5t3 26t1.5 28.5q1 21 6 53t14.5 68.5t22.5 73t31.5 65.5t42 47.5t52.5 18.5q28 0 45 -10.5t26 -28t12 -40t3 -45.5q0 -17 -1.5 -35.5t-8 -34t-19 -26t-34.5 -10.5q-27 0 -43 24q-1 1 -2 3l-3 3q-3 0 -5 -4
t-3.5 -9t-2.5 -10t-1 -6q-8 -33 -13 -66t-8 -67zM665 129q14 -8 24 -20t10 -29q0 -21 -13.5 -37t-33 -27t-41.5 -16.5t-39 -5.5q-59 0 -97 29.5t-60 74.5t-30 98t-8 101q0 17 1 43.5t4 56t9.5 58.5t18 52.5t28.5 38t41 14.5q21 0 28.5 -13t7.5 -31q0 -29 -4 -57t-8.5 -56
t-8 -56.5t-3.5 -57.5q0 -15 3 -44.5t11 -59t23 -51t38 -21.5q22 0 43 9t44 9q4 0 12 -2z" />
    <glyph glyph-name="Lslash" unicode="&#x141;" horiz-adv-x="587" 
d="M509 103q28 0 44 -9t16 -39q0 -22 -14.5 -37.5t-37 -25t-50 -15t-55 -7.5t-51 -2.5t-37.5 -0.5q-65 0 -117.5 5.5t-91 27.5t-61 65.5t-27.5 119.5q-6 -2 -12 -4.5t-13 -2.5q-20 0 -32.5 15.5t-12.5 34.5q0 15 6.5 27t16.5 22t22 17.5t24 13.5q2 57 6.5 114t4.5 115
q0 15 -2 29.5t-2 28.5q0 24 18.5 41t41.5 17t35 -11.5t17.5 -28.5t6 -37t0.5 -36q0 -45 -2.5 -88.5t-2.5 -88.5q18 5 33 5q22 0 37.5 -16t15.5 -38q0 -17 -9.5 -29t-23 -21t-29 -15t-27.5 -12q0 -45 4 -74.5t18.5 -46t41.5 -23t74 -6.5q57 0 113.5 8t113.5 8z" />
    <glyph glyph-name="lslash" unicode="&#x142;" horiz-adv-x="364" 
d="M311 129q14 -8 24 -20t10 -29q0 -21 -13.5 -37t-33 -27t-41.5 -16.5t-39 -5.5q-43 0 -74.5 16t-53.5 42.5t-36 61.5t-21 73l-16 -6t-16 -3q-20 0 -32 16t-12 34q0 15 6 26.5t15.5 21t21 17t23.5 13.5q0 18 1 43.5t4.5 54t10 56.5t18 50t28.5 36t41 14q21 0 28 -13.5
t7 -30.5q0 -38 -7.5 -77t-12.5 -77q9 2 18.5 4t18.5 2q23 0 39 -15.5t16 -38.5q0 -17 -10 -29.5t-24 -21.5t-30 -15.5t-29 -12.5q1 -13 6 -33.5t14 -40t22 -34t30 -14.5q22 0 43 9t44 9q4 0 12 -2z" />
    <glyph glyph-name="Zcaron" unicode="&#x17d;" horiz-adv-x="629" 
d="M593 36q0 -35 -30 -50q-4 -2 -33.5 -3.5t-72.5 -3.5t-93.5 -3.5t-97 -2.5t-83 -1.5t-50.5 -0.5q-18 0 -37.5 2.5t-35.5 10t-26.5 21.5t-10.5 37q0 38 29.5 80.5t73.5 86t95.5 85t95.5 77t73.5 63t29.5 41.5q0 3 -5.5 4.5t-12.5 1.5h-13h-7q-57 0 -113 -4t-113 -4
q-14 0 -31 1t-32 6t-25 15.5t-10 29.5q0 22 15.5 36.5t35.5 17.5q72 11 148 12.5t149 1.5q22 0 54 -0.5t62 -7.5t51.5 -23.5t21.5 -47.5q0 -27 -22.5 -60t-58.5 -70t-79.5 -75.5t-86 -75.5t-78.5 -71t-56 -62l164 -1q13 0 34 1.5t45 1.5t48 -2t43.5 -9t32 -20t12.5 -35z
M165 925q0 24 13.5 41t38.5 17q23 0 39.5 -10.5t28.5 -26.5t20 -35.5t15 -37.5q8 13 19.5 31.5t25.5 35.5t30.5 29t34.5 12q16 0 25.5 -13t9.5 -27q0 -22 -16.5 -59t-41.5 -72.5t-54 -61.5t-53 -26q-12 0 -26.5 12t-29.5 31.5t-29.5 43t-25.5 46t-17.5 41.5t-6.5 29z" />
    <glyph glyph-name="zcaron" unicode="&#x17e;" 
d="M29 426q0 28 28 45t66.5 26.5t77 12.5t59.5 3q19 0 40 -3t37.5 -11.5t27.5 -24t11 -39.5q0 -16 -14.5 -42t-37 -57t-50 -63t-53 -61t-45.5 -51t-29 -32q17 -2 33 -5t33 -3q29 0 58.5 3.5t59.5 3.5q25 0 43 -10t18 -39q0 -30 -24 -46t-56 -24t-66 -9.5t-53 -1.5
q-26 0 -56.5 2.5t-57 13t-44.5 31t-18 55.5t24.5 75t58 80t68.5 76.5t55 63.5q-35 -1 -68.5 -6t-68.5 -5q-22 0 -39.5 8t-17.5 34zM56 725q0 24 13.5 41t38.5 17q23 0 39.5 -10.5t28.5 -26.5t20 -35.5t15 -37.5q8 13 19.5 31.5t25.5 35.5t30.5 29t34.5 12q16 0 25.5 -13
t9.5 -27q0 -22 -16.5 -59t-41.5 -72.5t-54 -61.5t-53 -26q-12 0 -26.5 12t-29.5 31.5t-29.5 43t-25.5 46t-17.5 41.5t-6.5 29z" />
    <glyph glyph-name="fraction" unicode="&#x2044;" horiz-adv-x="758" 
d="M690 995q20 0 36.5 -17.5t16.5 -37.5q0 -23 -16 -43t-30 -36q-51 -55 -96.5 -116t-88.5 -124.5t-84.5 -128t-82.5 -126.5q-5 -7 -23 -34t-42.5 -64t-52 -78t-51.5 -76.5t-40.5 -59t-18.5 -25.5q-10 -8 -18.5 -11t-21.5 -3q-25 0 -39.5 13.5t-14.5 39.5q0 15 20 53t53 92
t76 119t89.5 132.5t93.5 133t87 121.5t71 97t45 60q9 11 24.5 31t34 39.5t38 34t35.5 14.5z" />
    <glyph glyph-name="florin" unicode="&#x192;" horiz-adv-x="354" 
d="M186 157q20 2 39.5 5t39.5 3q19 0 36 -17t17 -36q0 -20 -13.5 -32t-32 -20t-37.5 -14.5t-30 -15.5q0 -23 9 -48t20 -48.5t20 -44.5t9 -34q0 -11 -5.5 -20.5t-14 -17.5t-18.5 -12.5t-20 -4.5q-25 0 -42.5 15.5t-30 38t-20.5 47.5t-12 43q-2 9 -4 19t-5.5 18t-9.5 13t-18 5
q-20 0 -34.5 13t-14.5 34q0 16 8 28.5t21 20.5q13 9 19 20t8.5 23.5t3 26t1.5 28.5q1 21 6 53t14.5 68.5t22.5 73t31.5 65.5t42 47.5t52.5 18.5q28 0 45 -10.5t26 -28t12 -40t3 -45.5q0 -17 -1.5 -35.5t-8 -34t-19 -26t-34.5 -10.5q-27 0 -43 24q-1 1 -2 3l-3 3q-3 0 -5 -4
t-3.5 -9t-2.5 -10t-1 -6q-8 -33 -13 -66t-8 -67z" />
    <glyph glyph-name="hungarumlaut" unicode="&#x2dd;" horiz-adv-x="499" 
d="M34 569q0 14 7.5 37.5t20 51t28.5 55.5t33.5 50.5t34.5 37t32 14.5q10 0 20 -4t18 -11t13 -16.5t5 -19.5q0 -5 -12 -28.5t-28 -51.5t-30.5 -53.5t-18.5 -34.5q-5 -10 -11 -23t-13.5 -24.5t-17 -20t-22.5 -9.5h-6q-26 0 -39.5 11.5t-13.5 38.5zM244 569q0 14 7.5 37.5
t20 51t28.5 55.5t33.5 50.5t34.5 37t32 14.5q10 0 20 -4t18 -11t13 -16.5t5 -19.5q0 -5 -12 -28.5t-28 -51.5t-30.5 -53.5t-18.5 -34.5q-5 -10 -11 -23t-13.5 -24.5t-17 -20t-22.5 -9.5h-6q-26 0 -39.5 11.5t-13.5 38.5z" />
    <glyph glyph-name="ellipsis" unicode="&#x2026;" horiz-adv-x="597" 
d="M34 85q0 29 21 47t49 18q26 0 45 -14.5t19 -41.5q0 -14 -4 -27.5t-12 -25t-19.5 -18.5t-26.5 -7q-29 0 -50.5 20t-21.5 49zM233 85q0 29 21 47t49 18q26 0 45 -14.5t19 -41.5q0 -14 -4 -27.5t-12 -25t-19.5 -18.5t-26.5 -7q-29 0 -50.5 20t-21.5 49zM432 85q0 29 21 47
t49 18q26 0 45 -14.5t19 -41.5q0 -14 -4 -27.5t-12 -25t-19.5 -18.5t-26.5 -7q-29 0 -50.5 20t-21.5 49z" />
    <glyph glyph-name="quotesinglbase" unicode="&#x201a;" horiz-adv-x="187" 
d="M11 -35q0 19 9.5 36t17.5 33q-8 9 -13 20.5t-5 23.5q0 15 6.5 27t17.5 20.5t24 13t27 4.5q28 0 47 -18.5t19 -46.5q0 -20 -7.5 -47t-21.5 -51t-33 -41t-43 -17q-19 0 -32 11.5t-13 31.5z" />
    <glyph glyph-name="quotedblbase" unicode="&#x201e;" horiz-adv-x="360" 
d="M11 -35q0 19 9.5 36t17.5 33q-8 9 -13 20.5t-5 23.5q0 15 6.5 27t17.5 20.5t24 13t27 4.5q28 0 47 -18.5t19 -46.5q0 -20 -7.5 -47t-21.5 -51t-33 -41t-43 -17q-19 0 -32 11.5t-13 31.5zM183 -35q0 19 9.5 36t17.5 33q-8 9 -13 20.5t-5 23.5q0 15 6.5 27t17.5 20.5t24 13
t27 4.5q28 0 47 -18.5t19 -46.5q0 -20 -7.5 -47t-21.5 -51t-33 -41t-43 -17q-19 0 -32 11.5t-13 31.5z" />
    <glyph glyph-name="quoteleft" unicode="&#x2018;" horiz-adv-x="197" 
d="M171 700q0 -19 -9.5 -36t-17.5 -33q8 -9 13 -20.5t5 -23.5q0 -15 -6.5 -27t-17.5 -20.5t-24.5 -13t-26.5 -4.5q-28 0 -47 18.5t-19 46.5q0 20 7.5 47t21.5 51t33 41t43 17q19 0 32 -11.5t13 -31.5z" />
    <glyph glyph-name="quoteright" unicode="&#x2019;" horiz-adv-x="197" 
d="M21 565q0 19 9.5 36t17.5 33q-8 9 -13 20.5t-5 23.5q0 15 6.5 27t17.5 20.5t24 13t27 4.5q28 0 47 -18.5t19 -46.5q0 -20 -7.5 -47t-21.5 -51t-33 -41t-43 -17q-19 0 -32 11.5t-13 31.5z" />
    <glyph glyph-name="quotedblleft" unicode="&#x201c;" horiz-adv-x="374" 
d="M343 700q0 -19 -9.5 -36t-17.5 -33q8 -9 13 -20.5t5 -23.5q0 -15 -6.5 -27t-17.5 -20.5t-24.5 -13t-26.5 -4.5q-28 0 -47 18.5t-19 46.5q0 20 7.5 47t21.5 51t33 41t43 17q19 0 32 -11.5t13 -31.5zM171 700q0 -19 -9.5 -36t-17.5 -33q8 -9 13 -20.5t5 -23.5
q0 -15 -6.5 -27t-17.5 -20.5t-24.5 -13t-26.5 -4.5q-28 0 -47 18.5t-19 46.5q0 20 7.5 47t21.5 51t33 41t43 17q19 0 32 -11.5t13 -31.5z" />
    <glyph glyph-name="quotedblright" unicode="&#x201d;" horiz-adv-x="374" 
d="M21 565q0 19 9.5 36t17.5 33q-8 9 -13 20.5t-5 23.5q0 15 6.5 27t17.5 20.5t24 13t27 4.5q28 0 47 -18.5t19 -46.5q0 -20 -7.5 -47t-21.5 -51t-33 -41t-43 -17q-19 0 -32 11.5t-13 31.5zM193 565q0 19 9.5 36t17.5 33q-8 9 -13 20.5t-5 23.5q0 15 6.5 27t17.5 20.5t24 13
t27 4.5q28 0 47 -18.5t19 -46.5q0 -20 -7.5 -47t-21.5 -51t-33 -41t-43 -17q-19 0 -32 11.5t-13 31.5z" />
    <glyph glyph-name="degree" unicode="&#xb0;" horiz-adv-x="257" 
d="M128 563q13 0 24 11t11 24q0 15 -12 26t-27 11q-14 0 -23 -8.5t-9 -22.5t10 -27.5t26 -13.5zM16 614q0 21 7.5 39.5t21 32t32 21.5t39.5 8q22 0 43 -9t37 -24t25.5 -35.5t9.5 -43.5q0 -22 -8.5 -42t-23.5 -35t-35 -24t-42 -9q-23 0 -42.5 11t-33.5 28t-22 39t-8 43z" />
    <glyph glyph-name="twosuperior" unicode="&#xb2;" horiz-adv-x="289" 
d="M269 433q0 -20 -17.5 -29t-40.5 -12.5t-46.5 -3t-36.5 0.5h-34t-35.5 4.5t-28 15.5t-11.5 33q0 15 13.5 35t33 42.5t43 45t43 43t33 36.5t13.5 25q0 5 -5 5.5t-8 0.5q-38 0 -60 -16.5t-36 -36t-23 -35.5t-21 -16l-10 1h1q-16 3 -21.5 12.5t-5.5 25.5q0 29 18 54t45 43
t58 28.5t57 10.5q16 0 32 -4t28 -15h-1q11 -10 18 -22.5t7 -27.5q0 -27 -20 -58.5t-46.5 -62t-53.5 -56.5t-41 -41q5 2 17.5 3.5t26.5 2t27.5 0.5h19.5h20.5t22 -3t18 -9.5t7.5 -19.5z" />
    <glyph glyph-name="threesuperior" unicode="&#xb3;" horiz-adv-x="340" 
d="M318 503q0 -30 -14.5 -57t-37.5 -47t-51.5 -32t-57.5 -12q-18 0 -42 3.5t-46 12.5t-37.5 24t-15.5 39q0 14 8.5 27.5t25.5 13.5t23 -7t12 -16t17.5 -16t39.5 -7q16 0 34 4.5t33 14t25 23.5t10 33q0 23 -14 31.5t-32.5 12t-36.5 8.5t-27 21v-1q-7 10 -7 21q0 15 14 28.5
t25 21.5h-1q11 9 28.5 24t24.5 28q-4 2 -7 2q-26 0 -42 -8t-16 -34q0 -11 -11 -20t-22 -9q-15 0 -27.5 14.5t-12.5 28.5q0 25 13.5 43.5t34 30.5t44.5 18t45 6q32 0 53.5 -20t21.5 -52q0 -10 -5.5 -22.5t-14 -24.5t-18 -22t-17.5 -16q17 -4 31.5 -15.5t25.5 -27.5t17.5 -34
t6.5 -34z" />
    <glyph glyph-name="onesuperior" unicode="&#xb9;" horiz-adv-x="113" 
d="M69 728q17 0 21.5 -12t4.5 -26q0 -32 -4 -63.5t-4 -63.5q0 -33 4 -66t4 -65q0 -15 -10 -22.5t-24 -7.5q-20 0 -29.5 17t-12.5 39.5t-2.5 46t0.5 35.5q0 14 -0.5 45.5t3.5 63t15 55.5t34 24z" />
    <glyph glyph-name="ordfeminine" unicode="&#xaa;" horiz-adv-x="257" 
d="M80 440q-28 0 -46 22t-18 48q0 23 9.5 51t26 52t38.5 40.5t48 16.5q16 0 30 -8l7 1q4 5 10 6t11 1q19 0 27 -14t9.5 -33.5t0 -39.5t-1.5 -33q0 -11 1 -23.5t-1.5 -23.5t-9 -18t-21.5 -7q-11 0 -21 6.5t-12 17.5q-2 -12 -11.5 -23t-22.5 -20t-27 -14t-26 -5zM84 511
q21 17 35 37t14 48v8q-20 -20 -33.5 -42t-15.5 -51z" />
    <glyph glyph-name="plusminus" unicode="&#xb1;" horiz-adv-x="414" 
d="M23 330q0 21 12.5 32.5t30.5 17t38 7t34 3.5q2 17 2.5 44.5t5.5 53t17.5 44t39.5 18.5q28 0 40 -19t15 -45t1 -53.5t-2 -44.5q16 0 38 1.5t42 -2t34.5 -15t14.5 -36.5q0 -24 -13 -36t-32 -17.5t-41 -6t-39 -2.5q0 -18 2 -44.5t-1 -51t-14.5 -41.5t-38.5 -17q-29 0 -43 16
t-19.5 39.5t-6 49.5t-0.5 46h-37.5t-38 5.5t-29.5 17.5t-12 36zM97 -23q-14 0 -27.5 2t-24 7.5t-16.5 16.5t-6 29q0 27 25 40t58.5 18t67 4.5t51.5 -0.5h40.5t42.5 -5t33.5 -18t13.5 -39q0 -32 -28 -44q-5 -3 -21.5 -4.5t-39 -3t-48.5 -2t-50 -1t-43 -0.5h-28z" />
    <glyph glyph-name="brokenbar" unicode="&#xa6;" horiz-adv-x="187" 
d="M155 350l1 -214q0 -12 0.5 -35t0.5 -50.5t-2.5 -56.5t-9 -53t-17.5 -39t-29 -15q-20 0 -33 14t-20 36.5t-10 50.5t-3.5 55t0 50t0.5 36q0 110 3 220zM37 409q0 11 0.5 43.5t1 75t2 89.5t4 87.5t6 68.5t9.5 34q16 16 37 16q10 0 18 -4t16 -10q9 -7 14 -30t7.5 -53.5
t3.5 -65t0.5 -66t-1 -56t-0.5 -34.5v-94z" />
    <glyph glyph-name="exclamdown" unicode="&#xa1;" horiz-adv-x="183" 
d="M44 271q0 38 -7 75.5t-7 75.5q0 21 18.5 33t38.5 12q30 0 45 -19t21 -46t6 -56v-48q0 -15 -0.5 -40.5t-2 -57t-3.5 -65t-5.5 -63.5t-8 -54.5t-9.5 -36.5q-6 -14 -22.5 -26.5t-32.5 -12.5q-14 0 -23 7t-14.5 17.5t-8 22.5t-2.5 22q0 66 8.5 130t8.5 130zM96 552
q-23 0 -38.5 14.5t-15.5 37.5q0 21 11 38.5t35 17.5t38.5 -18t14.5 -41q0 -20 -11.5 -34.5t-33.5 -14.5z" />
    <glyph glyph-name="dagger" unicode="&#x2020;" horiz-adv-x="384" 
d="M97 417q-14 0 -27.5 1.5t-24 7.5t-16.5 17t-6 29q0 20 11 31t27.5 16.5t35 7t33.5 3.5v35t0.5 52t1 60t3 57.5t6 46.5t9.5 26q16 16 37 16q18 0 34 -14q8 -8 13 -28.5t8 -47.5t3.5 -58t0.5 -59t-0.5 -50t-0.5 -32q17 0 36 -1t35.5 -7t27.5 -18.5t11 -35.5
q0 -21 -11.5 -32t-28.5 -15t-36 -4.5t-34 -0.5l1 -284q0 -12 0.5 -35t0.5 -50.5t-2.5 -56.5t-9 -53t-17.5 -39t-29 -15q-11 0 -20 5.5t-17 13.5q-11 11 -17.5 48t-9.5 87.5t-3.5 108.5t0.5 111.5t2.5 96t2.5 61.5q-8 -1 -15 -1.5t-15 -0.5z" />
    <glyph glyph-name="daggerdbl" unicode="&#x2021;" horiz-adv-x="479" 
d="M180 311q0 13 0.5 26t0.5 26l-104 -1q-21 0 -34 11.5t-13 33.5q0 25 17.5 39t41.5 21t50.5 8.5t44.5 2.5v39t0.5 61.5t1.5 72t3 70.5t6 56.5t10 29.5q16 16 37 16q18 0 34 -14q8 -8 13.5 -32t8 -57t3 -70.5t0.5 -71.5t-0.5 -60.5t-0.5 -36.5q17 0 42 1t48 -3.5t39 -17.5
t16 -40t-16.5 -39t-39.5 -16.5t-48 -3.5t-41 1v-49q17 0 42 1t48 -3.5t39 -17.5t16 -40t-16.5 -39t-39 -16.5t-47.5 -3.5t-41 1v-51q0 -12 0.5 -35.5t0.5 -52t-2.5 -59t-9 -55t-17.5 -40.5t-29 -16q-22 0 -35.5 19t-20.5 48t-10 65t-3 70.5t1.5 63t1.5 43.5l-101 -1
q-21 0 -34 11.5t-13 33.5q0 25 16.5 39t40.5 20.5t49.5 8.5t43.5 3z" />
    <glyph glyph-name="ordmasculine" unicode="&#xba;" horiz-adv-x="287" 
d="M131 408q-20 0 -38.5 6.5t-32.5 18.5t-22.5 29t-8.5 38q0 24 11 45t29 36.5t40.5 24.5t45.5 9q16 0 33.5 -10t32.5 -25t24.5 -33t9.5 -34q0 -23 -11.5 -42t-29.5 -33t-40 -22t-43 -8zM138 548q-8 0 -15 -6t-13 -14t-9.5 -17.5t-3.5 -15.5q0 -11 7.5 -15.5t16.5 -4.5
q8 0 19.5 3t22 9t17.5 14t7 18q0 8 -5.5 13.5t-13 9t-16 5t-14.5 1.5z" />
    <glyph glyph-name="Scaron" unicode="&#x160;" horiz-adv-x="539" 
d="M367 665q38 0 66 -14.5t46.5 -39t27.5 -56.5t9 -67q0 -15 -4 -41.5t-13.5 -52.5t-24 -45t-35.5 -19q-9 0 -18.5 4.5t-17.5 12t-13 16.5t-5 18q0 28 10.5 55t10.5 56q0 20 -8.5 39.5t-31.5 19.5q-22 0 -48 -16.5t-48.5 -40.5t-38 -51t-15.5 -48q0 -22 20 -45t49.5 -46.5
t64.5 -49.5t64.5 -54t49.5 -59.5t20 -66.5q0 -42 -23 -67.5t-57 -39t-72.5 -18t-69.5 -4.5q-27 0 -68 4t-79 16.5t-65 35.5t-27 61q0 22 14.5 35.5t35.5 13.5q17 0 34 -6.5t32 -14.5q35 -18 66.5 -20.5t70.5 -2.5h15.5t26.5 1t25 3.5t11 8.5q-17 31 -42.5 53t-54 41
t-56.5 38.5t-51 46t-37 63.5t-14 90q0 43 26 88t65.5 82t87 60t89.5 23zM165 925q0 24 13.5 41t38.5 17q23 0 39.5 -10.5t28.5 -26.5t20 -35.5t15 -37.5q8 13 19.5 31.5t25.5 35.5t30.5 29t34.5 12q16 0 25.5 -13t9.5 -27q0 -22 -16.5 -59t-41.5 -72.5t-54 -61.5t-53 -26
q-12 0 -26.5 12t-29.5 31.5t-29.5 43t-25.5 46t-17.5 41.5t-6.5 29z" />
    <glyph glyph-name="OE" unicode="&#x152;" horiz-adv-x="987" 
d="M675 352q8 -1 29.5 -1t48.5 -1.5t56.5 -4.5t54 -10.5t40.5 -19.5t16 -30q0 -31 -26 -43t-61.5 -14.5t-71.5 1t-56 3.5h-19q-3 -3 -3.5 -8.5t-0.5 -9.5q0 -27 6.5 -44.5t18.5 -40.5q45 6 91 12t92 6q26 0 46 -13t20 -42q0 -30 -27.5 -46t-65 -23t-75 -8t-58.5 -1
q-27 0 -50.5 4t-43 14t-35 28t-25.5 45q-57 -78 -133.5 -122t-174.5 -44q-62 0 -108 24t-76 64.5t-44.5 93t-14.5 109.5q0 37 10.5 84.5t30.5 96t48 95t62 82.5t74 58t83 22q25 0 64 -17t79.5 -41t75.5 -50.5t52 -45.5q28 30 67 39.5t78 9.5q11 0 31 -1t43.5 -3.5t48.5 -7
t45 -12t32.5 -17t12.5 -23.5q0 -18 -8 -29t-20.5 -17.5t-28 -8.5t-29.5 -2q-32 0 -64.5 3t-64.5 3q-30 0 -43.5 -5t-19 -16t-6 -29.5t-3.5 -45.5zM255 505q-23 -29 -42.5 -63t-33.5 -71t-22 -75.5t-8 -75.5q0 -30 7.5 -59t23.5 -51.5t40.5 -36.5t59.5 -14q47 0 93.5 26
t83.5 66t60 89t23 95q0 44 -12 73.5t-33 48t-49.5 28t-60 13.5t-65 5t-65.5 2z" />
    <glyph glyph-name="scaron" unicode="&#x161;" horiz-adv-x="336" 
d="M169 173q-20 17 -45.5 27t-48 22.5t-38.5 32t-16 55.5q0 34 18 67t46 59t62.5 42t67.5 16q18 0 36 -5t32.5 -15.5t24 -25.5t9.5 -35q0 -26 -15 -37t-39 -11q-6 0 -13.5 1.5t-11.5 6.5q-5 4 -12 6.5t-14 2.5t-18.5 -6t-22.5 -15t-19 -19t-8 -17v-3q20 -13 49.5 -23t57 -23
t47 -31.5t19.5 -48.5q0 -19 -14.5 -43.5t-37.5 -50.5t-51.5 -51.5t-56.5 -45t-53.5 -31.5t-41.5 -12q-21 0 -33 17.5t-12 37.5q0 21 18 43.5t42.5 43.5t50 39t41.5 30zM19 725q0 24 13.5 41t38.5 17q23 0 39.5 -10.5t28.5 -26.5t20 -35.5t15 -37.5q8 13 19.5 31.5t25.5 35.5
t30.5 29t34.5 12q16 0 25.5 -13t9.5 -27q0 -22 -16.5 -59t-41.5 -72.5t-54 -61.5t-53 -26q-12 0 -26.5 12t-29.5 31.5t-29.5 43t-25.5 46t-17.5 41.5t-6.5 29z" />
    <glyph glyph-name="oe" unicode="&#x153;" horiz-adv-x="812" 
d="M396 94q-45 -41 -101 -66t-117 -25q-36 0 -66 9.5t-51.5 28t-34 47t-12.5 66.5q0 50 25 100t64.5 89.5t89.5 64.5t100 25q37 0 71.5 -12t61.5 -38q27 30 63.5 49t78.5 19q54 0 90 -33t36 -89q0 -38 -9 -66.5t-26 -51.5t-40.5 -42.5t-52.5 -39.5h28q18 0 37.5 7.5t38 17
t36 17t32.5 7.5q9 0 18.5 -5.5t17.5 -14t13.5 -18t5.5 -18.5q0 -30 -28.5 -52t-67.5 -36.5t-79 -21.5t-62 -7q-52 0 -93 21.5t-67 67.5zM129 150q0 -20 10 -23t26 -3q25 0 58 10t63 27.5t51 41.5t21 53q0 19 -11 29t-27.5 15t-34.5 6t-31 1q-21 0 -43 -17.5t-40 -42
t-30 -51.5t-12 -46zM493 262q0 -11 7.5 -16.5t17.5 -5.5q14 0 24.5 7.5t18 19t11.5 25t4 25.5q0 5 -0.5 12t-7.5 7q-9 0 -22 -8.5t-24.5 -20t-20 -24t-8.5 -21.5z" />
    <glyph glyph-name="Ydieresis" unicode="&#x178;" horiz-adv-x="494" 
d="M409 626q23 0 40.5 -17t17.5 -40q0 -7 -12 -33.5t-30.5 -63.5t-41 -78.5t-43 -77.5t-37 -62t-22.5 -31q-8 -6 -10.5 -30t-2.5 -52.5t1.5 -55t1.5 -38.5q0 -14 -1.5 -28t-6.5 -24.5t-15.5 -17t-28.5 -6.5q-27 0 -39.5 17t-17 40.5t-4.5 49.5v44v40t-2 37t-7.5 35.5
t-16.5 36.5q-6 11 -16 35t-21 55.5t-22 65.5t-20 65.5t-14.5 55.5t-5.5 35q0 18 13.5 33.5t31.5 15.5q20 0 36 -15t28 -39t22 -54t19.5 -59t19 -55t21.5 -41q7 10 19.5 31t28 47.5t32 55t31.5 52.5t26 40.5t16 20.5q13 10 32 10zM127 757q0 21 14.5 36t35.5 15
q23 0 41 -16.5t18 -39.5t-16.5 -39.5t-39.5 -16.5t-38 19.5t-15 41.5zM270 757q0 21 14.5 36t35.5 15q23 0 41 -16.5t18 -39.5t-16.5 -39.5t-39.5 -16.5t-38 19.5t-15 41.5z" />
    <glyph glyph-name="Agrave" unicode="&#xc0;" horiz-adv-x="444" 
d="M77 -9q-14 0 -23 6t-14.5 15.5t-8 21t-2.5 22.5q0 34 4 90t14.5 119.5t28 128t44 116.5t64 85t86.5 33q33 0 54 -17t35 -45q8 -16 15.5 -52t13.5 -83.5t11.5 -100.5t9 -102t5.5 -88.5t2 -60.5q0 -16 -1.5 -30.5t-7.5 -26t-17.5 -18.5t-31.5 -7q-29 0 -43.5 22.5
t-20.5 52.5t-7 61.5t-3 49.5q-35 -2 -69 -5t-67 -13q-3 -21 -3.5 -51t-5.5 -57t-18.5 -46.5t-43.5 -19.5zM251 492q-5 -1 -13 -14.5t-17.5 -33t-19 -43t-17 -45t-12.5 -38t-5 -23.5v-4q10 -2 20.5 -3t20.5 -1q17 0 34 1.5t34 3.5q-4 51 -8 101t-17 99zM151 900q0 20 16 34.5
t36 14.5q22 0 43 -21.5t37.5 -51.5t26.5 -61t10 -49q0 -19 -12 -31t-32 -12t-41.5 21t-40.5 50t-31 58.5t-12 47.5z" />
    <glyph glyph-name="Aacute" unicode="&#xc1;" horiz-adv-x="444" 
d="M77 -9q-14 0 -23 6t-14.5 15.5t-8 21t-2.5 22.5q0 34 4 90t14.5 119.5t28 128t44 116.5t64 85t86.5 33q33 0 54 -17t35 -45q8 -16 15.5 -52t13.5 -83.5t11.5 -100.5t9 -102t5.5 -88.5t2 -60.5q0 -16 -1.5 -30.5t-7.5 -26t-17.5 -18.5t-31.5 -7q-29 0 -43.5 22.5
t-20.5 52.5t-7 61.5t-3 49.5q-35 -2 -69 -5t-67 -13q-3 -21 -3.5 -51t-5.5 -57t-18.5 -46.5t-43.5 -19.5zM251 492q-5 -1 -13 -14.5t-17.5 -33t-19 -43t-17 -45t-12.5 -38t-5 -23.5v-4q10 -2 20.5 -3t20.5 -1q17 0 34 1.5t34 3.5q-4 51 -8 101t-17 99zM308 948q10 0 20 -4
t18 -11t13 -16.5t5 -19.5q0 -4 -8 -20.5t-18.5 -35.5t-20 -36.5t-12.5 -23.5q-5 -11 -10.5 -23t-12.5 -22t-16.5 -16.5t-22.5 -7.5h-9q-24 0 -38 12.5t-14 37.5q0 17 12 48.5t30.5 62t41 53t42.5 22.5z" />
    <glyph glyph-name="Acircumflex" unicode="&#xc2;" horiz-adv-x="444" 
d="M77 -9q-14 0 -23 6t-14.5 15.5t-8 21t-2.5 22.5q0 34 4 90t14.5 119.5t28 128t44 116.5t64 85t86.5 33q33 0 54 -17t35 -45q8 -16 15.5 -52t13.5 -83.5t11.5 -100.5t9 -102t5.5 -88.5t2 -60.5q0 -16 -1.5 -30.5t-7.5 -26t-17.5 -18.5t-31.5 -7q-29 0 -43.5 22.5
t-20.5 52.5t-7 61.5t-3 49.5q-35 -2 -69 -5t-67 -13q-3 -21 -3.5 -51t-5.5 -57t-18.5 -46.5t-43.5 -19.5zM251 492q-5 -1 -13 -14.5t-17.5 -33t-19 -43t-17 -45t-12.5 -38t-5 -23.5v-4q10 -2 20.5 -3t20.5 -1q17 0 34 1.5t34 3.5q-4 51 -8 101t-17 99zM245 949
q22 0 44.5 -22.5t40.5 -53.5t29 -63.5t11 -51.5q0 -15 -9.5 -29.5t-26.5 -14.5t-30.5 11t-25 26.5t-20 32.5l-14.5 29q-9 -17 -18.5 -34t-22 -31t-28.5 -23t-37 -9t-31.5 12t-10.5 32q0 16 17 47.5t40.5 63t49 55t42.5 23.5z" />
    <glyph glyph-name="Atilde" unicode="&#xc3;" horiz-adv-x="444" 
d="M77 -9q-14 0 -23 6t-14.5 15.5t-8 21t-2.5 22.5q0 34 4 90t14.5 119.5t28 128t44 116.5t64 85t86.5 33q33 0 54 -17t35 -45q8 -16 15.5 -52t13.5 -83.5t11.5 -100.5t9 -102t5.5 -88.5t2 -60.5q0 -16 -1.5 -30.5t-7.5 -26t-17.5 -18.5t-31.5 -7q-29 0 -43.5 22.5
t-20.5 52.5t-7 61.5t-3 49.5q-35 -2 -69 -5t-67 -13q-3 -21 -3.5 -51t-5.5 -57t-18.5 -46.5t-43.5 -19.5zM251 492q-5 -1 -13 -14.5t-17.5 -33t-19 -43t-17 -45t-12.5 -38t-5 -23.5v-4q10 -2 20.5 -3t20.5 -1q17 0 34 1.5t34 3.5q-4 51 -8 101t-17 99zM325 803q6 0 9 3.5
t4 8.5t1 10v9q0 21 12.5 36.5t34.5 15.5q29 0 43 -20.5t14 -46.5q0 -23 -7.5 -45t-21.5 -38.5t-33.5 -26.5t-44.5 -10q-32 0 -56 12t-42 26.5t-32.5 26.5t-27.5 12q-14 0 -14.5 -11t-0.5 -21q0 -21 -13 -36.5t-34 -15.5q-30 0 -43.5 21t-13.5 47q0 24 7 45.5t20.5 38
t33.5 26.5t45 10q33 0 56 -12t40.5 -26.5t32 -26.5t31.5 -12z" />
    <glyph glyph-name="Adieresis" unicode="&#xc4;" horiz-adv-x="444" 
d="M77 -9q-14 0 -23 6t-14.5 15.5t-8 21t-2.5 22.5q0 34 4 90t14.5 119.5t28 128t44 116.5t64 85t86.5 33q33 0 54 -17t35 -45q8 -16 15.5 -52t13.5 -83.5t11.5 -100.5t9 -102t5.5 -88.5t2 -60.5q0 -16 -1.5 -30.5t-7.5 -26t-17.5 -18.5t-31.5 -7q-29 0 -43.5 22.5
t-20.5 52.5t-7 61.5t-3 49.5q-35 -2 -69 -5t-67 -13q-3 -21 -3.5 -51t-5.5 -57t-18.5 -46.5t-43.5 -19.5zM251 492q-5 -1 -13 -14.5t-17.5 -33t-19 -43t-17 -45t-12.5 -38t-5 -23.5v-4q10 -2 20.5 -3t20.5 -1q17 0 34 1.5t34 3.5q-4 51 -8 101t-17 99zM154 800q0 21 14.5 36
t35.5 15q23 0 41 -16.5t18 -39.5t-16.5 -39.5t-39.5 -16.5t-38 19.5t-15 41.5zM297 800q0 21 14.5 36t35.5 15q23 0 41 -16.5t18 -39.5t-16.5 -39.5t-39.5 -16.5t-38 19.5t-15 41.5z" />
    <glyph glyph-name="Aring" unicode="&#xc5;" horiz-adv-x="444" 
d="M77 -9q-14 0 -23 6t-14.5 15.5t-8 21t-2.5 22.5q0 34 4 90t14.5 119.5t28 128t44 116.5t64 85t86.5 33q33 0 54 -17t35 -45q8 -16 15.5 -52t13.5 -83.5t11.5 -100.5t9 -102t5.5 -88.5t2 -60.5q0 -16 -1.5 -30.5t-7.5 -26t-17.5 -18.5t-31.5 -7q-29 0 -43.5 22.5
t-20.5 52.5t-7 61.5t-3 49.5q-35 -2 -69 -5t-67 -13q-3 -21 -3.5 -51t-5.5 -57t-18.5 -46.5t-43.5 -19.5zM251 492q-5 -1 -13 -14.5t-17.5 -33t-19 -43t-17 -45t-12.5 -38t-5 -23.5v-4q10 -2 20.5 -3t20.5 -1q17 0 34 1.5t34 3.5q-4 51 -8 101t-17 99zM257 772q10 0 17 7.5
t7 16.5q0 11 -8 18t-18 7q-2 0 -7 -2t-7 -3q-8 -6 -8 -17q0 -10 6.5 -18.5t17.5 -8.5zM173 806q0 34 22 56t55 22q18 0 34 -7t28.5 -18.5t20 -27.5t7.5 -34q0 -17 -7 -32.5t-18.5 -27t-27 -18.5t-32.5 -7q-18 0 -33 8.5t-26 22t-17 30t-6 33.5z" />
    <glyph glyph-name="AE" unicode="&#xc6;" horiz-adv-x="726" 
d="M413 352q8 -1 29.5 -1t48.5 -1.5t56.5 -4.5t54 -10.5t40.5 -19.5t16 -30q0 -31 -26 -43t-61.5 -14.5t-71.5 1t-56 3.5h-19q-3 -3 -3.5 -8.5t-0.5 -9.5q0 -26 6.5 -44t18.5 -41q45 6 91 12t92 6q26 0 46 -13t20 -42q0 -30 -27.5 -46t-65 -23t-75.5 -8t-59 -1
q-15 0 -30.5 1t-30.5 5q-7 -12 -21 -17.5t-27 -5.5q-29 0 -43.5 22.5t-20.5 53t-7 62t-3 48.5q-35 -2 -69 -5t-67 -13q-3 -20 -3.5 -49.5t-5.5 -57.5t-18 -47.5t-41 -19.5q-30 0 -40.5 19.5t-10.5 45.5q0 35 4 91t14.5 119.5t28 128t44.5 116.5t64 84.5t86 32.5
q22 0 38 -7.5t28 -20.5t20 -29.5t13 -35.5q26 17 57 22.5t62 5.5q16 0 51 -2.5t71 -9.5t63 -19.5t27 -31.5q0 -18 -8 -29.5t-20 -17.5t-27.5 -8.5t-30.5 -2.5q-32 0 -64.5 3t-64.5 3q-30 0 -43.5 -4.5t-19 -16t-6 -30t-3.5 -45.5zM251 492q-5 -1 -13 -14.5t-17.5 -33
t-19 -43t-17 -45t-12.5 -38t-5 -23.5v-4q10 -2 20.5 -3t20.5 -1q17 0 34 1.5t34 3.5q-4 51 -8 101t-17 99z" />
    <glyph glyph-name="Ccedilla" unicode="&#xc7;" horiz-adv-x="501" 
d="M23 217q0 30 10 69.5t27.5 80.5t42 81.5t53.5 71.5t61.5 50.5t67.5 19.5q32 0 56 -16t40.5 -40.5t24.5 -54t8 -57.5q0 -16 -2.5 -32.5t-9.5 -29.5t-19.5 -21.5t-31.5 -8.5q-20 0 -30 10.5t-14 26.5t-4.5 34t-1.5 34t-5 26.5t-15 10.5q-16 0 -32 -15t-31 -39t-28.5 -53.5
t-23.5 -58t-16 -53.5t-6 -39q0 -13 2.5 -26.5t8.5 -25t16 -18.5t26 -7q32 0 66 15.5t64.5 34t54 34t35.5 15.5q20 0 37.5 -17.5t17.5 -37.5q0 -26 -19 -49t-46 -42t-56.5 -33t-49.5 -20q11 -30 11 -58q0 -29 -12.5 -51.5t-32.5 -38t-45.5 -23.5t-52.5 -8q-15 0 -29.5 3.5
t-26 11t-18.5 20t-7 29.5q0 18 7.5 29t19 16.5t25.5 7.5t28 2q7 0 13.5 3.5t6.5 11.5q0 6 -4 14l-7 14q-39 1 -68 19t-48 46t-28.5 62.5t-9.5 69.5z" />
    <glyph glyph-name="Egrave" unicode="&#xc8;" horiz-adv-x="462" 
d="M140 352q8 -1 29.5 -1t48.5 -1.5t56.5 -4.5t54 -10.5t40.5 -19.5t16 -30q0 -31 -26 -43t-61.5 -14.5t-71.5 1t-56 3.5h-19q-3 -3 -3.5 -8.5t-0.5 -9.5q0 -26 6.5 -44t18.5 -41q45 6 91 12t92 6q26 0 46 -13t20 -42q0 -30 -27.5 -46t-65 -23t-75 -8t-58.5 -1
q-67 0 -102 24.5t-50.5 64.5t-17 90.5t-1.5 101.5q0 55 3.5 104t21.5 85.5t56.5 58t108.5 21.5q10 0 30 -1t44 -4t48.5 -7.5t44.5 -11.5t33 -17t13 -23q0 -18 -8 -29.5t-20 -17.5t-27.5 -8.5t-30.5 -2.5q-32 0 -64.5 3t-64.5 3q-30 0 -43.5 -4.5t-19 -16t-6 -30t-3.5 -45.5z
M145 817q0 20 16 34.5t36 14.5q22 0 43 -21.5t37.5 -51.5t26.5 -61t10 -49q0 -19 -12 -31t-32 -12t-41.5 21t-40.5 50t-31 58.5t-12 47.5z" />
    <glyph glyph-name="Eacute" unicode="&#xc9;" horiz-adv-x="462" 
d="M140 352q8 -1 29.5 -1t48.5 -1.5t56.5 -4.5t54 -10.5t40.5 -19.5t16 -30q0 -31 -26 -43t-61.5 -14.5t-71.5 1t-56 3.5h-19q-3 -3 -3.5 -8.5t-0.5 -9.5q0 -26 6.5 -44t18.5 -41q45 6 91 12t92 6q26 0 46 -13t20 -42q0 -30 -27.5 -46t-65 -23t-75 -8t-58.5 -1
q-67 0 -102 24.5t-50.5 64.5t-17 90.5t-1.5 101.5q0 55 3.5 104t21.5 85.5t56.5 58t108.5 21.5q10 0 30 -1t44 -4t48.5 -7.5t44.5 -11.5t33 -17t13 -23q0 -18 -8 -29.5t-20 -17.5t-27.5 -8.5t-30.5 -2.5q-32 0 -64.5 3t-64.5 3q-30 0 -43.5 -4.5t-19 -16t-6 -30t-3.5 -45.5z
M279 858q17 0 34.5 -13t17.5 -32q0 -4 -7.5 -18.5t-17.5 -32t-19 -32.5t-12 -21q-5 -11 -10 -21.5t-12 -19.5t-15.5 -14.5t-21.5 -6.5h-9q-22 0 -35 10.5t-13 33.5q0 16 11.5 44.5t29 55.5t38.5 47t41 20z" />
    <glyph glyph-name="Ecircumflex" unicode="&#xca;" horiz-adv-x="462" 
d="M140 352q8 -1 29.5 -1t48.5 -1.5t56.5 -4.5t54 -10.5t40.5 -19.5t16 -30q0 -31 -26 -43t-61.5 -14.5t-71.5 1t-56 3.5h-19q-3 -3 -3.5 -8.5t-0.5 -9.5q0 -26 6.5 -44t18.5 -41q45 6 91 12t92 6q26 0 46 -13t20 -42q0 -30 -27.5 -46t-65 -23t-75 -8t-58.5 -1
q-67 0 -102 24.5t-50.5 64.5t-17 90.5t-1.5 101.5q0 55 3.5 104t21.5 85.5t56.5 58t108.5 21.5q10 0 30 -1t44 -4t48.5 -7.5t44.5 -11.5t33 -17t13 -23q0 -18 -8 -29.5t-20 -17.5t-27.5 -8.5t-30.5 -2.5q-32 0 -64.5 3t-64.5 3q-30 0 -43.5 -4.5t-19 -16t-6 -30t-3.5 -45.5z
M236 870q22 0 44.5 -22.5t40.5 -53.5t29 -63.5t11 -51.5q0 -15 -9.5 -29.5t-26.5 -14.5t-30.5 11t-25 26.5t-20 32.5l-14.5 29q-9 -17 -18.5 -34t-22 -31t-28.5 -23t-37 -9t-31.5 12t-10.5 32q0 16 17 47.5t40.5 63t49 55t42.5 23.5z" />
    <glyph glyph-name="Edieresis" unicode="&#xcb;" horiz-adv-x="462" 
d="M140 352q8 -1 29.5 -1t48.5 -1.5t56.5 -4.5t54 -10.5t40.5 -19.5t16 -30q0 -31 -26 -43t-61.5 -14.5t-71.5 1t-56 3.5h-19q-3 -3 -3.5 -8.5t-0.5 -9.5q0 -26 6.5 -44t18.5 -41q45 6 91 12t92 6q26 0 46 -13t20 -42q0 -30 -27.5 -46t-65 -23t-75 -8t-58.5 -1
q-67 0 -102 24.5t-50.5 64.5t-17 90.5t-1.5 101.5q0 55 3.5 104t21.5 85.5t56.5 58t108.5 21.5q10 0 30 -1t44 -4t48.5 -7.5t44.5 -11.5t33 -17t13 -23q0 -18 -8 -29.5t-20 -17.5t-27.5 -8.5t-30.5 -2.5q-32 0 -64.5 3t-64.5 3q-30 0 -43.5 -4.5t-19 -16t-6 -30t-3.5 -45.5z
M116 699q0 21 14.5 36t35.5 15q23 0 41 -16.5t18 -39.5t-16.5 -39.5t-39.5 -16.5t-38 19.5t-15 41.5zM259 699q0 21 14.5 36t35.5 15q23 0 41 -16.5t18 -39.5t-16.5 -39.5t-39.5 -16.5t-38 19.5t-15 41.5z" />
    <glyph glyph-name="Igrave" unicode="&#xcc;" horiz-adv-x="171" 
d="M1 895q0 20 16 34.5t36 14.5q22 0 43 -21.5t37.5 -51.5t26.5 -61t10 -49q0 -19 -12 -31t-32 -12t-41.5 21t-40.5 50t-31 58.5t-12 47.5zM142 122q0 -16 1 -37t-3 -40t-15.5 -32t-35.5 -13q-28 0 -46 24q-6 7 -9.5 38.5t-6 75.5t-3.5 95.5t-1 99v85.5v55q0 16 -1.5 39.5
t1.5 45.5t14.5 37t37.5 15q5 0 13 -2q16 -3 26.5 -24.5t16 -53t7.5 -68.5t2.5 -71.5t0 -61t-0.5 -37.5q1 -43 1.5 -85t0.5 -85z" />
    <glyph glyph-name="Iacute" unicode="&#xcd;" horiz-adv-x="171" 
d="M142 122q0 -16 1 -37t-3 -40t-15.5 -32t-35.5 -13q-28 0 -46 24q-6 7 -9.5 38.5t-6 75.5t-3.5 95.5t-1 99v85.5v55q0 16 -1.5 39.5t1.5 45.5t14.5 37t37.5 15q5 0 13 -2q16 -3 26.5 -24.5t16 -53t7.5 -68.5t2.5 -71.5t0 -61t-0.5 -37.5q1 -43 1.5 -85t0.5 -85zM105 955
q10 0 20 -4t18 -11t13 -16.5t5 -19.5q0 -4 -8 -20.5t-18.5 -35.5t-20 -36.5t-12.5 -23.5q-5 -11 -10.5 -23t-12.5 -22t-16.5 -16.5t-22.5 -7.5h-9q-24 0 -38 12.5t-14 37.5q0 17 12 48.5t30.5 62t41 53t42.5 22.5z" />
    <glyph glyph-name="Icircumflex" unicode="&#xce;" horiz-adv-x="171" 
d="M142 122q0 -16 1 -37t-3 -40t-15.5 -32t-35.5 -13q-28 0 -46 24q-6 7 -9.5 38.5t-6 75.5t-3.5 95.5t-1 99v85.5v55q0 16 -1.5 39.5t1.5 45.5t14.5 37t37.5 15q5 0 13 -2q16 -3 26.5 -24.5t16 -53t7.5 -68.5t2.5 -71.5t0 -61t-0.5 -37.5q1 -43 1.5 -85t0.5 -85zM99 948
q22 0 44.5 -22.5t40.5 -53.5t29 -63.5t11 -51.5q0 -15 -9.5 -29.5t-26.5 -14.5t-30.5 11t-25 26.5t-20 32.5l-14.5 29q-9 -17 -18.5 -34t-22 -31t-28.5 -23t-37 -9t-31.5 12t-10.5 32q0 16 17 47.5t40.5 63t49 55t42.5 23.5z" />
    <glyph glyph-name="Idieresis" unicode="&#xcf;" horiz-adv-x="171" 
d="M142 122q0 -16 1 -37t-3 -40t-15.5 -32t-35.5 -13q-28 0 -46 24q-6 7 -9.5 38.5t-6 75.5t-3.5 95.5t-1 99v85.5v55q0 16 -1.5 39.5t1.5 45.5t14.5 37t37.5 15q5 0 13 -2q16 -3 26.5 -24.5t16 -53t7.5 -68.5t2.5 -71.5t0 -61t-0.5 -37.5q1 -43 1.5 -85t0.5 -85zM-32 797
q0 21 14.5 36t35.5 15q23 0 41 -16.5t18 -39.5t-16.5 -39.5t-39.5 -16.5t-38 19.5t-15 41.5zM111 797q0 21 14.5 36t35.5 15q23 0 41 -16.5t18 -39.5t-16.5 -39.5t-39.5 -16.5t-38 19.5t-15 41.5z" />
    <glyph glyph-name="Eth" unicode="&#xd0;" horiz-adv-x="486" 
d="M23 401q0 20 -0.5 56.5t4.5 72.5t20.5 62.5t48.5 26.5q14 0 23.5 -6t16.5 -15.5t11.5 -21t9.5 -22.5q24 34 61 55t79 21t73.5 -18t53 -47.5t32 -66t10.5 -73.5q0 -36 -6 -77t-23 -73q-9 -18 -32 -47t-53 -62t-65 -66t-69 -60t-64 -44t-50 -17q-24 0 -40 16t-16 40
q0 15 5.5 28.5t5.5 27.5q0 9 -5 33t-11.5 54t-12 61.5t-6.5 56.5q-23 1 -37 16.5t-14 38.5q0 26 14 35.5t36 14.5zM205 299l-9 -114q28 19 55.5 44.5t49 55.5t34.5 64.5t13 70.5q0 10 -2.5 25t-8.5 29.5t-15 25t-22 10.5q-16 0 -28.5 -11t-22 -26t-16 -32t-9.5 -29
q15 -1 29.5 -3.5t26 -9t18.5 -18t7 -30.5q0 -20 -10.5 -30.5t-25.5 -15t-32.5 -5.5t-31.5 -1z" />
    <glyph glyph-name="Ntilde" unicode="&#xd1;" horiz-adv-x="509" 
d="M32 361q0 12 -0.5 33.5t0 46t3.5 50.5t10 46.5t19.5 34t31.5 13.5q20 0 31.5 -12.5t17 -31.5t7 -43t0.5 -47t-3 -42.5t-2 -30.5q16 27 37.5 60t48 61t58.5 47t69 19q35 0 57 -16.5t34.5 -43.5t17 -60.5t5 -67.5t-1 -65t-1.5 -52q0 -65 3.5 -129.5t3.5 -128.5
q0 -22 -15 -34t-35 -12q-28 0 -45 18t-26 46.5t-12 63.5t-2.5 69.5t2.5 64.5t2 48q0 42 -1 84.5t-3 84.5l-2 1q-8 0 -22 -15.5t-28 -35.5t-26 -39t-16 -26q-29 -53 -49 -109.5t-28 -116.5q-2 -13 -4.5 -29.5t-8 -31.5t-16 -25t-27.5 -10t-35.5 14t-26.5 28q-5 9 -8 33
t-5.5 55.5t-4 67t-2.5 68.5t-1.5 59t-0.5 38zM323 778q6 0 9 3.5t3.5 9t0.5 11v9.5q0 20 12 36.5t35 16.5q29 0 42.5 -21.5t13.5 -47.5q0 -23 -7 -45.5t-20.5 -39.5t-33 -27.5t-44.5 -10.5q-33 0 -55.5 12t-40.5 27t-33 27t-32 12q-5 0 -7.5 -4t-3 -9.5t0 -11t0.5 -8.5
q0 -20 -13 -36t-34 -16q-31 0 -44 20.5t-13 47.5q0 23 7 45.5t20 40t32.5 28t45.5 10.5q33 0 56 -12.5t40.5 -27t32 -27t30.5 -12.5z" />
    <glyph glyph-name="Ograve" unicode="&#xd2;" horiz-adv-x="689" 
d="M25 230q0 37 10.5 84.5t30.5 96t47.5 95t62 82.5t74 58t83.5 22q17 0 37 -7t40 -16.5t39 -20.5t35 -18q81 -39 128 -100t47 -153q0 -80 -30 -155t-82.5 -132.5t-124 -92t-154.5 -34.5q-63 0 -108.5 24.5t-75.5 65t-44.5 93t-14.5 108.5zM255 505q-23 -29 -42.5 -63
t-33.5 -71t-22 -75.5t-8 -75.5q0 -30 7.5 -59t23.5 -51.5t40.5 -36.5t59.5 -14q47 0 93.5 26t83.5 66t60 89t23 95q0 44 -12 73.5t-33 48t-49.5 28t-60 13.5t-65 5t-65.5 2zM229 903q0 20 16 34.5t36 14.5q22 0 43 -21.5t37.5 -51.5t26.5 -61t10 -49q0 -19 -12 -31t-32 -12
t-41.5 21t-40.5 50t-31 58.5t-12 47.5z" />
    <glyph glyph-name="Oacute" unicode="&#xd3;" horiz-adv-x="689" 
d="M25 230q0 37 10.5 84.5t30.5 96t47.5 95t62 82.5t74 58t83.5 22q17 0 37 -7t40 -16.5t39 -20.5t35 -18q81 -39 128 -100t47 -153q0 -80 -30 -155t-82.5 -132.5t-124 -92t-154.5 -34.5q-63 0 -108.5 24.5t-75.5 65t-44.5 93t-14.5 108.5zM255 505q-23 -29 -42.5 -63
t-33.5 -71t-22 -75.5t-8 -75.5q0 -30 7.5 -59t23.5 -51.5t40.5 -36.5t59.5 -14q47 0 93.5 26t83.5 66t60 89t23 95q0 44 -12 73.5t-33 48t-49.5 28t-60 13.5t-65 5t-65.5 2zM364 955q10 0 20 -4t18 -11t13 -16.5t5 -19.5q0 -4 -8 -20.5t-18.5 -35.5t-20 -36.5t-12.5 -23.5
q-5 -11 -10.5 -23t-12.5 -22t-16.5 -16.5t-22.5 -7.5h-9q-24 0 -38 12.5t-14 37.5q0 17 12 48.5t30.5 62t41 53t42.5 22.5z" />
    <glyph glyph-name="Ocircumflex" unicode="&#xd4;" horiz-adv-x="689" 
d="M25 230q0 37 10.5 84.5t30.5 96t47.5 95t62 82.5t74 58t83.5 22q17 0 37 -7t40 -16.5t39 -20.5t35 -18q81 -39 128 -100t47 -153q0 -80 -30 -155t-82.5 -132.5t-124 -92t-154.5 -34.5q-63 0 -108.5 24.5t-75.5 65t-44.5 93t-14.5 108.5zM255 505q-23 -29 -42.5 -63
t-33.5 -71t-22 -75.5t-8 -75.5q0 -30 7.5 -59t23.5 -51.5t40.5 -36.5t59.5 -14q47 0 93.5 26t83.5 66t60 89t23 95q0 44 -12 73.5t-33 48t-49.5 28t-60 13.5t-65 5t-65.5 2zM354 940q22 0 44.5 -22.5t40.5 -53.5t29 -63.5t11 -51.5q0 -15 -9.5 -29.5t-26.5 -14.5t-30.5 11
t-25 26.5t-20 32.5l-14.5 29q-9 -17 -18.5 -34t-22 -31t-28.5 -23t-37 -9t-31.5 12t-10.5 32q0 16 17 47.5t40.5 63t49 55t42.5 23.5z" />
    <glyph glyph-name="Otilde" unicode="&#xd5;" horiz-adv-x="689" 
d="M25 230q0 37 10.5 84.5t30.5 96t47.5 95t62 82.5t74 58t83.5 22q17 0 37 -7t40 -16.5t39 -20.5t35 -18q81 -39 128 -100t47 -153q0 -80 -30 -155t-82.5 -132.5t-124 -92t-154.5 -34.5q-63 0 -108.5 24.5t-75.5 65t-44.5 93t-14.5 108.5zM255 505q-23 -29 -42.5 -63
t-33.5 -71t-22 -75.5t-8 -75.5q0 -30 7.5 -59t23.5 -51.5t40.5 -36.5t59.5 -14q47 0 93.5 26t83.5 66t60 89t23 95q0 44 -12 73.5t-33 48t-49.5 28t-60 13.5t-65 5t-65.5 2zM429 852q7 0 10.5 4t4.5 10t0.5 12.5t-0.5 11.5q0 24 14 43t40 19q34 0 49.5 -25.5t15.5 -55.5
q0 -27 -8 -52.5t-23.5 -46t-38 -33t-51.5 -12.5q-37 0 -64 14.5t-47.5 31.5t-37 31.5t-32.5 14.5q-8 0 -12 -4t-5 -10t-0.5 -12.5t0.5 -11.5q0 -24 -14 -43t-40 -19q-35 0 -50 25t-15 55q0 27 7.5 53t22.5 46.5t37.5 33t52.5 12.5q38 0 65 -14.5t47 -31.5t37 -31.5t35 -14.5
z" />
    <glyph glyph-name="Odieresis" unicode="&#xd6;" horiz-adv-x="689" 
d="M25 230q0 37 10.5 84.5t30.5 96t47.5 95t62 82.5t74 58t83.5 22q17 0 37 -7t40 -16.5t39 -20.5t35 -18q81 -39 128 -100t47 -153q0 -80 -30 -155t-82.5 -132.5t-124 -92t-154.5 -34.5q-63 0 -108.5 24.5t-75.5 65t-44.5 93t-14.5 108.5zM255 505q-23 -29 -42.5 -63
t-33.5 -71t-22 -75.5t-8 -75.5q0 -30 7.5 -59t23.5 -51.5t40.5 -36.5t59.5 -14q47 0 93.5 26t83.5 66t60 89t23 95q0 44 -12 73.5t-33 48t-49.5 28t-60 13.5t-65 5t-65.5 2zM206 806q0 21 14.5 36t35.5 15q23 0 41 -16.5t18 -39.5t-16.5 -39.5t-39.5 -16.5t-38 19.5
t-15 41.5zM349 806q0 21 14.5 36t35.5 15q23 0 41 -16.5t18 -39.5t-16.5 -39.5t-39.5 -16.5t-38 19.5t-15 41.5z" />
    <glyph glyph-name="multiply" unicode="&#xd7;" horiz-adv-x="312" 
d="M230 391q22 0 37.5 -16t15.5 -38q0 -9 -6.5 -22t-15.5 -26t-18.5 -25t-15.5 -19q7 -8 15 -18t15 -21.5t12 -23t5 -22.5q0 -17 -15 -31.5t-32 -14.5q-19 0 -39.5 15t-33.5 28q-13 -13 -32.5 -28t-39.5 -15q-17 0 -32 14.5t-15 31.5q0 11 5 22.5t12 23t15 21.5t14 18
q-6 7 -15 19t-18 25t-15.5 26t-6.5 22q0 22 15.5 38t37.5 16q11 0 22 -6t21 -15t18 -19.5t14 -18.5q6 8 14.5 18.5t18 19.5t20.5 15t23 6z" />
    <glyph glyph-name="Oslash" unicode="&#xd8;" horiz-adv-x="689" 
d="M146 -28l-16 -24t-25 -12q-28 0 -28 27q0 14 7 25t15 22q-41 45 -57.5 103t-16.5 117q0 37 10.5 84.5t30.5 96t48 95t62 82.5t74 58t83 22q16 0 40.5 -9t51 -21.5t50 -26t38.5 -21.5q4 5 10.5 13t14.5 15.5t16 12.5t16 5q9 0 18 -9t9 -19q0 -14 -13.5 -27.5t-21.5 -24.5
q52 -44 74.5 -89.5t22.5 -113.5q0 -80 -30 -155t-82.5 -132.5t-124 -92t-154.5 -34.5q-35 0 -64 7.5t-58 25.5zM540 335q0 35 -12.5 67.5t-38.5 56.5q-138 -191 -270 -384q30 -16 61 -16q48 0 94.5 26t83 66t59.5 89t23 95zM173 118q66 94 131 186.5t133 185.5
q-43 12 -90 12.5t-92 2.5q-23 -29 -42.5 -63t-33.5 -71t-22 -75.5t-8 -75.5q0 -26 5 -52.5t19 -49.5z" />
    <glyph glyph-name="Ugrave" unicode="&#xd9;" horiz-adv-x="567" 
d="M517 309q0 -38 4 -75.5t9 -75t9 -74.5t4 -74q0 -26 -15.5 -40.5t-40.5 -14.5q-30 0 -45.5 23t-23 54.5t-10.5 64.5t-7 53q-24 -9 -41 -23t-35 -27.5t-42 -23.5t-63 -10q-55 0 -90.5 28t-56 70t-28.5 92t-8 94q0 17 2 45.5t7 61.5t13 66t21 60t30.5 44t40.5 17
q17 0 31.5 -14.5t14.5 -31.5q0 -15 -6.5 -32.5t-11.5 -31.5q-14 -38 -20.5 -88t-6.5 -90q0 -15 2 -44t9 -57.5t21 -50t37 -21.5q11 0 25.5 8.5t28 20t25 24.5t17.5 22q12 19 24 47t21.5 58.5t17 60t12.5 52.5q3 16 7 41.5t12 50.5t21.5 43t36.5 18q21 0 33 -5t17.5 -14.5
t7 -24t1.5 -33.5q0 -61 -5.5 -121.5t-5.5 -121.5zM201 882q0 20 16 34.5t36 14.5q22 0 43 -21.5t37.5 -51.5t26.5 -61t10 -49q0 -19 -12 -31t-32 -12t-41.5 21t-40.5 50t-31 58.5t-12 47.5z" />
    <glyph glyph-name="Uacute" unicode="&#xda;" horiz-adv-x="567" 
d="M517 309q0 -38 4 -75.5t9 -75t9 -74.5t4 -74q0 -26 -15.5 -40.5t-40.5 -14.5q-30 0 -45.5 23t-23 54.5t-10.5 64.5t-7 53q-24 -9 -41 -23t-35 -27.5t-42 -23.5t-63 -10q-55 0 -90.5 28t-56 70t-28.5 92t-8 94q0 17 2 45.5t7 61.5t13 66t21 60t30.5 44t40.5 17
q17 0 31.5 -14.5t14.5 -31.5q0 -15 -6.5 -32.5t-11.5 -31.5q-14 -38 -20.5 -88t-6.5 -90q0 -15 2 -44t9 -57.5t21 -50t37 -21.5q11 0 25.5 8.5t28 20t25 24.5t17.5 22q12 19 24 47t21.5 58.5t17 60t12.5 52.5q3 16 7 41.5t12 50.5t21.5 43t36.5 18q21 0 33 -5t17.5 -14.5
t7 -24t1.5 -33.5q0 -61 -5.5 -121.5t-5.5 -121.5zM303 955q10 0 20 -4t18 -11t13 -16.5t5 -19.5q0 -4 -8 -20.5t-18.5 -35.5t-20 -36.5t-12.5 -23.5q-5 -11 -10.5 -23t-12.5 -22t-16.5 -16.5t-22.5 -7.5h-9q-24 0 -38 12.5t-14 37.5q0 17 12 48.5t30.5 62t41 53t42.5 22.5z
" />
    <glyph glyph-name="Ucircumflex" unicode="&#xdb;" horiz-adv-x="567" 
d="M517 309q0 -38 4 -75.5t9 -75t9 -74.5t4 -74q0 -26 -15.5 -40.5t-40.5 -14.5q-30 0 -45.5 23t-23 54.5t-10.5 64.5t-7 53q-24 -9 -41 -23t-35 -27.5t-42 -23.5t-63 -10q-55 0 -90.5 28t-56 70t-28.5 92t-8 94q0 17 2 45.5t7 61.5t13 66t21 60t30.5 44t40.5 17
q17 0 31.5 -14.5t14.5 -31.5q0 -15 -6.5 -32.5t-11.5 -31.5q-14 -38 -20.5 -88t-6.5 -90q0 -15 2 -44t9 -57.5t21 -50t37 -21.5q11 0 25.5 8.5t28 20t25 24.5t17.5 22q12 19 24 47t21.5 58.5t17 60t12.5 52.5q3 16 7 41.5t12 50.5t21.5 43t36.5 18q21 0 33 -5t17.5 -14.5
t7 -24t1.5 -33.5q0 -61 -5.5 -121.5t-5.5 -121.5zM299 948q22 0 44.5 -22.5t40.5 -53.5t29 -63.5t11 -51.5q0 -15 -9.5 -29.5t-26.5 -14.5t-30.5 11t-25 26.5t-20 32.5l-14.5 29q-9 -17 -18.5 -34t-22 -31t-28.5 -23t-37 -9t-31.5 12t-10.5 32q0 16 17 47.5t40.5 63t49 55
t42.5 23.5z" />
    <glyph glyph-name="Udieresis" unicode="&#xdc;" horiz-adv-x="567" 
d="M517 309q0 -38 4 -75.5t9 -75t9 -74.5t4 -74q0 -26 -15.5 -40.5t-40.5 -14.5q-30 0 -45.5 23t-23 54.5t-10.5 64.5t-7 53q-24 -9 -41 -23t-35 -27.5t-42 -23.5t-63 -10q-55 0 -90.5 28t-56 70t-28.5 92t-8 94q0 17 2 45.5t7 61.5t13 66t21 60t30.5 44t40.5 17
q17 0 31.5 -14.5t14.5 -31.5q0 -15 -6.5 -32.5t-11.5 -31.5q-14 -38 -20.5 -88t-6.5 -90q0 -15 2 -44t9 -57.5t21 -50t37 -21.5q11 0 25.5 8.5t28 20t25 24.5t17.5 22q12 19 24 47t21.5 58.5t17 60t12.5 52.5q3 16 7 41.5t12 50.5t21.5 43t36.5 18q21 0 33 -5t17.5 -14.5
t7 -24t1.5 -33.5q0 -61 -5.5 -121.5t-5.5 -121.5zM206 804q0 21 14.5 36t35.5 15q23 0 41 -16.5t18 -39.5t-16.5 -39.5t-39.5 -16.5t-38 19.5t-15 41.5zM349 804q0 21 14.5 36t35.5 15q23 0 41 -16.5t18 -39.5t-16.5 -39.5t-39.5 -16.5t-38 19.5t-15 41.5z" />
    <glyph glyph-name="Yacute" unicode="&#xdd;" horiz-adv-x="494" 
d="M409 626q23 0 40.5 -17t17.5 -40q0 -7 -12 -33.5t-30.5 -63.5t-41 -78.5t-43 -77.5t-37 -62t-22.5 -31q-8 -6 -10.5 -30t-2.5 -52.5t1.5 -55t1.5 -38.5q0 -14 -1.5 -28t-6.5 -24.5t-15.5 -17t-28.5 -6.5q-27 0 -39.5 17t-17 40.5t-4.5 49.5v44v40t-2 37t-7.5 35.5
t-16.5 36.5q-6 11 -16 35t-21 55.5t-22 65.5t-20 65.5t-14.5 55.5t-5.5 35q0 18 13.5 33.5t31.5 15.5q20 0 36 -15t28 -39t22 -54t19.5 -59t19 -55t21.5 -41q7 10 19.5 31t28 47.5t32 55t31.5 52.5t26 40.5t16 20.5q13 10 32 10zM310 922q10 0 20 -4t18 -11t13 -16.5
t5 -19.5q0 -4 -8 -20.5t-18.5 -35.5t-20 -36.5t-12.5 -23.5q-5 -11 -10.5 -23t-12.5 -22t-16.5 -16.5t-22.5 -7.5h-9q-24 0 -38 12.5t-14 37.5q0 17 12 48.5t30.5 62t41 53t42.5 22.5z" />
    <glyph glyph-name="agrave" unicode="&#xe0;" horiz-adv-x="476" 
d="M143 -11q-28 0 -50 12t-37.5 31.5t-23.5 44.5t-8 50l1 33q3 40 24 89.5t54.5 93.5t76 74t86.5 30q25 0 43 -10t27 -10q8 0 20.5 9.5t34.5 9.5q31 0 43.5 -22t15.5 -52t0 -61.5t-3 -50.5v-61q0 -18 1.5 -40.5t-2 -42t-14.5 -33t-36 -13.5q-8 0 -17.5 3t-17.5 8.5
t-13.5 13.5t-5.5 17q0 2 -2 2q-6 0 -23 -19.5t-43 -43t-59.5 -43t-71.5 -19.5zM139 136q0 -6 2 -15.5t11 -9.5q23 15 45 36.5t39 46.5t27.5 53.5t10.5 57.5q0 2 -0.5 7t-1.5 10t-3 8.5t-6 3.5q-19 0 -41 -24t-40.5 -56.5t-30.5 -66t-12 -51.5zM159 703q0 20 16 34.5t36 14.5
q22 0 43 -21.5t37.5 -51.5t26.5 -61t10 -49q0 -19 -12 -31t-32 -12t-41.5 21t-40.5 50t-31 58.5t-12 47.5z" />
    <glyph glyph-name="aacute" unicode="&#xe1;" horiz-adv-x="476" 
d="M143 -11q-28 0 -50 12t-37.5 31.5t-23.5 44.5t-8 50l1 33q3 40 24 89.5t54.5 93.5t76 74t86.5 30q25 0 43 -10t27 -10q8 0 20.5 9.5t34.5 9.5q31 0 43.5 -22t15.5 -52t0 -61.5t-3 -50.5v-61q0 -18 1.5 -40.5t-2 -42t-14.5 -33t-36 -13.5q-8 0 -17.5 3t-17.5 8.5
t-13.5 13.5t-5.5 17q0 2 -2 2q-6 0 -23 -19.5t-43 -43t-59.5 -43t-71.5 -19.5zM139 136q0 -6 2 -15.5t11 -9.5q23 15 45 36.5t39 46.5t27.5 53.5t10.5 57.5q0 2 -0.5 7t-1.5 10t-3 8.5t-6 3.5q-19 0 -41 -24t-40.5 -56.5t-30.5 -66t-12 -51.5zM305 755q10 0 20 -4t18 -11
t13 -16.5t5 -19.5q0 -4 -8 -20.5t-18.5 -35.5t-20 -36.5t-12.5 -23.5q-5 -11 -10.5 -23t-12.5 -22t-16.5 -16.5t-22.5 -7.5h-9q-24 0 -38 12.5t-14 37.5q0 17 12 48.5t30.5 62t41 53t42.5 22.5z" />
    <glyph glyph-name="acircumflex" unicode="&#xe2;" horiz-adv-x="476" 
d="M143 -11q-28 0 -50 12t-37.5 31.5t-23.5 44.5t-8 50l1 33q3 40 24 89.5t54.5 93.5t76 74t86.5 30q25 0 43 -10t27 -10q8 0 20.5 9.5t34.5 9.5q31 0 43.5 -22t15.5 -52t0 -61.5t-3 -50.5v-61q0 -18 1.5 -40.5t-2 -42t-14.5 -33t-36 -13.5q-8 0 -17.5 3t-17.5 8.5
t-13.5 13.5t-5.5 17q0 2 -2 2q-6 0 -23 -19.5t-43 -43t-59.5 -43t-71.5 -19.5zM139 136q0 -6 2 -15.5t11 -9.5q23 15 45 36.5t39 46.5t27.5 53.5t10.5 57.5q0 2 -0.5 7t-1.5 10t-3 8.5t-6 3.5q-19 0 -41 -24t-40.5 -56.5t-30.5 -66t-12 -51.5zM267 740q22 0 44.5 -22.5
t40.5 -53.5t29 -63.5t11 -51.5q0 -15 -9.5 -29.5t-26.5 -14.5t-30.5 11t-25 26.5t-20 32.5l-14.5 29q-9 -17 -18.5 -34t-22 -31t-28.5 -23t-37 -9t-31.5 12t-10.5 32q0 16 17 47.5t40.5 63t49 55t42.5 23.5z" />
    <glyph glyph-name="atilde" unicode="&#xe3;" horiz-adv-x="476" 
d="M143 -11q-28 0 -50 12t-37.5 31.5t-23.5 44.5t-8 50l1 33q3 40 24 89.5t54.5 93.5t76 74t86.5 30q25 0 43 -10t27 -10q8 0 20.5 9.5t34.5 9.5q31 0 43.5 -22t15.5 -52t0 -61.5t-3 -50.5v-61q0 -18 1.5 -40.5t-2 -42t-14.5 -33t-36 -13.5q-8 0 -17.5 3t-17.5 8.5
t-13.5 13.5t-5.5 17q0 2 -2 2q-6 0 -23 -19.5t-43 -43t-59.5 -43t-71.5 -19.5zM139 136q0 -6 2 -15.5t11 -9.5q23 15 45 36.5t39 46.5t27.5 53.5t10.5 57.5q0 2 -0.5 7t-1.5 10t-3 8.5t-6 3.5q-19 0 -41 -24t-40.5 -56.5t-30.5 -66t-12 -51.5zM339 634q13 0 13.5 12.5
t0.5 20.5q0 21 12 38t35 17q31 0 44 -22.5t13 -48.5q0 -23 -7 -46t-21 -41t-34 -29t-45 -11q-32 0 -55.5 12.5t-41.5 28t-32.5 28t-28.5 12.5t-14.5 -12t-0.5 -22q0 -21 -12 -38t-35 -17q-31 0 -44 22.5t-13 49.5q0 23 6.5 46t20 41t33 29t45.5 11q34 0 57 -12.5t41 -28
t32.5 -28t30.5 -12.5z" />
    <glyph glyph-name="adieresis" unicode="&#xe4;" horiz-adv-x="476" 
d="M143 -11q-28 0 -50 12t-37.5 31.5t-23.5 44.5t-8 50l1 33q3 40 24 89.5t54.5 93.5t76 74t86.5 30q25 0 43 -10t27 -10q8 0 20.5 9.5t34.5 9.5q31 0 43.5 -22t15.5 -52t0 -61.5t-3 -50.5v-61q0 -18 1.5 -40.5t-2 -42t-14.5 -33t-36 -13.5q-8 0 -17.5 3t-17.5 8.5
t-13.5 13.5t-5.5 17q0 2 -2 2q-6 0 -23 -19.5t-43 -43t-59.5 -43t-71.5 -19.5zM139 136q0 -6 2 -15.5t11 -9.5q23 15 45 36.5t39 46.5t27.5 53.5t10.5 57.5q0 2 -0.5 7t-1.5 10t-3 8.5t-6 3.5q-19 0 -41 -24t-40.5 -56.5t-30.5 -66t-12 -51.5zM160 623q0 21 14.5 36t35.5 15
q23 0 41 -16.5t18 -39.5t-16.5 -39.5t-39.5 -16.5t-38 19.5t-15 41.5zM303 623q0 21 14.5 36t35.5 15q23 0 41 -16.5t18 -39.5t-16.5 -39.5t-39.5 -16.5t-38 19.5t-15 41.5z" />
    <glyph glyph-name="aring" unicode="&#xe5;" horiz-adv-x="476" 
d="M143 -11q-28 0 -50 12t-37.5 31.5t-23.5 44.5t-8 50l1 33q3 40 24 89.5t54.5 93.5t76 74t86.5 30q25 0 43 -10t27 -10q8 0 20.5 9.5t34.5 9.5q31 0 43.5 -22t15.5 -52t0 -61.5t-3 -50.5v-61q0 -18 1.5 -40.5t-2 -42t-14.5 -33t-36 -13.5q-8 0 -17.5 3t-17.5 8.5
t-13.5 13.5t-5.5 17q0 2 -2 2q-6 0 -23 -19.5t-43 -43t-59.5 -43t-71.5 -19.5zM139 136q0 -6 2 -15.5t11 -9.5q23 15 45 36.5t39 46.5t27.5 53.5t10.5 57.5q0 2 -0.5 7t-1.5 10t-3 8.5t-6 3.5q-19 0 -41 -24t-40.5 -56.5t-30.5 -66t-12 -51.5zM311 604q10 0 17 7.5t7 16.5
q0 11 -8 18t-18 7q-2 0 -7 -2t-7 -3q-8 -6 -8 -17q0 -10 6.5 -18.5t17.5 -8.5zM227 638q0 34 22 56t55 22q18 0 34 -7t28.5 -18.5t20 -27.5t7.5 -34q0 -17 -7 -32.5t-18.5 -27t-27 -18.5t-32.5 -7q-18 0 -33 8.5t-26 22t-17 30t-6 33.5z" />
    <glyph glyph-name="ae" unicode="&#xe6;" horiz-adv-x="762" 
d="M339 114q-5 0 -22 -19.5t-43 -43t-59.5 -43t-71.5 -19.5q-28 0 -50 12t-37.5 31.5t-23.5 44.5t-8 50l1 33q2 27 12 58.5t27 63.5t39.5 61.5t49 52.5t55.5 37t58 14q24 0 42.5 -10t27.5 -10q8 0 21 9.5t34 9.5q13 0 25 -4t20 -15q20 11 42.5 17.5t45.5 6.5q27 0 50 -8.5
t40.5 -24.5t27 -38.5t9.5 -50.5q0 -38 -9 -66.5t-26 -51.5t-40.5 -42.5t-52.5 -39.5h28q18 0 37 7.5t38 17t36.5 17t32.5 7.5q9 0 18.5 -5.5t17.5 -14t13.5 -18t5.5 -18.5q0 -30 -28.5 -52t-67.5 -36.5t-79 -21.5t-62 -7q-19 0 -48 8.5t-56.5 23t-47 34t-19.5 41.5q0 2 -3 2
zM139 136q0 -6 2 -15.5t11 -9.5q23 15 45 36.5t39 46.5t27.5 53.5t10.5 57.5q0 2 -0.5 7t-1.5 10t-3 8.5t-6 3.5q-19 0 -41 -24t-40.5 -56.5t-30.5 -66t-12 -51.5zM450 262q0 -11 7.5 -16.5t17.5 -5.5q14 0 24.5 7.5t18 19t11.5 25t4 25.5q0 5 -0.5 12t-7.5 7q-9 0 -22 -8.5
t-24.5 -20t-20 -24t-8.5 -21.5z" />
    <glyph glyph-name="ccedilla" unicode="&#xe7;" horiz-adv-x="348" 
d="M200 343q-15 -7 -27 -22.5t-20.5 -35t-12.5 -39.5t-4 -36q0 -14 3.5 -30t11 -30t19.5 -23.5t29 -9.5q10 0 25 9t35 9q23 0 41.5 -15t18.5 -39q0 -23 -16 -39.5t-35 -26.5q8 -13 11 -31.5t3 -32.5q0 -29 -12.5 -51.5t-32.5 -38t-45.5 -23.5t-52.5 -8q-30 0 -55.5 15
t-25.5 49q0 17 7 28t18 17t24.5 8t27.5 2q8 0 15.5 3t7.5 12q0 8 -8 21.5t-13 21.5q-30 12 -52 33.5t-36.5 48.5t-22 57.5t-7.5 61.5q0 37 13 81.5t37.5 83.5t59 65t77.5 26q28 0 50 -14.5t37 -37t22.5 -49.5t7.5 -52q0 -29 -13 -47.5t-44 -18.5q-26 0 -36 15.5t-14 33.5
t-5.5 33.5t-10.5 15.5z" />
    <glyph glyph-name="egrave" unicode="&#xe8;" horiz-adv-x="468" 
d="M24 210q0 44 13 87t38.5 77.5t63 55.5t86.5 21q54 0 90 -33t36 -89q0 -38 -9 -66.5t-26 -51.5t-40.5 -42.5t-52.5 -39.5h28q18 0 37.5 7.5t38 17t36 17t32.5 7.5q9 0 18.5 -5.5t17.5 -14t13.5 -18t5.5 -18.5q0 -30 -28.5 -52t-67.5 -36.5t-79 -21.5t-62 -7q-44 0 -79 16
t-59.5 43.5t-37.5 65t-13 80.5zM150 262q0 -11 7.5 -16.5t17.5 -5.5q14 0 24.5 7.5t18 19t11.5 25t4 25.5q0 5 -0.5 12t-7.5 7q-9 0 -22 -8.5t-24.5 -20t-20 -24t-8.5 -21.5zM118 703q0 20 16 34.5t36 14.5q22 0 43 -21.5t37.5 -51.5t26.5 -61t10 -49q0 -19 -12 -31t-32 -12
t-41.5 21t-40.5 50t-31 58.5t-12 47.5z" />
    <glyph glyph-name="eacute" unicode="&#xe9;" horiz-adv-x="468" 
d="M24 210q0 44 13 87t38.5 77.5t63 55.5t86.5 21q54 0 90 -33t36 -89q0 -38 -9 -66.5t-26 -51.5t-40.5 -42.5t-52.5 -39.5h28q18 0 37.5 7.5t38 17t36 17t32.5 7.5q9 0 18.5 -5.5t17.5 -14t13.5 -18t5.5 -18.5q0 -30 -28.5 -52t-67.5 -36.5t-79 -21.5t-62 -7q-44 0 -79 16
t-59.5 43.5t-37.5 65t-13 80.5zM150 262q0 -11 7.5 -16.5t17.5 -5.5q14 0 24.5 7.5t18 19t11.5 25t4 25.5q0 5 -0.5 12t-7.5 7q-9 0 -22 -8.5t-24.5 -20t-20 -24t-8.5 -21.5zM253 755q10 0 20 -4t18 -11t13 -16.5t5 -19.5q0 -4 -8 -20.5t-18.5 -35.5t-20 -36.5t-12.5 -23.5
q-5 -11 -10.5 -23t-12.5 -22t-16.5 -16.5t-22.5 -7.5h-9q-24 0 -38 12.5t-14 37.5q0 17 12 48.5t30.5 62t41 53t42.5 22.5z" />
    <glyph glyph-name="ecircumflex" unicode="&#xea;" horiz-adv-x="468" 
d="M24 210q0 44 13 87t38.5 77.5t63 55.5t86.5 21q54 0 90 -33t36 -89q0 -38 -9 -66.5t-26 -51.5t-40.5 -42.5t-52.5 -39.5h28q18 0 37.5 7.5t38 17t36 17t32.5 7.5q9 0 18.5 -5.5t17.5 -14t13.5 -18t5.5 -18.5q0 -30 -28.5 -52t-67.5 -36.5t-79 -21.5t-62 -7q-44 0 -79 16
t-59.5 43.5t-37.5 65t-13 80.5zM150 262q0 -11 7.5 -16.5t17.5 -5.5q14 0 24.5 7.5t18 19t11.5 25t4 25.5q0 5 -0.5 12t-7.5 7q-9 0 -22 -8.5t-24.5 -20t-20 -24t-8.5 -21.5zM216 739q22 0 44.5 -23t39.5 -54.5t28 -63.5t11 -51q0 -14 -9 -28.5t-25 -14.5q-17 0 -31 10.5
t-25 26t-19.5 32.5l-14.5 29q-8 -16 -17.5 -33t-22 -31t-28 -23t-36.5 -9t-31.5 11.5t-10.5 31.5q0 10 8 28.5t20.5 39.5t28.5 42.5t32.5 39.5t31.5 29t26 11z" />
    <glyph glyph-name="edieresis" unicode="&#xeb;" horiz-adv-x="468" 
d="M24 210q0 44 13 87t38.5 77.5t63 55.5t86.5 21q54 0 90 -33t36 -89q0 -38 -9 -66.5t-26 -51.5t-40.5 -42.5t-52.5 -39.5h28q18 0 37.5 7.5t38 17t36 17t32.5 7.5q9 0 18.5 -5.5t17.5 -14t13.5 -18t5.5 -18.5q0 -30 -28.5 -52t-67.5 -36.5t-79 -21.5t-62 -7q-44 0 -79 16
t-59.5 43.5t-37.5 65t-13 80.5zM150 262q0 -11 7.5 -16.5t17.5 -5.5q14 0 24.5 7.5t18 19t11.5 25t4 25.5q0 5 -0.5 12t-7.5 7q-9 0 -22 -8.5t-24.5 -20t-20 -24t-8.5 -21.5zM80 593q0 21 14.5 36t35.5 15q23 0 41 -16.5t18 -39.5t-16.5 -39.5t-39.5 -16.5t-38 19.5
t-15 41.5zM223 593q0 21 14.5 36t35.5 15q23 0 41 -16.5t18 -39.5t-16.5 -39.5t-39.5 -16.5t-38 19.5t-15 41.5z" />
    <glyph glyph-name="igrave" unicode="&#xec;" horiz-adv-x="245" 
d="M135 127q0 -18 0.5 -40t-4 -41.5t-17 -33t-37.5 -13.5q-23 0 -34.5 15.5t-16 37t-4.5 44.5v38q0 12 -1 34.5t-1 49t2.5 54t9.5 50t19.5 36.5t33.5 14q13 0 22.5 -6.5t16 -16t10 -21.5t3.5 -23zM-9 636q0 20 16 34.5t36 14.5q22 0 43 -21.5t37.5 -51.5t26.5 -61t10 -49
q0 -19 -12 -31t-32 -12t-41.5 21t-40.5 50t-31 58.5t-12 47.5z" />
    <glyph glyph-name="iacute" unicode="&#xed;" horiz-adv-x="245" 
d="M135 127q0 -18 0.5 -40t-4 -41.5t-17 -33t-37.5 -13.5q-23 0 -34.5 15.5t-16 37t-4.5 44.5v38q0 12 -1 34.5t-1 49t2.5 54t9.5 50t19.5 36.5t33.5 14q13 0 22.5 -6.5t16 -16t10 -21.5t3.5 -23zM144 681q10 0 20 -4t18 -11t13 -16.5t5 -19.5q0 -4 -8 -20.5t-18.5 -35.5
t-20 -36.5t-12.5 -23.5q-5 -11 -10.5 -23t-12.5 -22t-16.5 -16.5t-22.5 -7.5h-9q-24 0 -38 12.5t-14 37.5q0 17 12 48.5t30.5 62t41 53t42.5 22.5z" />
    <glyph glyph-name="icircumflex" unicode="&#xee;" horiz-adv-x="245" 
d="M135 127q0 -18 0.5 -40t-4 -41.5t-17 -33t-37.5 -13.5q-23 0 -34.5 15.5t-16 37t-4.5 44.5v38q0 12 -1 34.5t-1 49t2.5 54t9.5 50t19.5 36.5t33.5 14q13 0 22.5 -6.5t16 -16t10 -21.5t3.5 -23zM103 684q21 0 41.5 -21.5t36 -50.5t25.5 -58.5t10 -46.5q0 -16 -9 -28
t-26 -12q-14 0 -26 10.5t-22 25t-18 30t-13 25.5q-7 -15 -15.5 -31t-20 -29t-25.5 -21.5t-33 -8.5q-20 0 -29 11t-9 30q0 14 15 43t36 58.5t44 51.5t38 22z" />
    <glyph glyph-name="idieresis" unicode="&#xef;" horiz-adv-x="245" 
d="M135 127q0 -18 0.5 -40t-4 -41.5t-17 -33t-37.5 -13.5q-23 0 -34.5 15.5t-16 37t-4.5 44.5v38q0 12 -1 34.5t-1 49t2.5 54t9.5 50t19.5 36.5t33.5 14q13 0 22.5 -6.5t16 -16t10 -21.5t3.5 -23zM118 528q0 21 14.5 36t35.5 15q23 0 41 -16.5t18 -39.5t-16.5 -39.5
t-39.5 -16.5t-38 19.5t-15 41.5zM-25 528q0 21 14.5 36t35.5 15q23 0 41 -16.5t18 -39.5t-16.5 -39.5t-39.5 -16.5t-38 19.5t-15 41.5z" />
    <glyph glyph-name="ntilde" unicode="&#xf1;" horiz-adv-x="380" 
d="M359 156q0 -18 1 -44.5t-4 -50.5t-18.5 -41t-42.5 -17q-16 0 -26 12.5t-16 32.5t-9 44t-4 47.5t-0.5 43t0.5 29.5q0 2 -0.5 4t-2.5 2q-12 -14 -22.5 -35t-21.5 -45t-23 -48.5t-26 -44t-31.5 -32t-39.5 -12.5q-20 0 -30.5 10.5t-15.5 26.5t-6 34t-1 32q0 16 -1 47t0 68
t4.5 75.5t12.5 69.5t25.5 51t41.5 20q22 0 34.5 -10.5t18.5 -26t7 -34.5t0 -36q6 12 17.5 28t25.5 30t29.5 24t30.5 10q26 0 43 -14.5t27 -38t15 -53t7 -58.5t1.5 -55.5t-0.5 -44.5zM288 637q6 0 9 4t4 9t1 11v10q0 21 13 38.5t36 17.5q31 0 44.5 -23t13.5 -50
q0 -24 -7 -47.5t-21 -41.5t-34.5 -29.5t-46.5 -11.5q-35 0 -58.5 13t-42 28.5t-34 28.5t-33.5 13q-6 0 -8 -4.5t-3 -10t-0.5 -11.5t0.5 -9q0 -21 -12.5 -38t-35.5 -17q-32 0 -46 22t-14 50q0 24 7 47.5t21 42t34 30t47 11.5q36 0 60 -13t42 -28.5t32.5 -28.5t31.5 -13z" />
    <glyph glyph-name="ograve" unicode="&#xf2;" horiz-adv-x="503" 
d="M14 154q0 50 25 100t64.5 89.5t89.5 64.5t100 25q42 0 76 -13.5t59 -37.5t38.5 -58.5t13.5 -76.5q0 -50 -30 -94.5t-75 -77.5t-98 -52.5t-99 -19.5q-36 0 -66 9.5t-51.5 28.5t-34 47t-12.5 66zM129 150q0 -20 10 -23t26 -3q25 0 58 10t63 27.5t51 41.5t21 53q0 19 -11 29
t-27.5 15t-34.5 6t-31 1q-21 0 -43 -17.5t-40 -42t-30 -51.5t-12 -46zM136 703q0 20 16 34.5t36 14.5q22 0 43 -21.5t37.5 -51.5t26.5 -61t10 -49q0 -19 -12 -31t-32 -12t-41.5 21t-40.5 50t-31 58.5t-12 47.5z" />
    <glyph glyph-name="oacute" unicode="&#xf3;" horiz-adv-x="503" 
d="M14 154q0 50 25 100t64.5 89.5t89.5 64.5t100 25q42 0 76 -13.5t59 -37.5t38.5 -58.5t13.5 -76.5q0 -50 -30 -94.5t-75 -77.5t-98 -52.5t-99 -19.5q-36 0 -66 9.5t-51.5 28.5t-34 47t-12.5 66zM129 150q0 -20 10 -23t26 -3q25 0 58 10t63 27.5t51 41.5t21 53q0 19 -11 29
t-27.5 15t-34.5 6t-31 1q-21 0 -43 -17.5t-40 -42t-30 -51.5t-12 -46zM271 755q10 0 20 -4t18 -11t13 -16.5t5 -19.5q0 -4 -8 -20.5t-18.5 -35.5t-20 -36.5t-12.5 -23.5q-5 -11 -10.5 -23t-12.5 -22t-16.5 -16.5t-22.5 -7.5h-9q-24 0 -38 12.5t-14 37.5q0 17 12 48.5
t30.5 62t41 53t42.5 22.5z" />
    <glyph glyph-name="ocircumflex" unicode="&#xf4;" horiz-adv-x="503" 
d="M14 154q0 50 25 100t64.5 89.5t89.5 64.5t100 25q42 0 76 -13.5t59 -37.5t38.5 -58.5t13.5 -76.5q0 -50 -30 -94.5t-75 -77.5t-98 -52.5t-99 -19.5q-36 0 -66 9.5t-51.5 28.5t-34 47t-12.5 66zM129 150q0 -20 10 -23t26 -3q25 0 58 10t63 27.5t51 41.5t21 53q0 19 -11 29
t-27.5 15t-34.5 6t-31 1q-21 0 -43 -17.5t-40 -42t-30 -51.5t-12 -46zM266 749q22 0 44.5 -22.5t40.5 -53.5t29 -63.5t11 -51.5q0 -15 -9.5 -29.5t-26.5 -14.5t-30.5 11t-25 26.5t-20 32.5l-14.5 29q-9 -17 -18.5 -34t-22 -31t-28.5 -23t-37 -9t-31.5 12t-10.5 32
q0 16 17 47.5t40.5 63t49 55t42.5 23.5z" />
    <glyph glyph-name="otilde" unicode="&#xf5;" horiz-adv-x="503" 
d="M14 154q0 50 25 100t64.5 89.5t89.5 64.5t100 25q42 0 76 -13.5t59 -37.5t38.5 -58.5t13.5 -76.5q0 -50 -30 -94.5t-75 -77.5t-98 -52.5t-99 -19.5q-36 0 -66 9.5t-51.5 28.5t-34 47t-12.5 66zM129 150q0 -20 10 -23t26 -3q25 0 58 10t63 27.5t51 41.5t21 53q0 19 -11 29
t-27.5 15t-34.5 6t-31 1q-21 0 -43 -17.5t-40 -42t-30 -51.5t-12 -46zM355 621q12 0 12.5 11t0.5 19q0 21 12.5 35.5t34.5 14.5q29 0 42.5 -19.5t13.5 -45.5q0 -23 -7.5 -44t-21 -36.5t-32.5 -25t-43 -9.5q-32 0 -55.5 11.5t-41.5 25.5t-32 25.5t-28 11.5t-14 -10.5v-20.5
q0 -20 -13.5 -34.5t-33.5 -14.5q-29 0 -42.5 19t-13.5 45q0 23 7 44t20.5 37t33 25.5t44.5 9.5q33 0 55.5 -11.5t40 -25.5t31.5 -25.5t30 -11.5z" />
    <glyph glyph-name="odieresis" unicode="&#xf6;" horiz-adv-x="503" 
d="M14 154q0 50 25 100t64.5 89.5t89.5 64.5t100 25q42 0 76 -13.5t59 -37.5t38.5 -58.5t13.5 -76.5q0 -50 -30 -94.5t-75 -77.5t-98 -52.5t-99 -19.5q-36 0 -66 9.5t-51.5 28.5t-34 47t-12.5 66zM129 150q0 -20 10 -23t26 -3q25 0 58 10t63 27.5t51 41.5t21 53q0 19 -11 29
t-27.5 15t-34.5 6t-31 1q-21 0 -43 -17.5t-40 -42t-30 -51.5t-12 -46zM141 583q0 21 14.5 36t35.5 15q23 0 41 -16.5t18 -39.5t-16.5 -39.5t-39.5 -16.5t-38 19.5t-15 41.5zM284 583q0 21 14.5 36t35.5 15q23 0 41 -16.5t18 -39.5t-16.5 -39.5t-39.5 -16.5t-38 19.5
t-15 41.5z" />
    <glyph glyph-name="oslash" unicode="&#xf8;" horiz-adv-x="503" 
d="M14 154q0 50 25 100t64.5 89.5t89.5 64.5t100 25q17 0 33.5 -2.5t32.5 -7.5q3 3 8 8.5t11 11t12 9.5t10 4q11 0 19.5 -8t9.5 -19l-21 -30q37 -26 54.5 -66.5t17.5 -85.5q0 -37 -17 -71t-45 -63t-64.5 -52.5t-75.5 -38t-78 -18.5t-72 4q-9 -12 -19.5 -28t-27.5 -16
q-28 0 -28 27q0 2 2.5 8t6 12.5t6.5 12.5l4 8q-30 21 -44 53.5t-14 68.5zM214 130q20 5 45 16.5t47 27.5t37 37t15 45q0 13 -7 23t-18 15q-29 -39 -62.5 -80.5t-56.5 -83.5zM129 150q0 -5 1 -10.5t5 -9.5q31 45 62.5 89t64.5 88h-8q-21 0 -43 -17.5t-40.5 -42t-30 -51.5
t-11.5 -46z" />
    <glyph glyph-name="ugrave" unicode="&#xf9;" 
d="M257 50q-23 -17 -46 -30t-53 -13q-39 0 -65.5 23t-43 57t-24 72.5t-7.5 69.5q0 19 1 45.5t8 50.5t21 41t41 17t37 -17t11.5 -40.5t-1.5 -49t-3 -42.5q0 -6 2 -23.5t5.5 -36t9 -33t12.5 -14.5q27 11 44 35t29 53t20 60t17 56t21.5 41.5t33.5 16.5q25 0 38.5 -9t19.5 -23.5
t7 -33.5t1 -39q0 -65 -2 -134.5t-11 -134.5q-3 -22 -22 -34.5t-40 -12.5q-16 0 -26.5 8t-17 20t-10.5 26.5t-7 27.5zM120 659q0 20 16 34.5t36 14.5q22 0 43 -21.5t37.5 -51.5t26.5 -61t10 -49q0 -19 -12 -31t-32 -12t-41.5 21t-40.5 50t-31 58.5t-12 47.5z" />
    <glyph glyph-name="uacute" unicode="&#xfa;" 
d="M257 50q-23 -17 -46 -30t-53 -13q-39 0 -65.5 23t-43 57t-24 72.5t-7.5 69.5q0 19 1 45.5t8 50.5t21 41t41 17t37 -17t11.5 -40.5t-1.5 -49t-3 -42.5q0 -6 2 -23.5t5.5 -36t9 -33t12.5 -14.5q27 11 44 35t29 53t20 60t17 56t21.5 41.5t33.5 16.5q25 0 38.5 -9t19.5 -23.5
t7 -33.5t1 -39q0 -65 -2 -134.5t-11 -134.5q-3 -22 -22 -34.5t-40 -12.5q-16 0 -26.5 8t-17 20t-10.5 26.5t-7 27.5zM267 699q10 0 20 -4t18 -11t13 -16.5t5 -19.5q0 -4 -8 -20.5t-18.5 -35.5t-20 -36.5t-12.5 -23.5q-5 -11 -10.5 -23t-12.5 -22t-16.5 -16.5t-22.5 -7.5h-9
q-24 0 -38 12.5t-14 37.5q0 17 12 48.5t30.5 62t41 53t42.5 22.5z" />
    <glyph glyph-name="ucircumflex" unicode="&#xfb;" 
d="M257 50q-23 -17 -46 -30t-53 -13q-39 0 -65.5 23t-43 57t-24 72.5t-7.5 69.5q0 19 1 45.5t8 50.5t21 41t41 17t37 -17t11.5 -40.5t-1.5 -49t-3 -42.5q0 -6 2 -23.5t5.5 -36t9 -33t12.5 -14.5q27 11 44 35t29 53t20 60t17 56t21.5 41.5t33.5 16.5q25 0 38.5 -9t19.5 -23.5
t7 -33.5t1 -39q0 -65 -2 -134.5t-11 -134.5q-3 -22 -22 -34.5t-40 -12.5q-16 0 -26.5 8t-17 20t-10.5 26.5t-7 27.5zM221 698q22 0 44.5 -22.5t40.5 -53.5t29 -63.5t11 -51.5q0 -15 -9.5 -29.5t-26.5 -14.5t-30.5 11t-25 26.5t-20 32.5l-14.5 29q-9 -17 -18.5 -34t-22 -31
t-28.5 -23t-37 -9t-31.5 12t-10.5 32q0 16 17 47.5t40.5 63t49 55t42.5 23.5z" />
    <glyph glyph-name="udieresis" unicode="&#xfc;" 
d="M257 50q-23 -17 -46 -30t-53 -13q-39 0 -65.5 23t-43 57t-24 72.5t-7.5 69.5q0 19 1 45.5t8 50.5t21 41t41 17t37 -17t11.5 -40.5t-1.5 -49t-3 -42.5q0 -6 2 -23.5t5.5 -36t9 -33t12.5 -14.5q27 11 44 35t29 53t20 60t17 56t21.5 41.5t33.5 16.5q25 0 38.5 -9t19.5 -23.5
t7 -33.5t1 -39q0 -65 -2 -134.5t-11 -134.5q-3 -22 -22 -34.5t-40 -12.5q-16 0 -26.5 8t-17 20t-10.5 26.5t-7 27.5zM96 577q0 21 14.5 36t35.5 15q23 0 41 -16.5t18 -39.5t-16.5 -39.5t-39.5 -16.5t-38 19.5t-15 41.5zM239 577q0 21 14.5 36t35.5 15q23 0 41 -16.5
t18 -39.5t-16.5 -39.5t-39.5 -16.5t-38 19.5t-15 41.5z" />
    <glyph glyph-name="yacute" unicode="&#xfd;" horiz-adv-x="463" 
d="M211 33q0 4 -5 7t-11 5.5t-12 4t-9 2.5q-38 12 -66.5 39.5t-48 63t-29.5 75.5t-10 77q0 18 13 34.5t32 16.5q24 0 38 -14t22.5 -35.5t13.5 -46t11 -46t16.5 -35.5t29.5 -14q16 0 31.5 15t31 37.5t30.5 48.5t29.5 48.5t29 37.5t29.5 15q26 0 44.5 -17.5t18.5 -44.5
q0 -12 -4 -27t-9.5 -30t-12 -29.5t-10.5 -25.5q-36 -90 -66 -183.5t-47 -189.5q-3 -15 -4.5 -32t-7 -31t-16 -23.5t-29.5 -9.5q-14 0 -26.5 6.5t-21.5 17t-14 24t-5 26.5q0 29 7 63t15 66.5t15 60t7 43.5zM311 683q10 0 20 -4t18 -11t13 -16.5t5 -19.5q0 -4 -8 -20.5
t-18.5 -35.5t-20 -36.5t-12.5 -23.5q-5 -11 -10.5 -23t-12.5 -22t-16.5 -16.5t-22.5 -7.5h-9q-24 0 -38 12.5t-14 37.5q0 17 12 48.5t30.5 62t41 53t42.5 22.5z" />
    <glyph glyph-name="thorn" unicode="&#xfe;" horiz-adv-x="485" 
d="M95 623q30 0 44.5 -24.5t20 -58t4.5 -67.5t-2 -53q49 23 102 23q41 0 75.5 -13.5t59 -38t38 -59t13.5 -75.5q0 -50 -29.5 -94t-74 -77t-96.5 -52.5t-97 -20.5q-1 -14 -2 -35.5t-5.5 -41.5t-15.5 -34.5t-31 -14.5q-26 0 -39.5 20t-19 47.5t-6 55.5t-0.5 44v60t1 104
t2.5 125t4.5 122.5t7 96t11 45.5q8 7 16 11.5t19 4.5zM224 317q-23 0 -40.5 -14.5t-28.5 -33.5v-1q0 -11 -1 -31.5t0 -41.5t5 -38.5t13 -22.5q19 0 45.5 13t51 33t42 43t17.5 43q0 19 -11 29t-27.5 15t-34.5 6t-31 1z" />
    <glyph glyph-name="ydieresis" unicode="&#xff;" horiz-adv-x="463" 
d="M211 33q0 4 -5 7t-11 5.5t-12 4t-9 2.5q-38 12 -66.5 39.5t-48 63t-29.5 75.5t-10 77q0 18 13 34.5t32 16.5q24 0 38 -14t22.5 -35.5t13.5 -46t11 -46t16.5 -35.5t29.5 -14q16 0 31.5 15t31 37.5t30.5 48.5t29.5 48.5t29 37.5t29.5 15q26 0 44.5 -17.5t18.5 -44.5
q0 -12 -4 -27t-9.5 -30t-12 -29.5t-10.5 -25.5q-36 -90 -66 -183.5t-47 -189.5q-3 -15 -4.5 -32t-7 -31t-16 -23.5t-29.5 -9.5q-14 0 -26.5 6.5t-21.5 17t-14 24t-5 26.5q0 29 7 63t15 66.5t15 60t7 43.5zM126 532q0 21 14.5 36t35.5 15q23 0 41 -16.5t18 -39.5t-16.5 -39.5
t-39.5 -16.5t-38 19.5t-15 41.5zM269 532q0 21 14.5 36t35.5 15q23 0 41 -16.5t18 -39.5t-16.5 -39.5t-39.5 -16.5t-38 19.5t-15 41.5z" />
    <glyph glyph-name="Thorn" unicode="&#xde;" horiz-adv-x="484" 
d="M95 623q30 0 44.5 -24.5t20 -58t4.5 -67.5t-2 -53q49 23 102 23q41 0 75.5 -13.5t59 -38t38 -59t13.5 -75.5q0 -50 -29.5 -94t-74 -77t-96.5 -52.5t-97 -20.5q-1 -14 -2 -35.5t-5.5 -41.5t-15.5 -34.5t-31 -14.5q-26 0 -39.5 20t-19 47.5t-6 55.5t-0.5 44v60t1 104
t2.5 125t4.5 122.5t7 96t11 45.5q8 7 16 11.5t19 4.5zM224 317q-23 0 -40.5 -14.5t-28.5 -33.5v-1q0 -11 -1 -31.5t0 -41.5t5 -38.5t13 -22.5q19 0 45.5 13t51 33t42 43t17.5 43q0 19 -11 29t-27.5 15t-34.5 6t-31 1z" />
    <glyph glyph-name="germandbls" unicode="&#xdf;" horiz-adv-x="521" 
d="M27 312v35.5t2 54t5.5 61t10.5 57.5t18 42.5t28 16.5q20 0 38.5 6t37 13t37 13t38.5 6q45 0 69.5 -30.5t24.5 -72.5q0 -17 -3.5 -33.5t-3.5 -33.5q0 -11 5 -12.5t13 -2.5q29 -4 55 -20t46 -39t32 -51.5t12 -57.5q0 -57 -21 -104t-57.5 -80t-85.5 -51.5t-104 -18.5
q-17 0 -33.5 3.5t-33.5 3.5q-8 0 -13 -3l-10 -6t-11.5 -6t-17.5 -3q-29 0 -45.5 21.5t-24 51.5t-9 61.5t-1.5 51.5zM202 398q0 20 7 40t7 40l-1 13l-3 1q-18 0 -30.5 -12t-20.5 -31t-12 -43t-6 -47t-2.5 -43.5t-0.5 -32.5q0 -25 0.5 -51.5t8 -48.5t25 -36t51.5 -14
q26 0 52 8.5t47 24t34 38t13 51.5q0 26 -12.5 37t-31.5 15.5t-40.5 6t-40.5 9t-31.5 24t-12.5 51.5z" />
    <glyph glyph-name="minus" unicode="&#x2212;" horiz-adv-x="450" 
d="M250 299q18 0 46 1.5t54.5 -2.5t46 -17t19.5 -42q0 -14 -7 -25.5t-18 -19.5q-12 -8 -43.5 -11t-67.5 -3.5t-68.5 0.5t-46.5 1l-97 -1q-21 0 -34 11t-13 34q0 20 13 33.5t34 21.5t46.5 12t51 5.5t48 1.5h36.5z" />
    <glyph glyph-name="guilsinglleft" unicode="&#x2039;" horiz-adv-x="384" 
d="M302 421q21 0 37.5 -13.5t16.5 -35.5q0 -17 -15 -33.5t-37 -32.5t-48.5 -31t-48.5 -29t-37 -27.5t-15 -25.5q0 -11 14 -20.5t34.5 -19t44.5 -19.5t44.5 -23t34.5 -29t14 -37q0 -24 -16.5 -34t-37.5 -10t-49 7.5t-58 21t-58.5 32t-51 40.5t-36.5 46t-14 48q0 21 15.5 46.5
t41 50.5t57 48t62.5 41t59 28.5t47 10.5z" />
    <glyph glyph-name="guilsinglright" unicode="&#x203a;" horiz-adv-x="366" 
d="M80 1q-21 0 -37.5 13.5t-16.5 35.5q0 17 14 33t35 31t46 29t46 27.5t35 26.5t14 26q0 11 -14.5 21t-36 20.5t-47 21.5t-47 24.5t-36 29.5t-14.5 37q0 24 16.5 34t37.5 10t49 -7.5t58 -21t58.5 -32t51 -40.5t36.5 -46t14 -48q0 -19 -14.5 -43.5t-38 -49.5t-52.5 -48.5
t-58.5 -42t-55.5 -30t-43 -11.5z" />
    <glyph glyph-name="guillemotleft" unicode="&#xab;" horiz-adv-x="683" 
d="M333 226q0 24 14 48t36.5 46t51 40.5t58.5 32t58 21t49 7.5t37.5 -9.5t16.5 -33.5q0 -21 -14.5 -37.5t-36 -30t-47 -24.5t-47 -21t-36 -20.5t-14.5 -21.5q0 -13 14 -26t35 -26.5t46 -27.5t46 -29t35 -31t14 -33q0 -22 -16.5 -35.5t-37.5 -13.5q-17 0 -43 11.5t-55.5 30
t-58.5 42t-52.5 48.5t-38 49.5t-14.5 43.5zM19 226q0 24 14 48t36.5 46t51 40.5t58.5 32t58 21t49 7.5t37.5 -9.5t16.5 -33.5q0 -21 -14.5 -37.5t-36 -30t-47 -24.5t-47 -21t-36 -20.5t-14.5 -21.5q0 -13 14 -26t35 -26.5t46 -27.5t46 -29t35 -31t14 -33q0 -22 -16.5 -35.5
t-37.5 -13.5q-17 0 -43 11.5t-55.5 30t-58.5 42t-52.5 48.5t-38 49.5t-14.5 43.5z" />
    <glyph glyph-name="guillemotright" unicode="&#xbb;" horiz-adv-x="685" 
d="M80 1q-21 0 -37.5 13.5t-16.5 35.5q0 17 14 33t35 31t46 29t46 27.5t35 26.5t14 26q0 11 -14.5 21t-36 20.5t-47 21.5t-47 24.5t-36 29.5t-14.5 37q0 24 16.5 34t37.5 10t49 -7.5t58 -21t58.5 -32t51 -40.5t36.5 -46t14 -48q0 -19 -14.5 -43.5t-38 -49.5t-52.5 -48.5
t-58.5 -42t-55.5 -30t-43 -11.5zM394 1q-21 0 -37.5 13.5t-16.5 35.5q0 17 14 33t35 31t46 29t46 27.5t35 26.5t14 26q0 11 -14.5 21t-36 20.5t-47 21.5t-47 24.5t-36 29.5t-14.5 37q0 24 16.5 34t37.5 10t49 -7.5t58 -21t58.5 -32t51 -40.5t36.5 -46t14 -48
q0 -19 -14.5 -43.5t-38 -49.5t-52.5 -48.5t-58.5 -42t-55.5 -30t-43 -11.5z" />
    <glyph glyph-name="section" unicode="&#xa7;" horiz-adv-x="420" 
d="M392 279q0 -20 -6.5 -38t-17 -34t-23.5 -31t-26 -28q16 -23 16 -54q0 -35 -16 -69.5t-42.5 -63t-60.5 -46t-69 -17.5q-17 0 -34 5t-30.5 14.5t-22.5 24t-9 33.5q0 24 17 35t40 11q8 0 19 -5.5t26 -5.5q7 0 17 8t19.5 19t16.5 22t7 18l-1 3q-23 10 -56 16.5t-63 17t-51 29
t-21 52.5q0 19 6.5 37t17 34t23.5 30.5t25 28.5q-15 24 -15 54q0 34 16 69.5t42.5 64t60 46.5t69.5 18q16 0 33.5 -5t31 -15t22.5 -24t9 -33q0 -25 -17 -36t-40 -11q-8 0 -19 5.5t-26 5.5q-7 0 -17 -8t-19.5 -19t-16.5 -22t-7 -18l1 -3q23 -11 56 -17t63 -16.5t51 -29
t21 -52.5zM246 249q-9 6 -20 10t-22 6l-37 -40q9 -6 19.5 -10t21.5 -6z" />
    <glyph glyph-name="logicalnot" unicode="&#xac;" horiz-adv-x="625" 
d="M602 239q0 -14 -8 -28v-45q0 -16 -0.5 -35t-5.5 -35.5t-17 -27.5t-35 -11q-24 0 -36 13.5t-16.5 33t-5 41.5t-0.5 38l-140 1q-65 0 -129 -3.5t-129 -3.5q-24 0 -41.5 9.5t-17.5 38.5q0 21 15 37t35 21q15 4 43 6.5t62.5 4.5t73 3t74 1.5t65.5 0.5h47q18 0 46 1.5
t54.5 -2.5t46 -17t19.5 -42z" />
    <glyph glyph-name="breve" unicode="&#x2d8;" horiz-adv-x="358" 
d="M78 736q21 0 31 -6.5t15 -16.5t6.5 -21t5.5 -21t12.5 -16.5t26.5 -6.5q20 0 30 6.5t14 16.5t5.5 21t6 21t15 16.5t32.5 6.5q12 0 21 -6.5t16 -16.5t10.5 -21.5t3.5 -21.5q0 -29 -14 -51.5t-35.5 -38.5t-48.5 -24.5t-52 -8.5q-26 0 -52.5 8.5t-49 24t-36.5 38.5t-14 52
q0 10 3.5 21.5t10.5 21.5t16 16.5t21 6.5z" />
    <glyph glyph-name="onequarter" unicode="&#xbc;" horiz-adv-x="402" 
d="M260 270q-37 0 -61 19.5t-24 57.5q0 13 7.5 37t20 52t28 57t32.5 52.5t34 38.5t31 15q15 0 25.5 -12.5t10.5 -26.5q0 -8 -17.5 -32t-38.5 -55.5t-39 -64.5t-20 -58l4 -5l27 2l9 8q2 12 4 33t6.5 41.5t13 35.5t24.5 15t25 -12t9 -26q0 -46 -7 -92.5t-7 -92.5q0 -17 2 -35
t2 -35q0 -7 -1.5 -12.5t-6.5 -10.5v1q-8 -9 -21 -9q-20 0 -30 13t-13.5 31t-3.5 37.5v32.5h-25zM236 696q5 6 13 16.5t18 20.5t20 17.5t19 7.5q13 0 23.5 -12t10.5 -23q0 -3 -13.5 -23.5t-34.5 -50.5l-45.5 -65t-46.5 -66t-38 -53.5t-20 -28.5q-7 -12 -16 -30t-20.5 -35.5
t-24.5 -30t-28 -12.5q-32 0 -32 32q0 11 13.5 37t34.5 59t46 70.5t49 71.5t43 60t28 38h1zM84 848q17 0 21.5 -12t4.5 -26q0 -32 -4 -63.5t-4 -63.5q0 -33 4 -66t4 -65q0 -15 -10 -22.5t-24 -7.5q-20 0 -29.5 17t-12.5 39.5t-2.5 46t0.5 35.5q0 14 -0.5 45.5t3.5 63t15 55.5
t34 24z" />
    <glyph glyph-name="onehalf" unicode="&#xbd;" horiz-adv-x="485" 
d="M451 253q0 -20 -17.5 -29t-40.5 -12.5t-46.5 -3t-36.5 0.5h-34t-35.5 4.5t-28 15.5t-11.5 33q0 15 13.5 35t33 42.5t43 45t43 43t33 36.5t13.5 25q0 5 -5 5.5t-8 0.5q-38 0 -60 -16.5t-36 -36t-23 -35.5t-21 -16l-10 1h1q-16 3 -21.5 12.5t-5.5 25.5q0 29 18 54t45 43
t58 28.5t57 10.5q16 0 32 -4t28 -15h-1q11 -10 18 -22.5t7 -27.5q0 -27 -20 -58.5t-46.5 -62t-53.5 -56.5t-41 -41q5 2 17.5 3.5t26.5 2t27.5 0.5h19.5h20.5t22 -3t18 -9.5t7.5 -19.5zM234 696q5 6 13 16.5t18 20.5t20 17.5t19 7.5q13 0 23.5 -12t10.5 -23q0 -3 -13.5 -23.5
t-34.5 -50.5l-45.5 -65t-46.5 -66t-38 -53.5t-20 -28.5q-7 -12 -16 -30t-20.5 -35.5t-24.5 -30t-28 -12.5q-32 0 -32 32q0 11 13.5 37t34.5 59t46 70.5t49 71.5t43 60t28 38h1zM66 846q10 2 15 2q17 0 21.5 -12.5t4.5 -26.5q0 -32 -4.5 -64.5t-4.5 -64.5t4.5 -63.5
t4.5 -63.5q0 -12 -9 -21v1q-5 -6 -12 -8.5t-15 -2.5q-19 0 -28 17t-12 40t-2.5 46t0.5 35v40t3.5 60.5t11.5 57t23 28.5h-1z" />
    <glyph glyph-name="threequarters" unicode="&#xbe;" horiz-adv-x="601" 
d="M333 623q0 -30 -14.5 -57t-37.5 -47t-51.5 -32t-57.5 -12q-18 0 -42 3.5t-46 12.5t-37.5 24t-15.5 39q0 14 8.5 27.5t25.5 13.5t23 -7t12 -16t17.5 -16t39.5 -7q16 0 34 4.5t33 14t25 23.5t10 33q0 23 -14 31.5t-32.5 12t-36.5 8.5t-27 21v-1q-7 10 -7 21q0 15 14 28.5
t25 21.5h-1q11 9 28.5 24t24.5 28q-4 2 -7 2q-26 0 -42 -8t-16 -34q0 -11 -11 -20t-22 -9q-15 0 -27.5 14.5t-12.5 28.5q0 25 13.5 43.5t34 30.5t44.5 18t45 6q32 0 53.5 -20t21.5 -52q0 -10 -5.5 -22.5t-14 -24.5t-18 -22t-17.5 -16q17 -4 31.5 -15.5t25.5 -27.5t17.5 -34
t6.5 -34zM464 270h-6q-37 0 -60.5 20.5t-23.5 58.5q0 13 7.5 37t19.5 52t28 56.5t33 52t33.5 38.5t30.5 15q15 0 26 -12.5t11 -26.5q0 -8 -17 -32.5t-38 -56t-39.5 -64.5t-21.5 -58l5 -5l26 2l9 6q1 10 3 31t7 42.5t14 37.5t25 16t25 -12t9 -26q0 -17 -0.5 -38t-2 -42.5
t-4 -41.5t-6.5 -36v1q-4 -25 -0.5 -49.5t3.5 -49.5q0 -13 -7.5 -21.5t-21.5 -8.5q-20 0 -29.5 13t-13.5 31t-4.5 37.5t-1.5 32.5q-5 1 -9 0.5t-9 -0.5zM446 696q5 6 13 16.5t18 20.5t20 17.5t19 7.5q13 0 23.5 -12t10.5 -23q0 -3 -13.5 -23.5t-34.5 -50.5l-45.5 -65
t-46.5 -66t-38 -53.5t-20 -28.5q-7 -12 -16 -30t-20.5 -35.5t-24.5 -30t-28 -12.5q-32 0 -32 32q0 11 13.5 37t34.5 59t46 70.5t49 71.5t43 60t28 38h1z" />
    <glyph glyph-name="paragraph" unicode="&#xb6;" horiz-adv-x="661" 
d="M469 127v390q0 12 -0.5 25t-2.5 25q-6 -2 -10 -2q-11 0 -21.5 2t-18.5 -7q-6 -24 -7 -51t-1 -52q0 -48 2.5 -95.5t2.5 -95.5q0 -14 2 -44.5t3.5 -68.5t1 -78t-6.5 -74t-19 -56.5t-35 -24.5q-19 -2 -31 4.5t-19 18t-10.5 26t-4.5 29.5q-2 32 -2 65v66q-64 23 -119 57
t-93 77.5t-55 96t-4 113.5q13 64 49.5 105.5t85.5 66t104.5 34.5t106.5 10q32 0 77.5 -5.5t87 -21.5t70.5 -43.5t29 -71.5q0 -17 -6.5 -29t-15 -22.5t-15 -22t-6.5 -27.5q0 -45 3 -90t3 -90q0 -14 1 -45t0.5 -70t-3.5 -80t-11 -75t-22 -56t-36 -22q-19 0 -30.5 12t-17.5 31
t-8 42.5t-1.5 47t2 44t1.5 32.5z" />
    <glyph glyph-name="A.001" unicode="&#xe000;" horiz-adv-x="833" 
d="M466 -9q-14 0 -23 6t-14.5 15.5t-8 21t-2.5 22.5q0 34 4 90t14.5 119.5t28 128t44 116.5t64 85t86.5 33q33 0 54 -17t35 -45q8 -16 15.5 -52t13.5 -83.5t11.5 -100.5t9 -102t5.5 -88.5t2 -60.5q0 -16 -1.5 -30.5t-7.5 -26t-17.5 -18.5t-31.5 -7q-29 0 -43.5 22.5
t-20.5 52.5t-7 61.5t-3 49.5q-35 -2 -69 -5t-67 -13q-3 -21 -3.5 -51t-5.5 -57t-18.5 -46.5t-43.5 -19.5zM640 492q-5 -1 -13 -14.5t-17.5 -33t-19 -43t-17 -45t-12.5 -38t-5 -23.5v-4q10 -2 20.5 -3t20.5 -1q17 0 34 1.5t34 3.5q-4 51 -8 101t-17 99zM163 583q0 26 16 41
t41 15q16 0 43 -16.5t52.5 -40t44 -48.5t18.5 -42q0 -15 -14 -27t-28 -12q-18 0 -47 13.5t-57 33t-48.5 42.5t-20.5 41zM121 85q-24 0 -40.5 13.5t-16.5 39.5q0 24 21.5 40.5t51 27t59.5 15.5t48 5q24 0 41 -8.5t17 -37.5q0 -20 -22.5 -37.5t-52.5 -30t-60 -20t-46 -7.5z
M167 303q-17 0 -41 2t-46.5 8.5t-38 20t-15.5 37.5q0 17 7 27.5t18 16t24.5 7.5t27.5 2q13 0 41 -3t56 -10.5t49 -19.5t21 -31q0 -20 -10 -31.5t-25.5 -17t-33.5 -7t-34 -1.5z" />
    <glyph glyph-name="B.001" unicode="&#xe001;" horiz-adv-x="950" 
d="M535 579q19 0 36.5 6t34.5 13.5t34.5 13.5t36.5 6q15 0 32 -7t30.5 -19t22.5 -27t9 -31q0 -22 -4.5 -43.5t-4.5 -43.5q0 -11 4.5 -12.5t13.5 -2.5q28 -3 54.5 -19t46.5 -39.5t32 -52.5t12 -57q0 -57 -21 -104t-57.5 -80t-85.5 -51.5t-104 -18.5q-17 0 -33.5 3.5
t-33.5 3.5q-8 0 -13 -3t-9.5 -6t-11 -6t-18.5 -3q-24 0 -39.5 15t-24 39.5t-12 54.5t-4 59t0.5 55t1 41q0 81 6 162q1 17 2 44t7 51.5t18.5 42t38.5 16.5h3zM723 317q-20 0 -37.5 -7.5t-34 -18.5t-32.5 -23t-33 -21q-9 -20 -9 -41q0 -38 23 -55.5t58 -17.5q26 0 52 8.5
t47 24t34 38t13 51.5q0 16 -7.5 27.5t-19.5 19t-26.5 11.5t-27.5 4zM115 85q-24 0 -40.5 13.5t-16.5 39.5q0 24 21.5 40.5t51 27t59.5 15.5t48 5q24 0 41 -8.5t17 -37.5q0 -20 -22.5 -37.5t-52.5 -30t-60 -20t-46 -7.5zM161 303q-17 0 -41 2t-46.5 8.5t-38 20t-15.5 37.5
q0 17 7 27.5t18 16t24.5 7.5t27.5 2q13 0 41 -3t56 -10.5t49 -19.5t21 -31q0 -20 -10 -31.5t-25.5 -17t-33.5 -7t-34 -1.5zM157 583q0 26 16 41t41 15q16 0 43 -16.5t52.5 -40t44 -48.5t18.5 -42q0 -15 -14 -27t-28 -12q-18 0 -47 13.5t-57 33t-48.5 42.5t-20.5 41zM646 492
q-7 0 -18.5 -8.5t-22.5 -20t-19 -24t-8 -19.5q0 -4 1 -8.5t6 -4.5q6 0 17 10.5t21 24.5t17.5 27.5t7.5 19.5q0 3 -2 3z" />
    <glyph glyph-name="C.001" unicode="&#xe002;" horiz-adv-x="883" 
d="M405 217q0 30 10 69.5t27.5 80.5t42 81.5t53.5 71.5t62 50.5t67 19.5q32 0 56 -16t40.5 -40.5t24.5 -54t8 -57.5q0 -16 -2.5 -32.5t-9.5 -29.5t-19.5 -21.5t-31.5 -8.5q-20 0 -30 10.5t-14 26.5t-4.5 34t-1.5 34t-5 26.5t-15 10.5q-16 0 -32 -15t-31 -39t-28.5 -53.5
t-23.5 -58t-16 -53.5t-6 -39q0 -13 2.5 -26.5t8.5 -25t16 -18.5t26 -7q32 0 66 15.5t64.5 34t54 34t35.5 15.5q9 0 19 -5t18.5 -13t13.5 -17.5t5 -19.5q0 -24 -15 -45.5t-39.5 -39.5t-55 -32t-61 -24t-58.5 -15t-47 -5q-44 0 -76.5 15.5t-54.5 42t-32.5 62.5t-10.5 77z
M156 583q0 26 16 41t41 15q16 0 43 -16.5t52.5 -40t44 -48.5t18.5 -42q0 -15 -14 -27t-28 -12q-18 0 -47 13.5t-57 33t-48.5 42.5t-20.5 41zM114 85q-24 0 -40.5 13.5t-16.5 39.5q0 24 21.5 40.5t51 27t59.5 15.5t48 5q24 0 41 -8.5t17 -37.5q0 -20 -22.5 -37.5t-52.5 -30
t-60 -20t-46 -7.5zM160 303q-17 0 -41 2t-46.5 8.5t-38 20t-15.5 37.5q0 17 7 27.5t18 16t24.5 7.5t27.5 2q13 0 41 -3t56 -10.5t49 -19.5t21 -31q0 -20 -10 -31.5t-25.5 -17t-33.5 -7t-34 -1.5z" />
    <glyph glyph-name="D.001" unicode="&#xe003;" horiz-adv-x="932" 
d="M542 619q14 0 23.5 -6t16.5 -15.5t11.5 -21t9.5 -22.5q23 34 60.5 55t79.5 21t73.5 -18t52.5 -47.5t32 -66t11 -73.5q0 -36 -6 -77t-23 -73q-9 -18 -31.5 -47t-53 -62t-65.5 -66t-69 -60t-64 -44t-50 -17q-24 0 -40 16t-16 40q0 15 5.5 28.5t5.5 27.5q0 16 -7 35
q-19 57 -24 116t-5 119q0 14 -1 39t-0.5 53.5t3.5 58t11 53.5t22.5 39t37.5 15zM642 185q28 19 55.5 44.5t49 56t34.5 64.5t13 70q0 10 -2.5 25t-8.5 29.5t-15 25t-22 10.5q-23 0 -39.5 -20.5t-27.5 -52.5t-18 -70.5t-11 -74.5t-5.5 -65t-2.5 -42zM160 583q0 26 16 41t41 15
q16 0 43 -16.5t52.5 -40t44 -48.5t18.5 -42q0 -15 -14 -27t-28 -12q-18 0 -47 13.5t-57 33t-48.5 42.5t-20.5 41zM118 85q-24 0 -40.5 13.5t-16.5 39.5q0 24 21.5 40.5t51 27t59.5 15.5t48 5q24 0 41 -8.5t17 -37.5q0 -20 -22.5 -37.5t-52.5 -30t-60 -20t-46 -7.5zM164 303
q-17 0 -41 2t-46.5 8.5t-38 20t-15.5 37.5q0 17 7 27.5t18 16t24.5 7.5t27.5 2q13 0 41 -3t56 -10.5t49 -19.5t21 -31q0 -20 -10 -31.5t-25.5 -17t-33.5 -7t-34 -1.5z" />
    <glyph glyph-name="E.001" unicode="&#xe004;" horiz-adv-x="888" 
d="M566 352q8 -1 29.5 -1t48.5 -1.5t56.5 -4.5t54 -10.5t40.5 -19.5t16 -30q0 -31 -26 -43t-61.5 -14.5t-71.5 1t-56 3.5h-19q-3 -3 -3.5 -8.5t-0.5 -9.5q0 -26 6.5 -44t18.5 -41q45 6 91 12t92 6q26 0 46 -13t20 -42q0 -30 -27.5 -46t-65 -23t-75 -8t-58.5 -1
q-67 0 -102 24.5t-50.5 64.5t-17 90.5t-1.5 101.5q0 55 3.5 104t21.5 85.5t56.5 58t108.5 21.5q10 0 30 -1t44 -4t48.5 -7.5t44.5 -11.5t33 -17t13 -23q0 -18 -8 -29.5t-20 -17.5t-27.5 -8.5t-30.5 -2.5q-32 0 -64.5 3t-64.5 3q-30 0 -43.5 -4.5t-19 -16t-6 -30t-3.5 -45.5z
M160 583q0 26 16 41t41 15q16 0 43 -16.5t52.5 -40t44 -48.5t18.5 -42q0 -15 -14 -27t-28 -12q-18 0 -47 13.5t-57 33t-48.5 42.5t-20.5 41zM118 85q-24 0 -40.5 13.5t-16.5 39.5q0 24 21.5 40.5t51 27t59.5 15.5t48 5q24 0 41 -8.5t17 -37.5q0 -20 -22.5 -37.5t-52.5 -30
t-60 -20t-46 -7.5zM164 303q-17 0 -41 2t-46.5 8.5t-38 20t-15.5 37.5q0 17 7 27.5t18 16t24.5 7.5t27.5 2q13 0 41 -3t56 -10.5t49 -19.5t21 -31q0 -20 -10 -31.5t-25.5 -17t-33.5 -7t-34 -1.5z" />
    <glyph glyph-name="F.001" unicode="&#xe005;" horiz-adv-x="871" 
d="M702 432q-36 0 -62 0.5t-42.5 -5.5t-24.5 -22t-8 -49v-16t1 -23t2 -22t4 -14l13 -4q30 4 62 3.5t63 -0.5h33t36.5 -4t30 -14t12.5 -31q0 -17 -7.5 -29t-20 -19.5t-27.5 -11.5t-30 -4l-165 -3q-1 -17 0.5 -46t-3 -57.5t-17.5 -49t-42 -20.5q-16 0 -26.5 7t-17.5 18.5
t-10 25t-4 26.5q-7 71 -6.5 146t0.5 147q0 58 15.5 94t44.5 55.5t71.5 26.5t96.5 7q16 0 47 0.5t61 -4.5t52.5 -18.5t22.5 -41.5q0 -24 -19 -34.5t-44.5 -13.5t-51.5 -1.5t-40 1.5zM159 583q0 26 16 41t41 15q16 0 43 -16.5t52.5 -40t44 -48.5t18.5 -42q0 -15 -14 -27
t-28 -12q-18 0 -47 13.5t-57 33t-48.5 42.5t-20.5 41zM117 85q-24 0 -40.5 13.5t-16.5 39.5q0 24 21.5 40.5t51 27t59.5 15.5t48 5q24 0 41 -8.5t17 -37.5q0 -20 -22.5 -37.5t-52.5 -30t-60 -20t-46 -7.5zM163 303q-17 0 -41 2t-46.5 8.5t-38 20t-15.5 37.5q0 17 7 27.5
t18 16t24.5 7.5t27.5 2q13 0 41 -3t56 -10.5t49 -19.5t21 -31q0 -20 -10 -31.5t-25.5 -17t-33.5 -7t-34 -1.5z" />
    <glyph glyph-name="G.001" unicode="&#xe006;" horiz-adv-x="937" 
d="M913 246q0 -52 -30.5 -94.5t-76 -73t-98.5 -47.5t-98 -17t-86 15.5t-71.5 43.5t-49 66.5t-18.5 84.5t17 91.5t46 87t67.5 77t82.5 61.5t90.5 40.5t90.5 14.5q20 0 38.5 -4t33 -14t23 -25.5t8.5 -37.5q0 -11 -3.5 -23t-10.5 -21.5t-17 -16t-23 -6.5q-8 0 -16.5 5
t-17.5 11.5t-20 11.5t-23 5q-40 0 -83 -25.5t-79 -64t-59 -84t-23 -85.5q0 -23 10 -39t26 -26.5t36 -15t40 -4.5q18 0 46.5 9t56.5 23.5t48 33.5t20 39q0 3 -6 3.5t-8 0.5q-23 0 -44.5 -6.5t-42.5 -14t-41 -14t-41 -6.5q-24 0 -40 13.5t-16 38.5q0 28 25 49t59.5 35.5
t70.5 22t58 7.5q28 0 54.5 -8t47.5 -24t34 -39t13 -54zM160 583q0 26 16 41t41 15q16 0 43 -16.5t52.5 -40t44 -48.5t18.5 -42q0 -15 -14 -27t-28 -12q-18 0 -47 13.5t-57 33t-48.5 42.5t-20.5 41zM118 85q-24 0 -40.5 13.5t-16.5 39.5q0 24 21.5 40.5t51 27t59.5 15.5t48 5
q24 0 41 -8.5t17 -37.5q0 -20 -22.5 -37.5t-52.5 -30t-60 -20t-46 -7.5zM164 303q-17 0 -41 2t-46.5 8.5t-38 20t-15.5 37.5q0 17 7 27.5t18 16t24.5 7.5t27.5 2q13 0 41 -3t56 -10.5t49 -19.5t21 -31q0 -20 -10 -31.5t-25.5 -17t-33.5 -7t-34 -1.5z" />
    <glyph glyph-name="H.001" unicode="&#xe007;" horiz-adv-x="927" 
d="M458 172q0 8 -1 15t-3 15q-8 11 -8 28q0 20 0.5 56.5t3 79.5t8.5 88t16.5 81.5t26.5 59.5t40 23q9 0 20 -4t21 -11t16.5 -16t6.5 -19q0 -8 -5 -16t-9 -16q-8 -15 -13 -41t-7.5 -54.5t-3.5 -56t-1 -44.5v-13q14 -1 27 -1h27q35 0 71 2.5t71 5.5q2 17 3 46.5t2.5 63t6 67.5
t14.5 61.5t27.5 45t44.5 17.5q21 0 32.5 -13t11.5 -33q0 -72 -6.5 -144t-6.5 -145q0 -58 2.5 -115t2.5 -115q0 -17 -3 -33t-10.5 -28.5t-21 -20t-34.5 -7.5q-20 0 -31.5 15t-18 38t-8.5 51t-1.5 54t1.5 47.5t1 30.5q-49 -2 -97 -3.5t-96 -9.5q-4 -3 -4 -12v-13q0 -30 3 -60
t3 -60q0 -23 -14 -43.5t-40 -20.5q-28 0 -42 21t-19.5 49.5t-5.5 58.5v48zM163 583q0 26 16 41t41 15q16 0 43 -16.5t52.5 -40t44 -48.5t18.5 -42q0 -15 -14 -27t-28 -12q-18 0 -47 13.5t-57 33t-48.5 42.5t-20.5 41zM121 85q-24 0 -40.5 13.5t-16.5 39.5q0 24 21.5 40.5
t51 27t59.5 15.5t48 5q24 0 41 -8.5t17 -37.5q0 -20 -22.5 -37.5t-52.5 -30t-60 -20t-46 -7.5zM167 303q-17 0 -41 2t-46.5 8.5t-38 20t-15.5 37.5q0 17 7 27.5t18 16t24.5 7.5t27.5 2q13 0 41 -3t56 -10.5t49 -19.5t21 -31q0 -20 -10 -31.5t-25.5 -17t-33.5 -7t-34 -1.5z
" />
    <glyph glyph-name="I.001" unicode="&#xe008;" horiz-adv-x="598" 
d="M569 122q0 -16 1 -37t-3 -40t-15.5 -32t-35.5 -13q-28 0 -46 24q-6 7 -9.5 38.5t-6 75.5t-3.5 95.5t-1 99v85.5v55q0 16 -1.5 39.5t1.5 45.5t14.5 37t37.5 15q5 0 13 -2q16 -3 26.5 -24.5t16 -53t7.5 -68.5t2.5 -71.5t0 -61t-0.5 -37.5q1 -43 1.5 -85t0.5 -85zM161 583
q0 26 16 41t41 15q16 0 43 -16.5t52.5 -40t44 -48.5t18.5 -42q0 -15 -14 -27t-28 -12q-18 0 -47 13.5t-57 33t-48.5 42.5t-20.5 41zM119 85q-24 0 -40.5 13.5t-16.5 39.5q0 24 21.5 40.5t51 27t59.5 15.5t48 5q24 0 41 -8.5t17 -37.5q0 -20 -22.5 -37.5t-52.5 -30t-60 -20
t-46 -7.5zM165 303q-17 0 -41 2t-46.5 8.5t-38 20t-15.5 37.5q0 17 7 27.5t18 16t24.5 7.5t27.5 2q13 0 41 -3t56 -10.5t49 -19.5t21 -31q0 -20 -10 -31.5t-25.5 -17t-33.5 -7t-34 -1.5z" />
    <glyph glyph-name="J.001" unicode="&#xe009;" horiz-adv-x="938" 
d="M642 81q39 0 69.5 19t51 49t31.5 66.5t11 70.5q0 69 -23 127t-61 113h-98q-18 0 -42 -0.5t-45 4.5t-35.5 18t-14.5 40q0 11 3 21.5t12 17.5q3 2 20.5 4t43 3.5t55 2.5t56.5 1.5t47 1t27 0.5h37t39.5 -5.5t31 -18t12.5 -36.5q0 -16 -8.5 -25.5t-8.5 -20.5q0 -9 11 -32
t23.5 -54.5t23.5 -68t11 -71.5q0 -64 -17 -126.5t-52 -111.5t-87.5 -79t-124.5 -30q-37 0 -81 14.5t-82.5 40t-64 61t-25.5 77.5q0 12 5 23.5t13.5 21.5t19.5 16t23 6q17 0 28.5 -10.5t21.5 -26t20.5 -33.5t26 -33.5t38.5 -26t58 -10.5zM167 583q0 26 16 41t41 15
q16 0 43 -16.5t52.5 -40t44 -48.5t18.5 -42q0 -15 -14 -27t-28 -12q-18 0 -47 13.5t-57 33t-48.5 42.5t-20.5 41zM125 85q-24 0 -40.5 13.5t-16.5 39.5q0 24 21.5 40.5t51 27t59.5 15.5t48 5q24 0 41 -8.5t17 -37.5q0 -20 -22.5 -37.5t-52.5 -30t-60 -20t-46 -7.5zM171 303
q-17 0 -41 2t-46.5 8.5t-38 20t-15.5 37.5q0 17 7 27.5t18 16t24.5 7.5t27.5 2q13 0 41 -3t56 -10.5t49 -19.5t21 -31q0 -20 -10 -31.5t-25.5 -17t-33.5 -7t-34 -1.5z" />
    <glyph glyph-name="K.001" unicode="&#xe00a;" horiz-adv-x="911" 
d="M610 142q29 0 58 5.5t56.5 12t54.5 12t53 5.5t41.5 -12.5t15.5 -39.5q0 -28 -29 -47.5t-68 -32t-78.5 -18.5t-60.5 -8q-3 0 -13 -1t-20.5 -2.5t-18.5 -4.5t-8 -8q0 -7 -6.5 -16.5t-15.5 -17.5t-19 -14t-17 -6q-27 0 -41 18.5t-20 44.5t-7 53t-1 44v69t1 105t2.5 119.5
t3.5 113.5t6 87.5t9 40.5q17 17 39 17q24 0 35 -18t14.5 -42t2.5 -49.5t-1 -40.5l3 -121q10 12 27 33t38.5 45.5t46 49.5t49 45t47 33t39.5 13q24 0 44.5 -16t20.5 -41q0 -13 -6 -23q-3 -5 -9 -10t-13.5 -9.5t-14.5 -8.5t-12 -7q-18 -10 -41.5 -31.5t-49 -50t-50 -61.5
t-44 -65.5t-31.5 -61.5t-12 -50v-32zM121 85q-24 0 -40.5 13.5t-16.5 39.5q0 24 21.5 40.5t51 27t59.5 15.5t48 5q24 0 41 -8.5t17 -37.5q0 -20 -22.5 -37.5t-52.5 -30t-60 -20t-46 -7.5zM167 303q-17 0 -41 2t-46.5 8.5t-38 20t-15.5 37.5q0 17 7 27.5t18 16t24.5 7.5
t27.5 2q13 0 41 -3t56 -10.5t49 -19.5t21 -31q0 -20 -10 -31.5t-25.5 -17t-33.5 -7t-34 -1.5zM163 583q0 26 16 41t41 15q16 0 43 -16.5t52.5 -40t44 -48.5t18.5 -42q0 -15 -14 -27t-28 -12q-18 0 -47 13.5t-57 33t-48.5 42.5t-20.5 41z" />
    <glyph glyph-name="L.001" unicode="&#xe00b;" horiz-adv-x="1028" 
d="M950 103q28 0 44 -9t16 -39q0 -22 -14.5 -37.5t-37 -25t-50 -15t-55 -7.5t-51 -2.5t-37.5 -0.5q-84 0 -141 10t-92 40t-50.5 84.5t-15.5 143.5q0 73 6 145.5t6 146.5q0 15 -2 29.5t-2 28.5q0 24 18.5 41t41.5 17t35 -11.5t17.5 -28.5t6 -37t0.5 -36q0 -75 -4 -148.5
t-4 -148.5q0 -46 3.5 -76t17.5 -48t41.5 -25t75.5 -7q57 0 113.5 8t113.5 8zM165 583q0 26 16 41t41 15q16 0 43 -16.5t52.5 -40t44 -48.5t18.5 -42q0 -15 -14 -27t-28 -12q-18 0 -47 13.5t-57 33t-48.5 42.5t-20.5 41zM123 85q-24 0 -40.5 13.5t-16.5 39.5q0 24 21.5 40.5
t51 27t59.5 15.5t48 5q24 0 41 -8.5t17 -37.5q0 -20 -22.5 -37.5t-52.5 -30t-60 -20t-46 -7.5zM169 303q-17 0 -41 2t-46.5 8.5t-38 20t-15.5 37.5q0 17 7 27.5t18 16t24.5 7.5t27.5 2q13 0 41 -3t56 -10.5t49 -19.5t21 -31q0 -20 -10 -31.5t-25.5 -17t-33.5 -7t-34 -1.5z
" />
    <glyph glyph-name="M.001" unicode="&#xe00c;" horiz-adv-x="1101" 
d="M461 246q0 42 2.5 83.5t6.5 83.5q3 31 4.5 61.5t8.5 57.5t22.5 49.5t45.5 39.5q11 6 23.5 11.5t25.5 5.5q17 0 29 -22.5t22.5 -55.5t21 -72.5t25 -72.5t34.5 -55.5t49 -22.5q21 0 42.5 22.5t39.5 53t31.5 61t18.5 47.5q4 14 9.5 28t13 25t19 17.5t29.5 6.5q6 0 11.5 -0.5
t11.5 -1.5q31 -5 45.5 -20t19 -36.5t3.5 -47.5t-1 -52l1 -361q0 -14 -1 -28t-6 -25t-15 -18.5t-28 -7.5q-21 0 -37.5 12t-23.5 32q-6 19 -8 57.5t-1.5 82t2 83t2.5 59.5q-19 -17 -39 -36t-41.5 -34.5t-46 -26t-52.5 -10.5q-35 0 -64.5 15t-53.5 39t-43.5 52.5t-35.5 55.5
q-4 -17 -6 -33t-2 -34q0 -29 1.5 -61t4.5 -65t8.5 -64.5t13.5 -59.5q6 -21 12 -42.5t6 -43.5q0 -23 -14.5 -36.5t-38.5 -13.5q-25 0 -42.5 19t-29.5 49.5t-19 67t-10.5 72t-4.5 65t-1 45.5zM160 583q0 26 16 41t41 15q16 0 43 -16.5t52.5 -40t44 -48.5t18.5 -42
q0 -15 -14 -27t-28 -12q-18 0 -47 13.5t-57 33t-48.5 42.5t-20.5 41zM118 85q-24 0 -40.5 13.5t-16.5 39.5q0 24 21.5 40.5t51 27t59.5 15.5t48 5q24 0 41 -8.5t17 -37.5q0 -20 -22.5 -37.5t-52.5 -30t-60 -20t-46 -7.5zM164 303q-17 0 -41 2t-46.5 8.5t-38 20t-15.5 37.5
q0 17 7 27.5t18 16t24.5 7.5t27.5 2q13 0 41 -3t56 -10.5t49 -19.5t21 -31q0 -20 -10 -31.5t-25.5 -17t-33.5 -7t-34 -1.5z" />
    <glyph glyph-name="N.001" unicode="&#xe00d;" horiz-adv-x="957" 
d="M480 361q0 12 -0.5 33.5t0 46t3.5 50.5t10 46.5t19.5 34t31.5 13.5q20 0 31.5 -12.5t17 -31.5t7 -43t0.5 -47t-3 -42.5t-2 -30.5q16 27 37.5 60t48 61t58.5 47t69 19q35 0 57 -16.5t34.5 -43.5t17 -60.5t5 -67.5t-1 -65t-1.5 -52q0 -65 3.5 -129.5t3.5 -128.5
q0 -22 -15 -34t-35 -12q-28 0 -45 18t-26 46.5t-12 63.5t-2.5 69.5t2.5 64.5t2 48q0 42 -1 84.5t-3 84.5l-2 1q-8 0 -22 -15.5t-28 -35.5t-26 -39t-16 -26q-29 -53 -49 -109.5t-28 -116.5q-2 -13 -4.5 -29.5t-8 -31.5t-16 -25t-27.5 -10t-35.5 14t-26.5 28q-5 9 -8 33
t-5.5 55.5t-4 67t-2.5 68.5t-1.5 59t-0.5 38zM162 583q0 26 16 41t41 15q16 0 43 -16.5t52.5 -40t44 -48.5t18.5 -42q0 -15 -14 -27t-28 -12q-18 0 -47 13.5t-57 33t-48.5 42.5t-20.5 41zM120 85q-24 0 -40.5 13.5t-16.5 39.5q0 24 21.5 40.5t51 27t59.5 15.5t48 5
q24 0 41 -8.5t17 -37.5q0 -20 -22.5 -37.5t-52.5 -30t-60 -20t-46 -7.5zM166 303q-17 0 -41 2t-46.5 8.5t-38 20t-15.5 37.5q0 17 7 27.5t18 16t24.5 7.5t27.5 2q13 0 41 -3t56 -10.5t49 -19.5t21 -31q0 -20 -10 -31.5t-25.5 -17t-33.5 -7t-34 -1.5z" />
    <glyph glyph-name="O.001" unicode="&#xe00e;" horiz-adv-x="1093" 
d="M429 230q0 37 10.5 84.5t30.5 96t47.5 95t62 82.5t74 58t83.5 22q17 0 37 -7t40 -16.5t39 -20.5t35 -18q81 -39 128 -100t47 -153q0 -80 -30 -155t-82.5 -132.5t-124 -92t-154.5 -34.5q-63 0 -108.5 24.5t-75.5 65t-44.5 93t-14.5 108.5zM659 505q-23 -29 -42.5 -63
t-33.5 -71t-22 -75.5t-8 -75.5q0 -30 7.5 -59t23.5 -51.5t40.5 -36.5t59.5 -14q47 0 93.5 26t83.5 66t60 89t23 95q0 44 -12 73.5t-33 48t-49.5 28t-60 13.5t-65 5t-65.5 2zM168 583q0 26 16 41t41 15q16 0 43 -16.5t52.5 -40t44 -48.5t18.5 -42q0 -15 -14 -27t-28 -12
q-18 0 -47 13.5t-57 33t-48.5 42.5t-20.5 41zM126 85q-24 0 -40.5 13.5t-16.5 39.5q0 24 21.5 40.5t51 27t59.5 15.5t48 5q24 0 41 -8.5t17 -37.5q0 -20 -22.5 -37.5t-52.5 -30t-60 -20t-46 -7.5zM172 303q-17 0 -41 2t-46.5 8.5t-38 20t-15.5 37.5q0 17 7 27.5t18 16
t24.5 7.5t27.5 2q13 0 41 -3t56 -10.5t49 -19.5t21 -31q0 -20 -10 -31.5t-25.5 -17t-33.5 -7t-34 -1.5z" />
    <glyph glyph-name="P.001" unicode="&#xe00f;" horiz-adv-x="913" 
d="M620 132q3 -32 6.5 -65t3.5 -65q0 -15 -2 -30t-8 -27t-17 -19.5t-30 -7.5q-22 0 -36 22t-22 56t-11 75t-3.5 80t0.5 70t1 45q0 45 3 90t3 90q0 16 -6.5 27.5t-15 22t-15 22.5t-6.5 29q0 33 19.5 58.5t49 42t63 25t61.5 8.5q44 0 86.5 -15t75.5 -42t53.5 -65.5t20.5 -86.5
q0 -47 -21 -92t-53.5 -85.5t-72 -74t-77.5 -55.5q-28 -16 -50 -33zM623 282q19 14 45.5 35.5t50.5 47t40.5 53t16.5 54.5q0 29 -13 47t-33.5 28t-45 14t-46.5 5q-11 -55 -17.5 -109t-6.5 -111q0 -16 2 -32.5t7 -31.5zM165 583q0 26 16 41t41 15q16 0 43 -16.5t52.5 -40
t44 -48.5t18.5 -42q0 -15 -14 -27t-28 -12q-18 0 -47 13.5t-57 33t-48.5 42.5t-20.5 41zM123 85q-24 0 -40.5 13.5t-16.5 39.5q0 24 21.5 40.5t51 27t59.5 15.5t48 5q24 0 41 -8.5t17 -37.5q0 -20 -22.5 -37.5t-52.5 -30t-60 -20t-46 -7.5zM169 303q-17 0 -41 2t-46.5 8.5
t-38 20t-15.5 37.5q0 17 7 27.5t18 16t24.5 7.5t27.5 2q13 0 41 -3t56 -10.5t49 -19.5t21 -31q0 -20 -10 -31.5t-25.5 -17t-33.5 -7t-34 -1.5z" />
    <glyph glyph-name="Q.001" unicode="&#xe010;" horiz-adv-x="976" 
d="M951 344q0 -35 -3.5 -61.5t-12 -50.5t-21.5 -47.5t-31 -51.5l18.5 -18.5t17.5 -20t13.5 -23t5.5 -25.5q0 -23 -16 -34t-37 -11q-15 0 -27.5 5.5t-23 14t-19.5 19t-19 20.5q-16 -7 -28 -11.5t-24 -7.5t-25 -4.5t-31 -1.5q-60 0 -109 21t-84.5 57.5t-55 87t-19.5 109.5
q0 53 20 106.5t55.5 96t84 69.5t105.5 27q60 0 109 -19.5t84 -54.5t54 -84t19 -107zM832 343q0 11 -1 23t-5 23q-8 22 -18 26.5t-21 5.5t-23 5t-24 26q-9 17 -23.5 30.5t-35.5 13.5q-27 0 -53.5 -19t-47.5 -47t-34.5 -59.5t-13.5 -55.5q0 -30 13 -59.5t35 -52.5t50.5 -37.5
t59.5 -14.5q6 0 12.5 2t10.5 7q-4 13 -11.5 26t-15 25.5t-13.5 25t-6 26.5q0 24 16.5 35.5t38.5 11.5q14 0 26 -8t22.5 -19.5t19.5 -24.5t17 -22q13 27 19 52t6 55zM161 583q0 26 16 41t41 15q16 0 43 -16.5t52.5 -40t44 -48.5t18.5 -42q0 -15 -14 -27t-28 -12
q-18 0 -47 13.5t-57 33t-48.5 42.5t-20.5 41zM119 85q-24 0 -40.5 13.5t-16.5 39.5q0 24 21.5 40.5t51 27t59.5 15.5t48 5q24 0 41 -8.5t17 -37.5q0 -20 -22.5 -37.5t-52.5 -30t-60 -20t-46 -7.5zM165 303q-17 0 -41 2t-46.5 8.5t-38 20t-15.5 37.5q0 17 7 27.5t18 16
t24.5 7.5t27.5 2q13 0 41 -3t56 -10.5t49 -19.5t21 -31q0 -20 -10 -31.5t-25.5 -17t-33.5 -7t-34 -1.5z" />
    <glyph glyph-name="R.001" unicode="&#xe011;" horiz-adv-x="917" 
d="M484 310q0 45 1 94.5t-8 93.5q-2 7 -3 13t-1 13q0 18 7.5 35.5t19.5 32t28 24t34 10.5q40 2 78.5 11t78.5 9q27 0 59.5 -6t60 -20t46 -36.5t18.5 -56.5q0 -46 -28.5 -83.5t-68.5 -69.5t-83.5 -59.5t-73.5 -54.5q17 -12 50 -30t66 -39.5t58 -44.5t25 -45
q0 -21 -14.5 -38.5t-36.5 -17.5q-14 0 -39.5 11t-54 26t-55 30t-40.5 23q-6 -11 -8 -29t-3.5 -38.5t-3.5 -41t-8 -37t-18 -27t-32 -10.5q-23 0 -34.5 8t-16.5 20.5t-5.5 28.5t-0.5 33q0 68 3 134.5t3 133.5zM692 530q-36 0 -55 -5t-27.5 -17.5t-10 -33t-1.5 -51.5l1 -41
q9 6 38.5 24.5t61 40.5t56 42t25.5 28q-7 4 -18.5 6.5t-24 4t-25 2t-20.5 0.5zM169 583q0 26 16 41t41 15q16 0 43 -16.5t52.5 -40t44 -48.5t18.5 -42q0 -15 -14 -27t-28 -12q-18 0 -47 13.5t-57 33t-48.5 42.5t-20.5 41zM127 85q-24 0 -40.5 13.5t-16.5 39.5
q0 24 21.5 40.5t51 27t59.5 15.5t48 5q24 0 41 -8.5t17 -37.5q0 -20 -22.5 -37.5t-52.5 -30t-60 -20t-46 -7.5zM173 303q-17 0 -41 2t-46.5 8.5t-38 20t-15.5 37.5q0 17 7 27.5t18 16t24.5 7.5t27.5 2q13 0 41 -3t56 -10.5t49 -19.5t21 -31q0 -20 -10 -31.5t-25.5 -17
t-33.5 -7t-34 -1.5z" />
    <glyph glyph-name="S.001" unicode="&#xe012;" horiz-adv-x="922" 
d="M750 665q38 0 66 -14.5t46.5 -39t27.5 -56.5t9 -67q0 -15 -4 -41.5t-13.5 -52.5t-24 -45t-35.5 -19q-9 0 -18.5 4.5t-17.5 12t-13 16.5t-5 18q0 28 10.5 55t10.5 56q0 20 -8.5 39.5t-31.5 19.5q-22 0 -48 -16.5t-48.5 -40.5t-38 -51t-15.5 -48q0 -22 20 -45t49.5 -46.5
t64.5 -49.5t64.5 -54t49.5 -59.5t20 -66.5q0 -42 -23 -67.5t-57 -39t-72.5 -18t-69.5 -4.5q-27 0 -68 4t-79 16.5t-65 35.5t-27 61q0 22 14.5 35.5t35.5 13.5q17 0 34 -6.5t32 -14.5q35 -18 66.5 -20.5t70.5 -2.5h15.5t26.5 1t25 3.5t11 8.5q-17 31 -42.5 53t-54 41
t-56.5 38.5t-51 46t-37 63.5t-14 90q0 43 26 88t65.5 82t87 60t89.5 23zM168 583q0 26 16 41t41 15q16 0 43 -16.5t52.5 -40t44 -48.5t18.5 -42q0 -15 -14 -27t-28 -12q-18 0 -47 13.5t-57 33t-48.5 42.5t-20.5 41zM126 85q-24 0 -40.5 13.5t-16.5 39.5q0 24 21.5 40.5
t51 27t59.5 15.5t48 5q24 0 41 -8.5t17 -37.5q0 -20 -22.5 -37.5t-52.5 -30t-60 -20t-46 -7.5zM172 303q-17 0 -41 2t-46.5 8.5t-38 20t-15.5 37.5q0 17 7 27.5t18 16t24.5 7.5t27.5 2q13 0 41 -3t56 -10.5t49 -19.5t21 -31q0 -20 -10 -31.5t-25.5 -17t-33.5 -7t-34 -1.5z
" />
    <glyph glyph-name="T.001" unicode="&#xe013;" horiz-adv-x="1063" 
d="M1042 574q0 -21 -17 -33.5t-44 -19t-59.5 -9t-63.5 -2t-57 1t-39 0.5q-5 -86 -1 -173.5t4 -174.5q0 -21 2.5 -56t-1.5 -69t-18 -58.5t-48 -24.5q-16 0 -29 10q-9 6 -13.5 33t-6.5 64t-2 80.5t0.5 83.5t1.5 72.5t1 47.5v31t-0.5 53t-2 51.5t-4.5 27.5q-20 3 -38 3
q-26 0 -50.5 -3t-50.5 -3q-21 0 -36 16.5t-15 37.5q0 13 6.5 23.5t16.5 18.5q9 8 33 13t55.5 8t67 4t67.5 1.5t57.5 0.5h37.5q35 1 68.5 1.5t68.5 0.5h35.5t35.5 -5t27 -17t11 -36zM160 583q0 26 16 41t41 15q16 0 43 -16.5t52.5 -40t44 -48.5t18.5 -42q0 -15 -14 -27
t-28 -12q-18 0 -47 13.5t-57 33t-48.5 42.5t-20.5 41zM118 85q-24 0 -40.5 13.5t-16.5 39.5q0 24 21.5 40.5t51 27t59.5 15.5t48 5q24 0 41 -8.5t17 -37.5q0 -20 -22.5 -37.5t-52.5 -30t-60 -20t-46 -7.5zM164 303q-17 0 -41 2t-46.5 8.5t-38 20t-15.5 37.5q0 17 7 27.5
t18 16t24.5 7.5t27.5 2q13 0 41 -3t56 -10.5t49 -19.5t21 -31q0 -20 -10 -31.5t-25.5 -17t-33.5 -7t-34 -1.5z" />
    <glyph glyph-name="U.001" unicode="&#xe014;" horiz-adv-x="1004" 
d="M954 309q0 -38 4 -75.5t9 -75t9 -74.5t4 -74q0 -26 -15.5 -40.5t-40.5 -14.5q-30 0 -45.5 23t-23 54.5t-10.5 64.5t-7 53q-24 -9 -41 -23t-35 -27.5t-42 -23.5t-63 -10q-55 0 -90.5 28t-56 70t-28.5 92t-8 94q0 17 2 45.5t7 61.5t13 66t21 60t30.5 44t40.5 17
q17 0 31.5 -14.5t14.5 -31.5q0 -15 -6.5 -32.5t-11.5 -31.5q-14 -38 -20.5 -88t-6.5 -90q0 -15 2 -44t9 -57.5t21 -50t37 -21.5q11 0 25.5 8.5t28 20t25 24.5t17.5 22q12 19 24 47t21.5 58.5t17 60t12.5 52.5q3 16 7 41.5t12 50.5t21.5 43t36.5 18q21 0 33 -5t17.5 -14.5
t7 -24t1.5 -33.5q0 -61 -5.5 -121.5t-5.5 -121.5zM161 583q0 26 16 41t41 15q16 0 43 -16.5t52.5 -40t44 -48.5t18.5 -42q0 -15 -14 -27t-28 -12q-18 0 -47 13.5t-57 33t-48.5 42.5t-20.5 41zM119 85q-24 0 -40.5 13.5t-16.5 39.5q0 24 21.5 40.5t51 27t59.5 15.5t48 5
q24 0 41 -8.5t17 -37.5q0 -20 -22.5 -37.5t-52.5 -30t-60 -20t-46 -7.5zM165 303q-17 0 -41 2t-46.5 8.5t-38 20t-15.5 37.5q0 17 7 27.5t18 16t24.5 7.5t27.5 2q13 0 41 -3t56 -10.5t49 -19.5t21 -31q0 -20 -10 -31.5t-25.5 -17t-33.5 -7t-34 -1.5z" />
    <glyph glyph-name="V.001" unicode="&#xe015;" horiz-adv-x="979" 
d="M958 632q0 -29 -10.5 -82t-27.5 -118t-38.5 -136t-44.5 -134.5t-45.5 -113.5t-40.5 -73q-15 -19 -38 -35t-49 -16q-31 0 -56 41t-44 104.5t-33 140.5t-23 148.5t-13 128.5t-4 81q0 20 14.5 34.5t34.5 14.5q26 0 42 -16.5t21 -41.5q3 -17 8 -54.5t10.5 -84t12.5 -97.5
t14 -95.5t14.5 -77t13.5 -42.5q0 -2 2 -2q3 0 6 4.5t6 10.5t5 11.5t3 7.5q48 111 82 232.5t58 239.5q3 12 5.5 27t8.5 28t15.5 22t25.5 9q35 0 50 -15.5t15 -50.5zM168 583q0 26 16 41t41 15q16 0 43 -16.5t52.5 -40t44 -48.5t18.5 -42q0 -15 -14 -27t-28 -12
q-18 0 -47 13.5t-57 33t-48.5 42.5t-20.5 41zM126 85q-24 0 -40.5 13.5t-16.5 39.5q0 24 21.5 40.5t51 27t59.5 15.5t48 5q24 0 41 -8.5t17 -37.5q0 -20 -22.5 -37.5t-52.5 -30t-60 -20t-46 -7.5zM172 303q-17 0 -41 2t-46.5 8.5t-38 20t-15.5 37.5q0 17 7 27.5t18 16
t24.5 7.5t27.5 2q13 0 41 -3t56 -10.5t49 -19.5t21 -31q0 -20 -10 -31.5t-25.5 -17t-33.5 -7t-34 -1.5z" />
    <glyph glyph-name="W.001" unicode="&#xe016;" horiz-adv-x="1264" 
d="M1162 626q27 0 43 -19t23.5 -45.5t9.5 -55.5t2 -48q0 -62 -10 -127t-32.5 -126.5t-58.5 -115.5t-87 -93q-29 -22 -64 -39t-73 -17q-42 0 -71.5 22t-49.5 55t-33.5 71.5t-23.5 70.5q-14 -15 -28 -29.5t-30 -26.5t-35 -19t-41 -7q-31 0 -52.5 16t-35 41.5t-21 57.5
t-10.5 64.5t-3.5 62t-0.5 50.5q0 16 -1 39.5t-0.5 50t3.5 52.5t11 47.5t22 34.5t37 13t37 -16.5t14 -39.5q0 -38 -5 -77t-5 -78q0 -37 2 -73.5t7 -73.5q0 -2 1 -8.5t2.5 -13t3.5 -12t5 -5.5q9 0 20 15t23 37t25 48t27.5 48t30 37t32.5 15q10 0 19.5 -4t17.5 -9
q26 -16 30.5 -36.5t4.5 -49.5q0 -10 2 -32t6.5 -49.5t11 -57t15 -54t19 -40t23.5 -15.5q12 0 29 11.5t34 27t32 31.5t21 25q22 32 37.5 70t25.5 79t14.5 82.5t4.5 79.5q0 28 -8 54t-8 52q0 10 6 19t14.5 16.5t19 12t19.5 4.5zM162 583q0 26 16 41t41 15q16 0 43 -16.5
t52.5 -40t44 -48.5t18.5 -42q0 -15 -14 -27t-28 -12q-18 0 -47 13.5t-57 33t-48.5 42.5t-20.5 41zM120 85q-24 0 -40.5 13.5t-16.5 39.5q0 24 21.5 40.5t51 27t59.5 15.5t48 5q24 0 41 -8.5t17 -37.5q0 -20 -22.5 -37.5t-52.5 -30t-60 -20t-46 -7.5zM166 303q-17 0 -41 2
t-46.5 8.5t-38 20t-15.5 37.5q0 17 7 27.5t18 16t24.5 7.5t27.5 2q13 0 41 -3t56 -10.5t49 -19.5t21 -31q0 -20 -10 -31.5t-25.5 -17t-33.5 -7t-34 -1.5z" />
    <glyph glyph-name="X.001" unicode="&#xe017;" horiz-adv-x="985" 
d="M520 699q12 0 21.5 -6t17.5 -14q5 -6 9 -15.5t7.5 -20t6 -20.5t4.5 -17q14 -53 38.5 -105.5t46.5 -102.5q9 10 25 28.5t36 40.5t42.5 45t44.5 41.5t42 30.5t35 12q21 0 40.5 -12t19.5 -35q0 -12 -16 -31.5t-39.5 -43.5t-51 -50t-51 -51.5t-39.5 -48.5t-16 -40
q0 -8 14.5 -30t36 -51t47 -62t47 -63.5t36 -55t14.5 -36.5q0 -20 -15 -32.5t-34 -12.5q-27 0 -60 28.5t-64.5 67t-58 77t-42.5 58.5q-16 -24 -34 -57.5t-38.5 -65.5t-44.5 -57t-53 -31q-20 6 -34.5 22.5t-14.5 38.5q0 10 9 30.5t23 46.5t31.5 55t34 56t30 50.5t20.5 37.5
q-14 28 -35 72.5t-41 93.5t-34.5 95.5t-14.5 78.5q0 22 14 41.5t38 19.5zM160 583q0 26 16 41t41 15q16 0 43 -16.5t52.5 -40t44 -48.5t18.5 -42q0 -15 -14 -27t-28 -12q-18 0 -47 13.5t-57 33t-48.5 42.5t-20.5 41zM118 85q-24 0 -40.5 13.5t-16.5 39.5q0 24 21.5 40.5
t51 27t59.5 15.5t48 5q24 0 41 -8.5t17 -37.5q0 -20 -22.5 -37.5t-52.5 -30t-60 -20t-46 -7.5zM164 303q-17 0 -41 2t-46.5 8.5t-38 20t-15.5 37.5q0 17 7 27.5t18 16t24.5 7.5t27.5 2q13 0 41 -3t56 -10.5t49 -19.5t21 -31q0 -20 -10 -31.5t-25.5 -17t-33.5 -7t-34 -1.5z
" />
    <glyph glyph-name="Y.001" unicode="&#xe018;" horiz-adv-x="915" 
d="M830 626q23 0 40.5 -17t17.5 -40q0 -7 -12 -33.5t-30.5 -63.5t-41 -78.5t-43 -77.5t-37 -62t-22.5 -31q-8 -6 -10.5 -30t-2.5 -52.5t1.5 -55t1.5 -38.5q0 -14 -1.5 -28t-6.5 -24.5t-15.5 -17t-28.5 -6.5q-27 0 -39.5 17t-17 40.5t-4.5 49.5v44v40t-2 37t-7.5 35.5
t-16.5 36.5q-6 11 -16 35t-21 55.5t-22 65.5t-20 65.5t-14.5 55.5t-5.5 35q0 18 13.5 33.5t31.5 15.5q20 0 36 -15t28 -39t22 -54t19.5 -59t19 -55t21.5 -41q7 10 19.5 31t28 47.5t32 55t31.5 52.5t26 40.5t16 20.5q13 10 32 10zM165 583q0 26 16 41t41 15q16 0 43 -16.5
t52.5 -40t44 -48.5t18.5 -42q0 -15 -14 -27t-28 -12q-18 0 -47 13.5t-57 33t-48.5 42.5t-20.5 41zM123 85q-24 0 -40.5 13.5t-16.5 39.5q0 24 21.5 40.5t51 27t59.5 15.5t48 5q24 0 41 -8.5t17 -37.5q0 -20 -22.5 -37.5t-52.5 -30t-60 -20t-46 -7.5zM169 303q-17 0 -41 2
t-46.5 8.5t-38 20t-15.5 37.5q0 17 7 27.5t18 16t24.5 7.5t27.5 2q13 0 41 -3t56 -10.5t49 -19.5t21 -31q0 -20 -10 -31.5t-25.5 -17t-33.5 -7t-34 -1.5z" />
    <glyph glyph-name="Z.001" unicode="&#xe019;" horiz-adv-x="1036" 
d="M1000 36q0 -35 -30 -50q-4 -2 -33.5 -3.5t-72.5 -3.5t-93.5 -3.5t-97 -2.5t-83 -1.5t-50.5 -0.5q-18 0 -37.5 2.5t-35.5 10t-26.5 21.5t-10.5 37q0 38 29.5 80.5t73.5 86t95.5 85t95.5 77t73.5 63t29.5 41.5q0 3 -5.5 4.5t-12.5 1.5h-13h-7q-57 0 -113 -4t-113 -4
q-14 0 -31 1t-32 6t-25 15.5t-10 29.5q0 22 15.5 36.5t35.5 17.5q72 11 148 12.5t149 1.5q22 0 54 -0.5t62 -7.5t51.5 -23.5t21.5 -47.5q0 -27 -22.5 -60t-58.5 -70t-79.5 -75.5t-86 -75.5t-78.5 -71t-56 -62l164 -1q13 0 34 1.5t45 1.5t48 -2t43.5 -9t32 -20t12.5 -35z
M161 583q0 26 16 41t41 15q16 0 43 -16.5t52.5 -40t44 -48.5t18.5 -42q0 -15 -14 -27t-28 -12q-18 0 -47 13.5t-57 33t-48.5 42.5t-20.5 41zM119 85q-24 0 -40.5 13.5t-16.5 39.5q0 24 21.5 40.5t51 27t59.5 15.5t48 5q24 0 41 -8.5t17 -37.5q0 -20 -22.5 -37.5t-52.5 -30
t-60 -20t-46 -7.5zM165 303q-17 0 -41 2t-46.5 8.5t-38 20t-15.5 37.5q0 17 7 27.5t18 16t24.5 7.5t27.5 2q13 0 41 -3t56 -10.5t49 -19.5t21 -31q0 -20 -10 -31.5t-25.5 -17t-33.5 -7t-34 -1.5z" />
    <glyph glyph-name="a.001" unicode="&#xe01a;" horiz-adv-x="854" 
d="M521 -11q-28 0 -50 12t-37.5 31.5t-23.5 44.5t-8 50l1 33q3 40 24 89.5t54.5 93.5t76 74t86.5 30q25 0 43 -10t27 -10q8 0 20.5 9.5t34.5 9.5q31 0 43.5 -22t15.5 -52t0 -61.5t-3 -50.5v-61q0 -18 1.5 -40.5t-2 -42t-14.5 -33t-36 -13.5q-8 0 -17.5 3t-17.5 8.5
t-13.5 13.5t-5.5 17q0 2 -2 2q-6 0 -23 -19.5t-43 -43t-59.5 -43t-71.5 -19.5zM517 136q0 -6 2 -15.5t11 -9.5q23 15 45 36.5t39 46.5t27.5 53.5t10.5 57.5q0 2 -0.5 7t-1.5 10t-3 8.5t-6 3.5q-19 0 -41 -24t-40.5 -56.5t-30.5 -66t-12 -51.5zM162 583q0 26 16 41t41 15
q16 0 43 -16.5t52.5 -40t44 -48.5t18.5 -42q0 -15 -14 -27t-28 -12q-18 0 -47 13.5t-57 33t-48.5 42.5t-20.5 41zM120 85q-24 0 -40.5 13.5t-16.5 39.5q0 24 21.5 40.5t51 27t59.5 15.5t48 5q24 0 41 -8.5t17 -37.5q0 -20 -22.5 -37.5t-52.5 -30t-60 -20t-46 -7.5zM166 303
q-17 0 -41 2t-46.5 8.5t-38 20t-15.5 37.5q0 17 7 27.5t18 16t24.5 7.5t27.5 2q13 0 41 -3t56 -10.5t49 -19.5t21 -31q0 -20 -10 -31.5t-25.5 -17t-33.5 -7t-34 -1.5z" />
    <glyph glyph-name="b.001" unicode="&#xe01b;" horiz-adv-x="867" 
d="M551 98q-5 8 -19 12q-24 5 -34.5 21.5t-14 37.5t-2.5 44t1 43q0 60 -1 119.5t-1 119.5q0 14 -0.5 38t3 47t14 40t32.5 17q21 0 34.5 -13.5t20.5 -34.5t9.5 -47t2 -52t-1.5 -48.5t-1 -36.5q0 -15 2 -28.5t5 -27.5q30 23 59 40.5t69 17.5q24 0 44.5 -9t36.5 -25t25 -36.5
t9 -44.5q0 -26 -11 -58.5t-29.5 -65t-43 -63.5t-52.5 -55.5t-57 -39t-57 -14.5q-61 0 -61 60q0 13 3 19.5t6.5 10t6.5 5.5t3 7zM610 131q0 -2 1 -2q12 9 30 27t35.5 39.5t30 43.5t12.5 37q0 5 -2 5q-10 -6 -28 -26.5t-35.5 -44.5t-30.5 -46.5t-13 -32.5zM173 583q0 26 16 41
t41 15q16 0 43 -16.5t52.5 -40t44 -48.5t18.5 -42q0 -15 -14 -27t-28 -12q-18 0 -47 13.5t-57 33t-48.5 42.5t-20.5 41zM131 85q-24 0 -40.5 13.5t-16.5 39.5q0 24 21.5 40.5t51 27t59.5 15.5t48 5q24 0 41 -8.5t17 -37.5q0 -20 -22.5 -37.5t-52.5 -30t-60 -20t-46 -7.5z
M177 303q-17 0 -41 2t-46.5 8.5t-38 20t-15.5 37.5q0 17 7 27.5t18 16t24.5 7.5t27.5 2q13 0 41 -3t56 -10.5t49 -19.5t21 -31q0 -20 -10 -31.5t-25.5 -17t-33.5 -7t-34 -1.5z" />
    <glyph glyph-name="c.001" unicode="&#xe01c;" horiz-adv-x="742" 
d="M594 343q-15 -7 -27 -22.5t-20.5 -35t-12.5 -39.5t-4 -36q0 -14 3.5 -30t11 -30t19.5 -23.5t29 -9.5q10 0 25 9t35 9q23 0 41.5 -15t18.5 -39q0 -15 -12 -31t-29.5 -29t-36.5 -21.5t-33 -8.5q-44 0 -79 18.5t-59.5 49.5t-37.5 69.5t-13 79.5q0 37 13 81.5t37.5 83.5
t59 65t77.5 26q28 0 50 -14.5t37 -37t22.5 -49.5t7.5 -52q0 -30 -13 -48t-45 -18q-26 0 -35.5 15.5t-13.5 33.5t-5.5 33.5t-10.5 15.5zM168 583q0 26 16 41t41 15q16 0 43 -16.5t52.5 -40t44 -48.5t18.5 -42q0 -15 -14 -27t-28 -12q-18 0 -47 13.5t-57 33t-48.5 42.5
t-20.5 41zM126 85q-24 0 -40.5 13.5t-16.5 39.5q0 24 21.5 40.5t51 27t59.5 15.5t48 5q24 0 41 -8.5t17 -37.5q0 -20 -22.5 -37.5t-52.5 -30t-60 -20t-46 -7.5zM172 303q-17 0 -41 2t-46.5 8.5t-38 20t-15.5 37.5q0 17 7 27.5t18 16t24.5 7.5t27.5 2q13 0 41 -3t56 -10.5
t49 -19.5t21 -31q0 -20 -10 -31.5t-25.5 -17t-33.5 -7t-34 -1.5z" />
    <glyph glyph-name="d.001" unicode="&#xe01d;" horiz-adv-x="804" 
d="M417 159q0 54 17 102t48.5 82.5t77.5 52t103 10.5l5 124q1 16 0.5 44t4.5 55t18 46.5t41 19.5q10 0 17 -4.5t14 -10.5q5 -5 8.5 -30t5.5 -60t2.5 -76t0.5 -78.5v-66.5v-40q0 -26 -0.5 -59.5t-5 -67t-15 -63.5t-31.5 -49q-23 -20 -41 -36.5t-37 -28t-42 -18t-56 -6.5
q-30 0 -55 14t-43 36.5t-27.5 51t-9.5 56.5zM611 284q-17 0 -30 -14t-22.5 -33.5t-14.5 -40t-5 -33.5q0 -17 5 -27t20 -17q32 7 56 33t42 51q-2 5 -7.5 18.5t-12 27.5t-15 24.5t-16.5 10.5zM168 583q0 26 16 41t41 15q16 0 43 -16.5t52.5 -40t44 -48.5t18.5 -42
q0 -15 -14 -27t-28 -12q-18 0 -47 13.5t-57 33t-48.5 42.5t-20.5 41zM126 85q-24 0 -40.5 13.5t-16.5 39.5q0 24 21.5 40.5t51 27t59.5 15.5t48 5q24 0 41 -8.5t17 -37.5q0 -20 -22.5 -37.5t-52.5 -30t-60 -20t-46 -7.5zM172 303q-17 0 -41 2t-46.5 8.5t-38 20t-15.5 37.5
q0 17 7 27.5t18 16t24.5 7.5t27.5 2q13 0 41 -3t56 -10.5t49 -19.5t21 -31q0 -20 -10 -31.5t-25.5 -17t-33.5 -7t-34 -1.5z" />
    <glyph glyph-name="e.001" unicode="&#xe01e;" horiz-adv-x="860" 
d="M416 210q0 44 13 87t38.5 77.5t63 55.5t86.5 21q54 0 90 -33t36 -89q0 -38 -9 -66.5t-26 -51.5t-40.5 -42.5t-52.5 -39.5h28q18 0 37.5 7.5t38 17t36 17t32.5 7.5q9 0 18.5 -5.5t17.5 -14t13.5 -18t5.5 -18.5q0 -30 -28.5 -52t-67.5 -36.5t-79 -21.5t-62 -7q-44 0 -79 16
t-59.5 43.5t-37.5 65t-13 80.5zM542 262q0 -11 7.5 -16.5t17.5 -5.5q14 0 24.5 7.5t18 19t11.5 25t4 25.5q0 5 -0.5 12t-7.5 7q-9 0 -22 -8.5t-24.5 -20t-20 -24t-8.5 -21.5zM166 583q0 26 16 41t41 15q16 0 43 -16.5t52.5 -40t44 -48.5t18.5 -42q0 -15 -14 -27t-28 -12
q-18 0 -47 13.5t-57 33t-48.5 42.5t-20.5 41zM124 85q-24 0 -40.5 13.5t-16.5 39.5q0 24 21.5 40.5t51 27t59.5 15.5t48 5q24 0 41 -8.5t17 -37.5q0 -20 -22.5 -37.5t-52.5 -30t-60 -20t-46 -7.5zM170 303q-17 0 -41 2t-46.5 8.5t-38 20t-15.5 37.5q0 17 7 27.5t18 16
t24.5 7.5t27.5 2q13 0 41 -3t56 -10.5t49 -19.5t21 -31q0 -20 -10 -31.5t-25.5 -17t-33.5 -7t-34 -1.5z" />
    <glyph glyph-name="f.001" unicode="&#xe01f;" horiz-adv-x="736" 
d="M568 157q20 2 39.5 5t39.5 3q19 0 36 -17t17 -36q0 -20 -13.5 -32t-32 -20t-37.5 -14.5t-30 -15.5q0 -23 9 -48t20 -48.5t20 -44.5t9 -34q0 -11 -5.5 -20.5t-14 -17.5t-18.5 -12.5t-20 -4.5q-25 0 -42.5 15.5t-30 38t-20.5 47.5t-12 43q-2 9 -4 19t-5.5 18t-9.5 13t-18 5
q-20 0 -34.5 13t-14.5 34q0 16 8 28.5t21 20.5q13 9 19 20t8.5 23.5t3 26t1.5 28.5q1 21 6 53t14.5 68.5t22.5 73t31.5 65.5t42 47.5t52.5 18.5q28 0 45 -10.5t26 -28t12 -40t3 -45.5q0 -17 -1.5 -35.5t-8 -34t-19 -26t-34.5 -10.5q-27 0 -43 24q-1 1 -2 3l-3 3q-3 0 -5 -4
t-3.5 -9t-2.5 -10t-1 -6q-8 -33 -13 -66t-8 -67zM166 583q0 26 16 41t41 15q16 0 43 -16.5t52.5 -40t44 -48.5t18.5 -42q0 -15 -14 -27t-28 -12q-18 0 -47 13.5t-57 33t-48.5 42.5t-20.5 41zM124 85q-24 0 -40.5 13.5t-16.5 39.5q0 24 21.5 40.5t51 27t59.5 15.5t48 5
q24 0 41 -8.5t17 -37.5q0 -20 -22.5 -37.5t-52.5 -30t-60 -20t-46 -7.5zM170 303q-17 0 -41 2t-46.5 8.5t-38 20t-15.5 37.5q0 17 7 27.5t18 16t24.5 7.5t27.5 2q13 0 41 -3t56 -10.5t49 -19.5t21 -31q0 -20 -10 -31.5t-25.5 -17t-33.5 -7t-34 -1.5z" />
    <glyph glyph-name="g.001" unicode="&#xe020;" horiz-adv-x="885" 
d="M556 22q-69 0 -100 39.5t-31 104.5q0 42 21 82.5t54.5 73t75.5 52t83 19.5q34 0 64 -15q15 -8 31.5 -13t33.5 -7q20 -2 31 -8t17 -15.5t8 -23.5t4 -32q3 -39 8.5 -79t5.5 -79q0 -41 -6.5 -82t-22.5 -78q-13 -30 -38 -63.5t-56.5 -61.5t-67.5 -46.5t-71 -18.5
q-58 0 -58 56q0 20 13.5 32.5t34.5 25t45.5 28t46 40t37.5 62.5t19 95q-23 -18 -43 -34t-41 -28t-44.5 -19t-53.5 -7zM541 165q0 -10 3.5 -16.5t14.5 -6.5q15 0 35 9.5t37.5 24.5t29.5 33t12 35q0 10 -3 23t-16 13q-16 0 -35.5 -12t-37 -29t-29 -37.5t-11.5 -36.5zM180 583
q0 26 16 41t41 15q16 0 43 -16.5t52.5 -40t44 -48.5t18.5 -42q0 -15 -14 -27t-28 -12q-18 0 -47 13.5t-57 33t-48.5 42.5t-20.5 41zM138 85q-24 0 -40.5 13.5t-16.5 39.5q0 24 21.5 40.5t51 27t59.5 15.5t48 5q24 0 41 -8.5t17 -37.5q0 -20 -22.5 -37.5t-52.5 -30t-60 -20
t-46 -7.5zM184 303q-17 0 -41 2t-46.5 8.5t-38 20t-15.5 37.5q0 17 7 27.5t18 16t24.5 7.5t27.5 2q13 0 41 -3t56 -10.5t49 -19.5t21 -31q0 -20 -10 -31.5t-25.5 -17t-33.5 -7t-34 -1.5z" />
    <glyph glyph-name="h.001" unicode="&#xe021;" horiz-adv-x="805" 
d="M730 -9q-23 0 -37.5 13.5t-22 34.5t-10.5 47t-3.5 51.5t1 47t1.5 34.5q-4 -9 -10 -29t-15 -44.5t-20.5 -50t-25 -47t-29 -35t-32.5 -13.5q-14 0 -27.5 5t-22.5 16q-5 6 -7.5 23t-3.5 40.5t-0.5 50t1 51t1 44.5t0.5 30q0 65 -3 129t-3 128q0 12 1.5 26.5t6.5 26.5
t14.5 20.5t25.5 8.5q22 0 36 -18t22 -46.5t11.5 -63t5 -68t1 -62t0.5 -43.5q13 33 39 58t64 25q32 0 51 -16.5t29 -43t12.5 -59.5t2 -66.5t-1.5 -64t1 -51.5q1 -8 1.5 -15.5t0.5 -15.5q0 -24 -15 -41t-40 -17zM161 583q0 26 16 41t41 15q16 0 43 -16.5t52.5 -40t44 -48.5
t18.5 -42q0 -15 -14 -27t-28 -12q-18 0 -47 13.5t-57 33t-48.5 42.5t-20.5 41zM119 85q-24 0 -40.5 13.5t-16.5 39.5q0 24 21.5 40.5t51 27t59.5 15.5t48 5q24 0 41 -8.5t17 -37.5q0 -20 -22.5 -37.5t-52.5 -30t-60 -20t-46 -7.5zM165 303q-17 0 -41 2t-46.5 8.5t-38 20
t-15.5 37.5q0 17 7 27.5t18 16t24.5 7.5t27.5 2q13 0 41 -3t56 -10.5t49 -19.5t21 -31q0 -20 -10 -31.5t-25.5 -17t-33.5 -7t-34 -1.5z" />
    <glyph glyph-name="i.001" unicode="&#xe022;" horiz-adv-x="605" 
d="M579 127q0 -18 0.5 -40t-4 -41.5t-17 -33t-37.5 -13.5q-23 0 -34.5 15.5t-16 37t-4.5 44.5v38q0 12 -1 34.5t-1 49t2.5 54t9.5 50t19.5 36.5t33.5 14q13 0 22.5 -6.5t16 -16t10 -21.5t3.5 -23zM136 85q-24 0 -40.5 13.5t-16.5 39.5q0 24 21.5 40.5t51 27t59.5 15.5t48 5
q24 0 41 -8.5t17 -37.5q0 -20 -22.5 -37.5t-52.5 -30t-60 -20t-46 -7.5zM182 303q-17 0 -41 2t-46.5 8.5t-38 20t-15.5 37.5q0 17 7 27.5t18 16t24.5 7.5t27.5 2q13 0 41 -3t56 -10.5t49 -19.5t21 -31q0 -20 -10 -31.5t-25.5 -17t-33.5 -7t-34 -1.5zM178 583q0 26 16 41
t41 15q16 0 43 -16.5t52.5 -40t44 -48.5t18.5 -42q0 -15 -14 -27t-28 -12q-18 0 -47 13.5t-57 33t-48.5 42.5t-20.5 41zM519 407q-22 0 -35.5 19t-13.5 39q0 21 14 38.5t37 17.5q21 0 38 -18.5t17 -39.5t-18 -38.5t-39 -17.5z" />
    <glyph glyph-name="j.001" unicode="&#xe023;" horiz-adv-x="640" 
d="M553 312q28 0 41.5 -23.5t18 -55.5t3.5 -65t-1 -53q0 -26 -2 -61t-8 -72.5t-17 -73.5t-29.5 -65t-45.5 -46.5t-64 -17.5q-23 0 -47 12t-44 31t-32.5 42.5t-12.5 46.5t17.5 42t40.5 19q20 0 31.5 -10t19 -22.5t13 -22.5t14.5 -10q14 0 23.5 15.5t15 40t8.5 53t4 55t1.5 47
t0.5 27.5q0 15 -0.5 43t3 55.5t14 48t34.5 20.5zM493 426q0 15 5.5 30t15 28t22.5 21t29 8q22 0 38 -11.5t16 -34.5q0 -12 -7 -28.5t-18 -31.5t-24 -25.5t-26 -10.5q-22 0 -36.5 17t-14.5 38zM173 583q0 26 16 41t41 15q16 0 43 -16.5t52.5 -40t44 -48.5t18.5 -42
q0 -15 -14 -27t-28 -12q-18 0 -47 13.5t-57 33t-48.5 42.5t-20.5 41zM131 85q-24 0 -40.5 13.5t-16.5 39.5q0 24 21.5 40.5t51 27t59.5 15.5t48 5q24 0 41 -8.5t17 -37.5q0 -20 -22.5 -37.5t-52.5 -30t-60 -20t-46 -7.5zM177 303q-17 0 -41 2t-46.5 8.5t-38 20t-15.5 37.5
q0 17 7 27.5t18 16t24.5 7.5t27.5 2q13 0 41 -3t56 -10.5t49 -19.5t21 -31q0 -20 -10 -31.5t-25.5 -17t-33.5 -7t-34 -1.5z" />
    <glyph glyph-name="k.001" unicode="&#xe024;" horiz-adv-x="785" 
d="M642 184q0 -12 7.5 -15.5t18 -3t21 2.5t17.5 2q9 0 18 -5.5t16.5 -14t12 -18.5t4.5 -19q0 -17 -11.5 -30.5t-28.5 -23.5t-35.5 -15.5t-32.5 -5.5q-10 0 -18.5 3t-16.5 3q-6 0 -8.5 -12.5t-7.5 -27.5t-16.5 -27.5t-35.5 -12.5q-22 0 -35.5 17.5t-21.5 44.5t-11.5 60.5
t-4.5 65t-0.5 58t0.5 39.5q0 16 -0.5 46.5t0.5 66.5t4.5 73.5t12.5 67.5t24 49.5t38 19.5t34.5 -14.5t11.5 -36.5q0 -31 -5 -61.5t-5 -61.5l1 -24q12 10 24.5 26t26 31t29 25.5t33.5 10.5q10 0 21 -5.5t20 -14t14.5 -19.5t5.5 -21q0 -1 -9 -12.5t-22.5 -29.5t-29 -40.5
t-29 -47t-22.5 -49t-9 -44.5zM169 583q0 26 16 41t41 15q16 0 43 -16.5t52.5 -40t44 -48.5t18.5 -42q0 -15 -14 -27t-28 -12q-18 0 -47 13.5t-57 33t-48.5 42.5t-20.5 41zM127 85q-24 0 -40.5 13.5t-16.5 39.5q0 24 21.5 40.5t51 27t59.5 15.5t48 5q24 0 41 -8.5t17 -37.5
q0 -20 -22.5 -37.5t-52.5 -30t-60 -20t-46 -7.5zM173 303q-17 0 -41 2t-46.5 8.5t-38 20t-15.5 37.5q0 17 7 27.5t18 16t24.5 7.5t27.5 2q13 0 41 -3t56 -10.5t49 -19.5t21 -31q0 -20 -10 -31.5t-25.5 -17t-33.5 -7t-34 -1.5z" />
    <glyph glyph-name="l.001" unicode="&#xe025;" horiz-adv-x="815" 
d="M762 129q14 -8 24 -20t10 -29q0 -21 -13.5 -37t-33 -27t-41.5 -16.5t-39 -5.5q-59 0 -97 29.5t-60 74.5t-30 98t-8 101q0 17 1 43.5t4 56t9.5 58.5t18 52.5t28.5 38t41 14.5q21 0 28.5 -13t7.5 -31q0 -29 -4 -57t-8.5 -56t-8 -56.5t-3.5 -57.5q0 -15 3 -44.5t11 -59
t23 -51t38 -21.5q22 0 43 9t44 9q4 0 12 -2zM175 583q0 26 16 41t41 15q16 0 43 -16.5t52.5 -40t44 -48.5t18.5 -42q0 -15 -14 -27t-28 -12q-18 0 -47 13.5t-57 33t-48.5 42.5t-20.5 41zM133 85q-24 0 -40.5 13.5t-16.5 39.5q0 24 21.5 40.5t51 27t59.5 15.5t48 5
q24 0 41 -8.5t17 -37.5q0 -20 -22.5 -37.5t-52.5 -30t-60 -20t-46 -7.5zM179 303q-17 0 -41 2t-46.5 8.5t-38 20t-15.5 37.5q0 17 7 27.5t18 16t24.5 7.5t27.5 2q13 0 41 -3t56 -10.5t49 -19.5t21 -31q0 -20 -10 -31.5t-25.5 -17t-33.5 -7t-34 -1.5z" />
    <glyph glyph-name="m.001" unicode="&#xe026;" horiz-adv-x="1055" 
d="M901 107q-15 -12 -25 -25t-21.5 -24.5t-26 -19t-36.5 -7.5q-28 0 -49 16t-34.5 40t-20 52.5t-6.5 52.5q0 3 -1 3q-5 0 -14 -15t-21.5 -38t-28 -49t-32.5 -49t-35 -38t-36 -15q-27 0 -41 17.5t-19.5 42.5t-6 51.5t-0.5 43.5q0 13 -1 36t-0.5 49t3 52.5t9.5 48.5t19 35.5
t32 13.5q22 0 33 -10.5t16 -26t5.5 -34t0.5 -33.5q0 -8 0.5 -16.5t1.5 -16.5q13 18 27.5 39.5t32 39.5t38.5 30.5t46 12.5q28 0 45.5 -19.5t28 -47.5t16 -57.5t9.5 -49.5q7 15 23 47t36.5 64.5t44.5 57t49 24.5q29 0 42.5 -17.5t18.5 -42.5t4 -52t-1 -45q0 -40 3 -79.5
t3 -78.5q0 -24 -10.5 -45t-38.5 -21q-27 0 -40.5 9.5t-20 24.5t-10 33.5t-11.5 35.5zM180 583q0 26 16 41t41 15q16 0 43 -16.5t52.5 -40t44 -48.5t18.5 -42q0 -15 -14 -27t-28 -12q-18 0 -47 13.5t-57 33t-48.5 42.5t-20.5 41zM138 85q-24 0 -40.5 13.5t-16.5 39.5
q0 24 21.5 40.5t51 27t59.5 15.5t48 5q24 0 41 -8.5t17 -37.5q0 -20 -22.5 -37.5t-52.5 -30t-60 -20t-46 -7.5zM184 303q-17 0 -41 2t-46.5 8.5t-38 20t-15.5 37.5q0 17 7 27.5t18 16t24.5 7.5t27.5 2q13 0 41 -3t56 -10.5t49 -19.5t21 -31q0 -20 -10 -31.5t-25.5 -17
t-33.5 -7t-34 -1.5z" />
    <glyph glyph-name="n.001" unicode="&#xe027;" horiz-adv-x="805" 
d="M784 156q0 -18 1 -44.5t-4 -50.5t-18.5 -41t-42.5 -17q-16 0 -26 12.5t-16 32.5t-9 44t-4 47.5t-0.5 43t0.5 29.5q0 2 -0.5 4t-2.5 2q-12 -14 -22.5 -35t-21.5 -45t-23 -48.5t-26 -44t-31.5 -32t-39.5 -12.5q-20 0 -30.5 10.5t-15.5 26.5t-6 34t-1 32q0 16 -1 47t0 68
t4.5 75.5t12.5 69.5t25 51t42 20q22 0 34.5 -10.5t18.5 -26t7 -34.5t0 -36q6 12 17.5 28t25.5 30t29.5 24t30.5 10q26 0 43 -14.5t27 -38t15 -53t7 -58.5t1.5 -55.5t-0.5 -44.5zM171 583q0 26 16 41t41 15q16 0 43 -16.5t52.5 -40t44 -48.5t18.5 -42q0 -15 -14 -27t-28 -12
q-18 0 -47 13.5t-57 33t-48.5 42.5t-20.5 41zM129 85q-24 0 -40.5 13.5t-16.5 39.5q0 24 21.5 40.5t51 27t59.5 15.5t48 5q24 0 41 -8.5t17 -37.5q0 -20 -22.5 -37.5t-52.5 -30t-60 -20t-46 -7.5zM175 303q-17 0 -41 2t-46.5 8.5t-38 20t-15.5 37.5q0 17 7 27.5t18 16
t24.5 7.5t27.5 2q13 0 41 -3t56 -10.5t49 -19.5t21 -31q0 -20 -10 -31.5t-25.5 -17t-33.5 -7t-34 -1.5z" />
    <glyph glyph-name="o.001" unicode="&#xe028;" horiz-adv-x="864" 
d="M375 154q0 50 25 100t64.5 89.5t89.5 64.5t100 25q42 0 76 -13.5t59 -37.5t38.5 -58.5t13.5 -76.5q0 -50 -30 -94.5t-75 -77.5t-98 -52.5t-99 -19.5q-36 0 -66 9.5t-51.5 28.5t-34 47t-12.5 66zM490 150q0 -20 10 -23t26 -3q25 0 58 10t63 27.5t51 41.5t21 53
q0 19 -11 29t-27.5 15t-34.5 6t-31 1q-21 0 -43 -17.5t-40 -42t-30 -51.5t-12 -46zM175 583q0 26 16 41t41 15q16 0 43 -16.5t52.5 -40t44 -48.5t18.5 -42q0 -15 -14 -27t-28 -12q-18 0 -47 13.5t-57 33t-48.5 42.5t-20.5 41zM133 85q-24 0 -40.5 13.5t-16.5 39.5
q0 24 21.5 40.5t51 27t59.5 15.5t48 5q24 0 41 -8.5t17 -37.5q0 -20 -22.5 -37.5t-52.5 -30t-60 -20t-46 -7.5zM179 303q-17 0 -41 2t-46.5 8.5t-38 20t-15.5 37.5q0 17 7 27.5t18 16t24.5 7.5t27.5 2q13 0 41 -3t56 -10.5t49 -19.5t21 -31q0 -20 -10 -31.5t-25.5 -17
t-33.5 -7t-34 -1.5z" />
    <glyph glyph-name="p.001" unicode="&#xe029;" horiz-adv-x="780" 
d="M514 369q24 0 47 6.5t48 6.5q31 0 57.5 -7.5t46 -23t31 -40t11.5 -57.5q0 -37 -17.5 -75.5t-45 -72.5t-61.5 -60.5t-67 -39.5l1 -70v-32.5t-4 -32t-14.5 -24t-32.5 -9.5q-13 0 -26 4.5t-21 15.5q-7 9 -11.5 34.5t-7 59t-3 72t-1 74t0 63t0.5 40.5q0 25 -2 54.5t2 55
t19 42t50 16.5zM559 160q0 -3 1 -7t5 -4q6 0 18.5 14.5t25 33t21.5 36t9 24.5q0 8 -6 11t-13 3l-11 -1q-14 -2 -18.5 -11.5t-6 -22t-3.5 -27t-11 -24.5q-5 -5 -8 -11t-3 -14zM186 583q0 26 16 41t41 15q16 0 43 -16.5t52.5 -40t44 -48.5t18.5 -42q0 -15 -14 -27t-28 -12
q-18 0 -47 13.5t-57 33t-48.5 42.5t-20.5 41zM144 85q-24 0 -40.5 13.5t-16.5 39.5q0 24 21.5 40.5t51 27t59.5 15.5t48 5q24 0 41 -8.5t17 -37.5q0 -20 -22.5 -37.5t-52.5 -30t-60 -20t-46 -7.5zM190 303q-17 0 -41 2t-46.5 8.5t-38 20t-15.5 37.5q0 17 7 27.5t18 16
t24.5 7.5t27.5 2q13 0 41 -3t56 -10.5t49 -19.5t21 -31q0 -20 -10 -31.5t-25.5 -17t-33.5 -7t-34 -1.5z" />
    <glyph glyph-name="q.001" unicode="&#xe02a;" horiz-adv-x="762" 
d="M742 358q0 -92 -9.5 -190.5t-9.5 -198.5q0 -45 4 -88t4 -87q0 -23 -17 -41.5t-41 -18.5q-23 0 -37 19t-22 48t-11.5 64t-4.5 67.5t-0.5 57.5t0.5 35q-16 -11 -29 -18.5t-33 -7.5q-33 0 -54.5 14.5t-34 37.5t-17 50.5t-4.5 54.5q0 35 9.5 76t29.5 76t50 60t71 28
q14 1 26.5 6t24.5 10.5t23.5 10t23.5 4.5q31 0 44.5 -20.5t13.5 -48.5zM597 281h-2q-12 0 -22 -15.5t-17.5 -35.5t-11.5 -40.5t-4 -29.5v-4.5t3 -4.5q6 7 15 24.5t17.5 37.5t15 39t6.5 29zM179 583q0 26 16 41t41 15q16 0 43 -16.5t52.5 -40t44 -48.5t18.5 -42
q0 -15 -14 -27t-28 -12q-18 0 -47 13.5t-57 33t-48.5 42.5t-20.5 41zM137 85q-24 0 -40.5 13.5t-16.5 39.5q0 24 21.5 40.5t51 27t59.5 15.5t48 5q24 0 41 -8.5t17 -37.5q0 -20 -22.5 -37.5t-52.5 -30t-60 -20t-46 -7.5zM183 303q-17 0 -41 2t-46.5 8.5t-38 20t-15.5 37.5
q0 17 7 27.5t18 16t24.5 7.5t27.5 2q13 0 41 -3t56 -10.5t49 -19.5t21 -31q0 -20 -10 -31.5t-25.5 -17t-33.5 -7t-34 -1.5z" />
    <glyph glyph-name="r.001" unicode="&#xe02b;" horiz-adv-x="797" 
d="M539 -11q-25 0 -36 21.5t-14.5 50.5t-2 58t1.5 44q0 63 -4 124.5t-4 124.5q0 26 12 40.5t40 14.5q21 0 33 -9.5t17.5 -24.5t7 -33t2.5 -34q31 23 57.5 37.5t65.5 14.5q10 0 21 -5.5t19.5 -14t14 -19t5.5 -21.5t-5.5 -21t-14.5 -17.5t-19.5 -13t-20.5 -7.5
q-23 -5 -37 -29.5t-24 -59t-18.5 -73.5t-20.5 -72t-30 -54.5t-46 -21.5zM181 583q0 26 16 41t41 15q16 0 43 -16.5t52.5 -40t44 -48.5t18.5 -42q0 -15 -14 -27t-28 -12q-18 0 -47 13.5t-57 33t-48.5 42.5t-20.5 41zM139 85q-24 0 -40.5 13.5t-16.5 39.5q0 24 21.5 40.5
t51 27t59.5 15.5t48 5q24 0 41 -8.5t17 -37.5q0 -20 -22.5 -37.5t-52.5 -30t-60 -20t-46 -7.5zM185 303q-17 0 -41 2t-46.5 8.5t-38 20t-15.5 37.5q0 17 7 27.5t18 16t24.5 7.5t27.5 2q13 0 41 -3t56 -10.5t49 -19.5t21 -31q0 -20 -10 -31.5t-25.5 -17t-33.5 -7t-34 -1.5z
" />
    <glyph glyph-name="s.001" unicode="&#xe02c;" horiz-adv-x="753" 
d="M586 173q-20 17 -45.5 27t-48 22.5t-38.5 32t-16 55.5q0 34 18 67t46 59t62.5 42t67.5 16q18 0 36 -5t32.5 -15.5t24 -25.5t9.5 -35q0 -26 -15 -37t-39 -11q-6 0 -13.5 1.5t-11.5 6.5q-5 4 -12 6.5t-14 2.5t-18.5 -6t-22.5 -15t-19 -19t-8 -17v-3q20 -13 49.5 -23t57 -23
t47 -31.5t19.5 -48.5q0 -19 -14.5 -43.5t-37.5 -50.5t-51.5 -51.5t-56.5 -45t-53.5 -31.5t-41.5 -12q-21 0 -33 17.5t-12 37.5q0 21 18 43.5t42.5 43.5t50 39t41.5 30zM181 583q0 26 16 41t41 15q16 0 43 -16.5t52.5 -40t44 -48.5t18.5 -42q0 -15 -14 -27t-28 -12
q-18 0 -47 13.5t-57 33t-48.5 42.5t-20.5 41zM139 85q-24 0 -40.5 13.5t-16.5 39.5q0 24 21.5 40.5t51 27t59.5 15.5t48 5q24 0 41 -8.5t17 -37.5q0 -20 -22.5 -37.5t-52.5 -30t-60 -20t-46 -7.5zM185 303q-17 0 -41 2t-46.5 8.5t-38 20t-15.5 37.5q0 17 7 27.5t18 16
t24.5 7.5t27.5 2q13 0 41 -3t56 -10.5t49 -19.5t21 -31q0 -20 -10 -31.5t-25.5 -17t-33.5 -7t-34 -1.5z" />
    <glyph glyph-name="t.001" unicode="&#xe02d;" horiz-adv-x="739" 
d="M630 512l-28 -171q7 1 14 1.5t14 0.5q19 0 36 -14t17 -34q0 -27 -12 -38.5t-26 -17t-26 -10.5t-12 -20q0 -16 2 -32.5t7.5 -30t16.5 -22t29 -8.5q29 0 47 -13.5t18 -45.5q0 -17 -8 -30t-20.5 -22t-28.5 -13.5t-31 -4.5q-34 0 -59 17t-42 42.5t-27.5 56.5t-14.5 60
q-3 20 -10 30.5t-16.5 16t-19.5 8.5t-18.5 8t-14 14t-5.5 26q0 16 7.5 26t18.5 16.5t25 9.5t26 6q2 12 4 32t5.5 44t9.5 48t15.5 44t23.5 32.5t34 12.5q14 0 26 -9t23 -16zM183 583q0 26 16 41t41 15q16 0 43 -16.5t52.5 -40t44 -48.5t18.5 -42q0 -15 -14 -27t-28 -12
q-18 0 -47 13.5t-57 33t-48.5 42.5t-20.5 41zM141 85q-24 0 -40.5 13.5t-16.5 39.5q0 24 21.5 40.5t51 27t59.5 15.5t48 5q24 0 41 -8.5t17 -37.5q0 -20 -22.5 -37.5t-52.5 -30t-60 -20t-46 -7.5zM187 303q-17 0 -41 2t-46.5 8.5t-38 20t-15.5 37.5q0 17 7 27.5t18 16
t24.5 7.5t27.5 2q13 0 41 -3t56 -10.5t49 -19.5t21 -31q0 -20 -10 -31.5t-25.5 -17t-33.5 -7t-34 -1.5z" />
    <glyph glyph-name="u.001" unicode="&#xe02e;" horiz-adv-x="844" 
d="M689 50q-23 -17 -46 -30t-53 -13q-39 0 -65.5 23t-43 57t-24 72.5t-7.5 69.5q0 19 1 45.5t8 50.5t21 41t41 17t37 -17t11.5 -40.5t-1.5 -49t-3 -42.5q0 -6 2 -23.5t5.5 -36t9 -33t12.5 -14.5q27 11 44.5 35t28.5 53t19.5 60t17.5 56t21.5 41.5t33.5 16.5q25 0 38.5 -9
t19.5 -23.5t7 -33.5t1 -39q0 -65 -2 -134.5t-11 -134.5q-3 -22 -22 -34.5t-40 -12.5q-16 0 -26.5 8t-17 20t-10.5 26.5t-7 27.5zM186 583q0 26 16 41t41 15q16 0 43 -16.5t52.5 -40t44 -48.5t18.5 -42q0 -15 -14 -27t-28 -12q-18 0 -47 13.5t-57 33t-48.5 42.5t-20.5 41z
M144 85q-24 0 -40.5 13.5t-16.5 39.5q0 24 21.5 40.5t51 27t59.5 15.5t48 5q24 0 41 -8.5t17 -37.5q0 -20 -22.5 -37.5t-52.5 -30t-60 -20t-46 -7.5zM190 303q-17 0 -41 2t-46.5 8.5t-38 20t-15.5 37.5q0 17 7 27.5t18 16t24.5 7.5t27.5 2q13 0 41 -3t56 -10.5t49 -19.5
t21 -31q0 -20 -10 -31.5t-25.5 -17t-33.5 -7t-34 -1.5z" />
    <glyph glyph-name="v.001" unicode="&#xe02f;" horiz-adv-x="873" 
d="M852 363q0 -21 -9 -56t-24 -75.5t-35.5 -82t-44 -75t-49 -54.5t-49.5 -21q-29 0 -52.5 20.5t-43 53.5t-34 73.5t-24.5 80.5t-15 74.5t-5 54.5q0 21 15.5 40t38.5 19q12 0 22.5 -6.5t18.5 -16.5t12.5 -22t4.5 -23q0 -10 6.5 -42t16 -67.5t19.5 -63.5t17 -29
q14 13 26.5 39.5t24 57.5t23 63.5t25 59.5t28.5 44t34 17q29 0 41 -18.5t12 -44.5zM178 583q0 26 16 41t41 15q16 0 43 -16.5t52.5 -40t44 -48.5t18.5 -42q0 -15 -14 -27t-28 -12q-18 0 -47 13.5t-57 33t-48.5 42.5t-20.5 41zM136 85q-24 0 -40.5 13.5t-16.5 39.5
q0 24 21.5 40.5t51 27t59.5 15.5t48 5q24 0 41 -8.5t17 -37.5q0 -20 -22.5 -37.5t-52.5 -30t-60 -20t-46 -7.5zM182 303q-17 0 -41 2t-46.5 8.5t-38 20t-15.5 37.5q0 17 7 27.5t18 16t24.5 7.5t27.5 2q13 0 41 -3t56 -10.5t49 -19.5t21 -31q0 -20 -10 -31.5t-25.5 -17
t-33.5 -7t-34 -1.5z" />
    <glyph glyph-name="w.001" unicode="&#xe030;" horiz-adv-x="958" 
d="M861 471q26 0 41.5 -20.5t24 -49t11 -57.5t2.5 -47q0 -37 -7.5 -88.5t-26.5 -99t-51 -80.5t-81 -33q-19 0 -32.5 3.5t-24.5 10t-20.5 16.5t-21.5 24q-18 -22 -40 -40t-52 -18q-35 0 -56.5 23t-33.5 55.5t-16 68t-4 61.5v38.5t2.5 56t7 62.5t14 58t23.5 42.5t35 16.5
q9 0 19 -5t18.5 -13.5t13.5 -18t5 -18.5q0 -5 -1 -10t-3 -10q-13 -47 -17 -102t-4 -104q0 -5 0.5 -10t1.5 -10l2 -1q8 0 14.5 21t16 46t25 46t40.5 21q19 0 31 -12t19.5 -29t11.5 -36t6 -32q0 -3 2 -14t4.5 -23.5t6 -22.5t6.5 -10q13 9 22 33.5t14 53.5t7.5 56.5t2.5 42.5
t-3.5 28.5t-7.5 25.5t-7.5 23.5t-3.5 23.5q0 24 20.5 40.5t43.5 16.5zM187 583q0 26 16 41t41 15q16 0 43 -16.5t52.5 -40t44 -48.5t18.5 -42q0 -15 -14 -27t-28 -12q-18 0 -47 13.5t-57 33t-48.5 42.5t-20.5 41zM145 85q-24 0 -40.5 13.5t-16.5 39.5q0 24 21.5 40.5t51 27
t59.5 15.5t48 5q24 0 41 -8.5t17 -37.5q0 -20 -22.5 -37.5t-52.5 -30t-60 -20t-46 -7.5zM191 303q-17 0 -41 2t-46.5 8.5t-38 20t-15.5 37.5q0 17 7 27.5t18 16t24.5 7.5t27.5 2q13 0 41 -3t56 -10.5t49 -19.5t21 -31q0 -20 -10 -31.5t-25.5 -17t-33.5 -7t-34 -1.5z" />
    <glyph glyph-name="x.001" unicode="&#xe031;" horiz-adv-x="816" 
d="M447 54q0 16 12 39.5t28 48.5t33 48t26 38q-6 13 -16.5 31.5t-21 38t-18 38t-7.5 32.5q0 17 12.5 30.5t29.5 13.5q15 0 29.5 -10t26.5 -24.5t22 -29.5t17 -25q10 13 22.5 29t27 30t31.5 24t36 10q21 0 39 -18t18 -40q0 -7 -15 -28.5t-34 -45.5t-36.5 -44.5t-21.5 -26.5
q7 -9 23.5 -28.5t33 -42t29.5 -45t13 -37.5q0 -22 -10 -35.5t-33 -13.5q-16 0 -33.5 11.5t-34 27.5t-31.5 33t-26 27q-9 -11 -22 -29.5t-28.5 -36.5t-32 -31t-32.5 -13q-20 0 -38 17t-18 37zM186 583q0 26 16 41t41 15q16 0 43 -16.5t52.5 -40t44 -48.5t18.5 -42
q0 -15 -14 -27t-28 -12q-18 0 -47 13.5t-57 33t-48.5 42.5t-20.5 41zM144 85q-24 0 -40.5 13.5t-16.5 39.5q0 24 21.5 40.5t51 27t59.5 15.5t48 5q24 0 41 -8.5t17 -37.5q0 -20 -22.5 -37.5t-52.5 -30t-60 -20t-46 -7.5zM190 303q-17 0 -41 2t-46.5 8.5t-38 20t-15.5 37.5
q0 17 7 27.5t18 16t24.5 7.5t27.5 2q13 0 41 -3t56 -10.5t49 -19.5t21 -31q0 -20 -10 -31.5t-25.5 -17t-33.5 -7t-34 -1.5z" />
    <glyph glyph-name="y.001" unicode="&#xe032;" horiz-adv-x="902" 
d="M650 33q0 4 -5 7t-11 5.5t-12 4t-9 2.5q-38 12 -66.5 39.5t-48 63t-29.5 75.5t-10 77q0 18 13 34.5t32 16.5q24 0 38 -14t22.5 -35.5t13.5 -46t11 -46t16.5 -35.5t29.5 -14q16 0 31.5 15t31 37.5t30.5 48.5t29.5 48.5t29 37.5t29.5 15q26 0 44.5 -17.5t18.5 -44.5
q0 -12 -4 -27t-9.5 -30t-12 -29.5t-10.5 -25.5q-36 -90 -66 -183.5t-47 -189.5q-3 -15 -4.5 -32t-7 -31t-16 -23.5t-29.5 -9.5q-14 0 -26.5 6.5t-21.5 17t-14 24t-5 26.5q0 29 7 63t15 66.5t15 60t7 43.5zM193 583q0 26 16 41t41 15q16 0 43 -16.5t52.5 -40t44 -48.5
t18.5 -42q0 -15 -14 -27t-28 -12q-18 0 -47 13.5t-57 33t-48.5 42.5t-20.5 41zM151 85q-24 0 -40.5 13.5t-16.5 39.5q0 24 21.5 40.5t51 27t59.5 15.5t48 5q24 0 41 -8.5t17 -37.5q0 -20 -22.5 -37.5t-52.5 -30t-60 -20t-46 -7.5zM197 303q-17 0 -41 2t-46.5 8.5t-38 20
t-15.5 37.5q0 17 7 27.5t18 16t24.5 7.5t27.5 2q13 0 41 -3t56 -10.5t49 -19.5t21 -31q0 -20 -10 -31.5t-25.5 -17t-33.5 -7t-34 -1.5z" />
    <glyph glyph-name="z.001" unicode="&#xe033;" horiz-adv-x="875" 
d="M187 583q0 26 16 41t41 15q16 0 43 -16.5t52.5 -40t44 -48.5t18.5 -42q0 -15 -14 -27t-28 -12q-18 0 -47 13.5t-57 33t-48.5 42.5t-20.5 41zM145 85q-24 0 -40.5 13.5t-16.5 39.5q0 24 21.5 40.5t51 27t59.5 15.5t48 5q24 0 41 -8.5t17 -37.5q0 -20 -22.5 -37.5
t-52.5 -30t-60 -20t-46 -7.5zM191 303q-17 0 -41 2t-46.5 8.5t-38 20t-15.5 37.5q0 17 7 27.5t18 16t24.5 7.5t27.5 2q13 0 41 -3t56 -10.5t49 -19.5t21 -31q0 -20 -10 -31.5t-25.5 -17t-33.5 -7t-34 -1.5zM493 406q0 28 28 45t66.5 26.5t77 12.5t59.5 3q19 0 40 -3
t37.5 -11.5t27.5 -24t11 -39.5q0 -16 -14.5 -42t-37 -57t-50 -63t-53 -61t-45.5 -51t-29 -32q17 -2 33 -5t33 -3q29 0 58.5 3.5t59.5 3.5q25 0 43 -10t18 -39q0 -30 -24 -46t-56 -24t-66 -9.5t-53 -1.5q-26 0 -56.5 2.5t-57 13t-44.5 31t-18 55.5t24.5 75t58 80t68.5 76.5
t55 63.5q-35 -1 -68.5 -6t-68.5 -5q-22 0 -39.5 8t-17.5 34z" />
    <glyph glyph-name="b.003" unicode="&#xe034;" horiz-adv-x="408" 
d="M92 98q-5 8 -19 12q-24 5 -34.5 21.5t-14 37.5t-2.5 44t1 43q0 60 -1 119.5t-1 119.5q0 14 -0.5 38t3 47t14 40t32.5 17q21 0 34.5 -13.5t20.5 -34.5t9.5 -47t2 -52t-1.5 -48.5t-1 -36.5q0 -15 2 -28.5t5 -27.5q30 23 59 40.5t69 17.5q24 0 44.5 -9t36.5 -25t25 -36.5
t9 -44.5q0 -26 -11 -58.5t-29.5 -65t-43 -63.5t-52.5 -55.5t-57 -39t-57 -14.5q-61 0 -61 60q0 13 3 19.5t6.5 10t6.5 5.5t3 7zM151 131q0 -2 1 -2q12 9 30 27t35.5 39.5t30 43.5t12.5 37q0 5 -2 5q-10 -6 -28 -26.5t-35.5 -44.5t-30.5 -46.5t-13 -32.5zM71 728
q0 -17 -12 -31.5t-30 -14.5q-19 0 -40 21.5t-39 51t-30 59t-12 46.5q0 21 16 36t37 15q22 0 42 -21.5t35 -51t24 -60.5t9 -50zM350 700q-20 0 -31 12.5t-11 31.5q0 18 9 49t24.5 60.5t36 51.5t42.5 22q20 0 36.5 -14t16.5 -35q0 -17 -12 -47t-30 -59t-40 -50.5t-41 -21.5z
M188 763q-20 0 -31 12t-16 29.5t-6 36.5t-1 34q0 16 1.5 38.5t7.5 43.5t19 35.5t36 14.5q18 0 29 -8.5t17 -21t8 -28t2 -30.5t-2.5 -41t-10 -51.5t-20.5 -44.5t-33 -19z" />
    <glyph glyph-name="d.003" unicode="&#xe035;" horiz-adv-x="410" 
d="M23 159q0 54 17 102t48.5 82.5t77.5 52t103 10.5l5 124q1 16 0.5 44t4.5 55t18 46.5t41 19.5q10 0 17 -4.5t14 -10.5q5 -5 8.5 -30t5.5 -60t2.5 -76t0.5 -78.5v-66.5v-40q0 -26 -0.5 -59.5t-5 -67t-15 -63.5t-31.5 -49q-23 -20 -41 -36.5t-37 -28t-42 -18t-56 -6.5
q-30 0 -55 14t-43 36.5t-27.5 51t-9.5 56.5zM217 284q-17 0 -30 -14t-22.5 -33.5t-14.5 -40t-5 -33.5q0 -17 5 -27t20 -17q32 7 56 33t42 51q-2 5 -7.5 18.5t-12 27.5t-15 24.5t-16.5 10.5zM127 780q0 -17 -12 -31.5t-30 -14.5q-19 0 -40 21.5t-39 51t-30 59t-12 46.5
q0 21 16 36t37 15q22 0 42 -21.5t35 -51t24 -60.5t9 -50zM406 752q-20 0 -31 12.5t-11 31.5q0 18 9 49t24.5 60.5t36 51.5t42.5 22q20 0 36.5 -14t16.5 -35q0 -17 -12 -47t-30 -59t-40 -50.5t-41 -21.5zM244 815q-20 0 -31 12t-16 29.5t-6 36.5t-1 34q0 16 1.5 38.5
t7.5 43.5t19 35.5t36 14.5q18 0 29 -8.5t17 -21t8 -28t2 -30.5t-2.5 -41t-10 -51.5t-20.5 -44.5t-33 -19z" />
    <glyph glyph-name="f.003" unicode="&#xe036;" horiz-adv-x="354" 
d="M186 157q20 2 39.5 5t39.5 3q19 0 36 -17t17 -36q0 -20 -13.5 -32t-32 -20t-37.5 -14.5t-30 -15.5q0 -23 9 -48t20 -48.5t20 -44.5t9 -34q0 -11 -5.5 -20.5t-14 -17.5t-18.5 -12.5t-20 -4.5q-25 0 -42.5 15.5t-30 38t-20.5 47.5t-12 43q-2 9 -4 19t-5.5 18t-9.5 13t-18 5
q-20 0 -34.5 13t-14.5 34q0 16 8 28.5t21 20.5q13 9 19 20t8.5 23.5t3 26t1.5 28.5q1 21 6 53t14.5 68.5t22.5 73t31.5 65.5t42 47.5t52.5 18.5q28 0 45 -10.5t26 -28t12 -40t3 -45.5q0 -17 -1.5 -35.5t-8 -34t-19 -26t-34.5 -10.5q-27 0 -43 24q-1 1 -2 3l-3 3q-3 0 -5 -4
t-3.5 -9t-2.5 -10t-1 -6q-8 -33 -13 -66t-8 -67zM113 642q0 -17 -12 -31.5t-30 -14.5q-19 0 -40 21.5t-39 51t-30 59t-12 46.5q0 21 16 36t37 15q22 0 42 -21.5t35 -51t24 -60.5t9 -50zM392 614q-20 0 -31 12.5t-11 31.5q0 18 9 49t24.5 60.5t36 51.5t42.5 22q20 0 36.5 -14
t16.5 -35q0 -17 -12 -47t-30 -59t-40 -50.5t-41 -21.5zM230 677q-20 0 -31 12t-16 29.5t-6 36.5t-1 34q0 16 1.5 38.5t7.5 43.5t19 35.5t36 14.5q18 0 29 -8.5t17 -21t8 -28t2 -30.5t-2.5 -41t-10 -51.5t-20.5 -44.5t-33 -19z" />
    <glyph glyph-name="g.003" unicode="&#xe037;" horiz-adv-x="479" 
d="M150 22q-69 0 -100 39.5t-31 104.5q0 42 21 82.5t54.5 73t75.5 52t83 19.5q34 0 64 -15q15 -8 31.5 -13t33.5 -7q20 -2 31 -8t17 -15.5t8 -23.5t4 -32q3 -39 8.5 -79t5.5 -79q0 -41 -6.5 -82t-22.5 -78q-13 -30 -38 -63.5t-56.5 -61.5t-67.5 -46.5t-71 -18.5
q-58 0 -58 56q0 20 13.5 32.5t34.5 25t45.5 28t46 40t37.5 62.5t19 95q-23 -18 -43 -34t-41 -28t-44.5 -19t-53.5 -7zM135 165q0 -10 3.5 -16.5t14.5 -6.5q15 0 35 9.5t37.5 24.5t29.5 33t12 35q0 10 -3 23t-16 13q-16 0 -35.5 -12t-37 -29t-29 -37.5t-11.5 -36.5zM134 504
q0 -17 -12 -31.5t-30 -14.5q-19 0 -40 21.5t-39 51t-30 59t-12 46.5q0 21 16 36t37 15q22 0 42 -21.5t35 -51t24 -60.5t9 -50zM413 476q-20 0 -31 12.5t-11 31.5q0 18 9 49t24.5 60.5t36 51.5t42.5 22q20 0 36.5 -14t16.5 -35q0 -17 -12 -47t-30 -59t-40 -50.5t-41 -21.5z
M251 539q-20 0 -31 12t-16 29.5t-6 36.5t-1 34q0 16 1.5 38.5t7.5 43.5t19 35.5t36 14.5q18 0 29 -8.5t17 -21t8 -28t2 -30.5t-2.5 -41t-10 -51.5t-20.5 -44.5t-33 -19z" />
    <glyph glyph-name="h.003" unicode="&#xe038;" horiz-adv-x="358" 
d="M283 -9q-23 0 -37.5 13.5t-22 34.5t-10.5 47t-3.5 51.5t1 47t1.5 34.5q-4 -9 -10 -29t-15 -44.5t-20.5 -50t-25 -47t-29 -35t-32.5 -13.5q-14 0 -27.5 5t-22.5 16q-5 6 -7.5 23t-3.5 40.5t-0.5 50t1 51t1 44.5t0.5 30q0 65 -3 129t-3 128q0 12 1.5 26.5t6.5 26.5
t14.5 20.5t25.5 8.5q22 0 36 -18t22 -46.5t11.5 -63t5 -68t1 -62t0.5 -43.5q13 33 39 58t64 25q32 0 51 -16.5t29 -43t12.5 -59.5t2 -66.5t-1.5 -64t1 -51.5q1 -8 1.5 -15.5t0.5 -15.5q0 -24 -15 -41t-40 -17zM50 736q0 -17 -12 -31.5t-30 -14.5q-19 0 -40 21.5t-39 51
t-30 59t-12 46.5q0 21 16 36t37 15q22 0 42 -21.5t35 -51t24 -60.5t9 -50zM329 708q-20 0 -31 12.5t-11 31.5q0 18 9 49t24.5 60.5t36 51.5t42.5 22q20 0 36.5 -14t16.5 -35q0 -17 -12 -47t-30 -59t-40 -50.5t-41 -21.5zM167 771q-20 0 -31 12t-16 29.5t-6 36.5t-1 34
q0 16 1.5 38.5t7.5 43.5t19 35.5t36 14.5q18 0 29 -8.5t17 -21t8 -28t2 -30.5t-2.5 -41t-10 -51.5t-20.5 -44.5t-33 -19z" />
    <glyph glyph-name="j.003" unicode="&#xe039;" horiz-adv-x="181" 
d="M94 312q28 0 41.5 -23.5t18 -55.5t3.5 -65t-1 -53q0 -26 -2 -61t-8 -72.5t-17 -73.5t-29.5 -65t-45.5 -46.5t-64 -17.5q-23 0 -47 12t-44 31t-32.5 42.5t-12.5 46.5t17.5 42t40.5 19q20 0 31.5 -10t19 -22.5t13 -22.5t14.5 -10q14 0 23.5 15.5t15 40t8.5 53t4 55t1.5 47
t0.5 27.5q0 15 -0.5 43t3 55.5t14 48t34.5 20.5zM34 426q0 15 5.5 30t15 28t22.5 21t29 8q22 0 38 -11.5t16 -34.5q0 -12 -7 -28.5t-18 -31.5t-24 -25.5t-26 -10.5q-22 0 -36.5 17t-14.5 38zM-60 587q0 -17 -12 -31.5t-30 -14.5q-19 0 -40 21.5t-39 51t-30 59t-12 46.5
q0 21 16 36t37 15q22 0 42 -21.5t35 -51t24 -60.5t9 -50zM219 559q-20 0 -31 12.5t-11 31.5q0 18 9 49t24.5 60.5t36 51.5t42.5 22q20 0 36.5 -14t16.5 -35q0 -17 -12 -47t-30 -59t-40 -50.5t-41 -21.5zM57 622q-20 0 -31 12t-16 29.5t-6 36.5t-1 34q0 16 1.5 38.5t7.5 43.5
t19 35.5t36 14.5q18 0 29 -8.5t17 -21t8 -28t2 -30.5t-2.5 -41t-10 -51.5t-20.5 -44.5t-33 -19z" />
    <glyph glyph-name="k.003" unicode="&#xe03a;" horiz-adv-x="330" 
d="M187 184q0 -12 7.5 -15.5t18 -3t21 2.5t17.5 2q9 0 18 -5.5t16.5 -14t12 -18.5t4.5 -19q0 -17 -11.5 -30.5t-28.5 -23.5t-35.5 -15.5t-32.5 -5.5q-10 0 -18.5 3t-16.5 3q-6 0 -8.5 -12.5t-7.5 -27.5t-16.5 -27.5t-35.5 -12.5q-22 0 -35.5 17.5t-21.5 44.5t-11.5 60.5
t-4.5 65t-0.5 58t0.5 39.5q0 16 -0.5 46.5t0.5 66.5t4.5 73.5t12.5 67.5t24 49.5t38 19.5t34.5 -14.5t11.5 -36.5q0 -31 -5 -61.5t-5 -61.5l1 -24q12 10 24.5 26t26 31t29 25.5t33.5 10.5q10 0 21 -5.5t20 -14t14.5 -19.5t5.5 -21q0 -1 -9 -12.5t-22.5 -29.5t-29 -40.5
t-29 -47t-22.5 -49t-9 -44.5zM44 663q0 -17 -12 -31.5t-30 -14.5q-19 0 -40 21.5t-39 51t-30 59t-12 46.5q0 21 16 36t37 15q22 0 42 -21.5t35 -51t24 -60.5t9 -50zM323 635q-20 0 -31 12.5t-11 31.5q0 18 9 49t24.5 60.5t36 51.5t42.5 22q20 0 36.5 -14t16.5 -35
q0 -17 -12 -47t-30 -59t-40 -50.5t-41 -21.5zM161 698q-20 0 -31 12t-16 29.5t-6 36.5t-1 34q0 16 1.5 38.5t7.5 43.5t19 35.5t36 14.5q18 0 29 -8.5t17 -21t8 -28t2 -30.5t-2.5 -41t-10 -51.5t-20.5 -44.5t-33 -19z" />
    <glyph glyph-name="l.003" unicode="&#xe03b;" horiz-adv-x="364" 
d="M311 129q14 -8 24 -20t10 -29q0 -21 -13.5 -37t-33 -27t-41.5 -16.5t-39 -5.5q-59 0 -97 29.5t-60 74.5t-30 98t-8 101q0 17 1 43.5t4 56t9.5 58.5t18 52.5t28.5 38t41 14.5q21 0 28.5 -13t7.5 -31q0 -29 -4 -57t-8.5 -56t-8 -56.5t-3.5 -57.5q0 -15 3 -44.5t11 -59
t23 -51t38 -21.5q22 0 43 9t44 9q4 0 12 -2zM56 644q0 -17 -12 -31.5t-30 -14.5q-19 0 -40 21.5t-39 51t-30 59t-12 46.5q0 21 16 36t37 15q22 0 42 -21.5t35 -51t24 -60.5t9 -50zM335 616q-20 0 -31 12.5t-11 31.5q0 18 9 49t24.5 60.5t36 51.5t42.5 22q20 0 36.5 -14
t16.5 -35q0 -17 -12 -47t-30 -59t-40 -50.5t-41 -21.5zM173 679q-20 0 -31 12t-16 29.5t-6 36.5t-1 34q0 16 1.5 38.5t7.5 43.5t19 35.5t36 14.5q18 0 29 -8.5t17 -21t8 -28t2 -30.5t-2.5 -41t-10 -51.5t-20.5 -44.5t-33 -19z" />
    <glyph glyph-name="m.003" unicode="&#xe03c;" horiz-adv-x="629" 
d="M475 107q-15 -12 -25 -25t-21.5 -24.5t-26 -19t-36.5 -7.5q-28 0 -49 16t-34.5 40t-20 52.5t-6.5 52.5q0 3 -1 3q-5 0 -14 -15t-21.5 -38t-28 -49t-32.5 -49t-35 -38t-36 -15q-27 0 -41 17.5t-19.5 42.5t-6 51.5t-0.5 43.5q0 13 -1 36t-0.5 49t3 52.5t9.5 48.5t19 35.5
t32 13.5q22 0 33 -10.5t16 -26t5.5 -34t0.5 -33.5q0 -8 0.5 -16.5t1.5 -16.5q13 18 27.5 39.5t32 39.5t38.5 30.5t46 12.5q28 0 45.5 -19.5t28 -47.5t16 -57.5t9.5 -49.5q7 15 23 47t36.5 64.5t44.5 57t49 24.5q29 0 42.5 -17.5t18.5 -42.5t4 -52t-1 -45q0 -40 3 -79.5
t3 -78.5q0 -24 -10.5 -45t-38.5 -21q-27 0 -40.5 9.5t-20 24.5t-10 33.5t-11.5 35.5zM201 498q0 -17 -12 -31.5t-30 -14.5q-19 0 -40 21.5t-39 51t-30 59t-12 46.5q0 21 16 36t37 15q22 0 42 -21.5t35 -51t24 -60.5t9 -50zM480 470q-20 0 -31 12.5t-11 31.5q0 18 9 49
t24.5 60.5t36 51.5t42.5 22q20 0 36.5 -14t16.5 -35q0 -17 -12 -47t-30 -59t-40 -50.5t-41 -21.5zM318 533q-20 0 -31 12t-16 29.5t-6 36.5t-1 34q0 16 1.5 38.5t7.5 43.5t19 35.5t36 14.5q18 0 29 -8.5t17 -21t8 -28t2 -30.5t-2.5 -41t-10 -51.5t-20.5 -44.5t-33 -19z" />
    <glyph glyph-name="p.003" unicode="&#xe03d;" horiz-adv-x="358" 
d="M92 369q24 0 47 6.5t48 6.5q31 0 57.5 -7.5t46 -23t31 -40t11.5 -57.5q0 -37 -17.5 -75.5t-45 -72.5t-61.5 -60.5t-67 -39.5l1 -70v-32.5t-4 -32t-14.5 -24t-32.5 -9.5q-13 0 -26 4.5t-21 15.5q-7 9 -11.5 34.5t-7 59t-3 72t-1 74t0 63t0.5 40.5q0 25 -2 54.5t2 55t19 42
t50 16.5zM137 160q0 -3 1 -7t5 -4q6 0 18.5 14.5t25 33t21.5 36t9 24.5q0 8 -6 11t-13 3l-11 -1q-14 -2 -18.5 -11.5t-6 -22t-3.5 -27t-11 -24.5q-5 -5 -8 -11t-3 -14zM59 478q0 -17 -12 -31.5t-30 -14.5q-19 0 -40 21.5t-39 51t-30 59t-12 46.5q0 21 16 36t37 15
q22 0 42 -21.5t35 -51t24 -60.5t9 -50zM338 450q-20 0 -31 12.5t-11 31.5q0 18 9 49t24.5 60.5t36 51.5t42.5 22q20 0 36.5 -14t16.5 -35q0 -17 -12 -47t-30 -59t-40 -50.5t-41 -21.5zM176 513q-20 0 -31 12t-16 29.5t-6 36.5t-1 34q0 16 1.5 38.5t7.5 43.5t19 35.5t36 14.5
q18 0 29 -8.5t17 -21t8 -28t2 -30.5t-2.5 -41t-10 -51.5t-20.5 -44.5t-33 -19z" />
    <glyph glyph-name="q.003" unicode="&#xe03e;" horiz-adv-x="357" 
d="M337 358q0 -92 -9.5 -190.5t-9.5 -198.5q0 -45 4 -88t4 -87q0 -23 -17 -41.5t-41 -18.5q-23 0 -37 19t-22 48t-11.5 64t-4.5 67.5t-0.5 57.5t0.5 35q-16 -11 -29 -18.5t-33 -7.5q-33 0 -54.5 14.5t-34 37.5t-17 50.5t-4.5 54.5q0 35 9.5 76t29.5 76t50 60t71 28
q14 1 26.5 6t24.5 10.5t23.5 10t23.5 4.5q31 0 44.5 -20.5t13.5 -48.5zM192 281h-2q-12 0 -22 -15.5t-17.5 -35.5t-11.5 -40.5t-4 -29.5v-4.5t3 -4.5q6 7 15 24.5t17.5 37.5t15 39t6.5 29zM111 494q0 -17 -12 -31.5t-30 -14.5q-19 0 -40 21.5t-39 51t-30 59t-12 46.5
q0 21 16 36t37 15q22 0 42 -21.5t35 -51t24 -60.5t9 -50zM390 466q-20 0 -31 12.5t-11 31.5q0 18 9 49t24.5 60.5t36 51.5t42.5 22q20 0 36.5 -14t16.5 -35q0 -17 -12 -47t-30 -59t-40 -50.5t-41 -21.5zM228 529q-20 0 -31 12t-16 29.5t-6 36.5t-1 34q0 16 1.5 38.5
t7.5 43.5t19 35.5t36 14.5q18 0 29 -8.5t17 -21t8 -28t2 -30.5t-2.5 -41t-10 -51.5t-20.5 -44.5t-33 -19z" />
    <glyph glyph-name="r.003" unicode="&#xe03f;" horiz-adv-x="330" 
d="M72 -11q-25 0 -36 21.5t-14.5 50.5t-2 58t1.5 44q0 63 -4 124.5t-4 124.5q0 26 12 40.5t40 14.5q21 0 33 -9.5t17.5 -24.5t7 -33t2.5 -34q31 23 57.5 37.5t65.5 14.5q10 0 21 -5.5t19.5 -14t14 -19t5.5 -21.5t-5.5 -21t-14.5 -17.5t-19.5 -13t-20.5 -7.5
q-23 -5 -37 -29.5t-24 -59t-18.5 -73.5t-20.5 -72t-30 -54.5t-46 -21.5zM44 556q0 -17 -12 -31.5t-30 -14.5q-19 0 -40 21.5t-39 51t-30 59t-12 46.5q0 21 16 36t37 15q22 0 42 -21.5t35 -51t24 -60.5t9 -50zM323 528q-20 0 -31 12.5t-11 31.5q0 18 9 49t24.5 60.5t36 51.5
t42.5 22q20 0 36.5 -14t16.5 -35q0 -17 -12 -47t-30 -59t-40 -50.5t-41 -21.5zM161 591q-20 0 -31 12t-16 29.5t-6 36.5t-1 34q0 16 1.5 38.5t7.5 43.5t19 35.5t36 14.5q18 0 29 -8.5t17 -21t8 -28t2 -30.5t-2.5 -41t-10 -51.5t-20.5 -44.5t-33 -19z" />
    <glyph glyph-name="s.003" unicode="&#xe040;" horiz-adv-x="336" 
d="M169 173q-20 17 -45.5 27t-48 22.5t-38.5 32t-16 55.5q0 34 18 67t46 59t62.5 42t67.5 16q18 0 36 -5t32.5 -15.5t24 -25.5t9.5 -35q0 -26 -15 -37t-39 -11q-6 0 -13.5 1.5t-11.5 6.5q-5 4 -12 6.5t-14 2.5t-18.5 -6t-22.5 -15t-19 -19t-8 -17v-3q20 -13 49.5 -23t57 -23
t47 -31.5t19.5 -48.5q0 -19 -14.5 -43.5t-37.5 -50.5t-51.5 -51.5t-56.5 -45t-53.5 -31.5t-41.5 -12q-21 0 -33 17.5t-12 37.5q0 21 18 43.5t42.5 43.5t50 39t41.5 30zM74 580q0 -17 -12 -31.5t-30 -14.5q-19 0 -40 21.5t-39 51t-30 59t-12 46.5q0 21 16 36t37 15
q22 0 42 -21.5t35 -51t24 -60.5t9 -50zM353 552q-20 0 -31 12.5t-11 31.5q0 18 9 49t24.5 60.5t36 51.5t42.5 22q20 0 36.5 -14t16.5 -35q0 -17 -12 -47t-30 -59t-40 -50.5t-41 -21.5zM191 615q-20 0 -31 12t-16 29.5t-6 36.5t-1 34q0 16 1.5 38.5t7.5 43.5t19 35.5t36 14.5
q18 0 29 -8.5t17 -21t8 -28t2 -30.5t-2.5 -41t-10 -51.5t-20.5 -44.5t-33 -19z" />
    <glyph glyph-name="y.003" unicode="&#xe041;" horiz-adv-x="463" 
d="M211 33q0 4 -5 7t-11 5.5t-12 4t-9 2.5q-38 12 -66.5 39.5t-48 63t-29.5 75.5t-10 77q0 18 13 34.5t32 16.5q24 0 38 -14t22.5 -35.5t13.5 -46t11 -46t16.5 -35.5t29.5 -14q16 0 31.5 15t31 37.5t30.5 48.5t29.5 48.5t29 37.5t29.5 15q26 0 44.5 -17.5t18.5 -44.5
q0 -12 -4 -27t-9.5 -30t-12 -29.5t-10.5 -25.5q-36 -90 -66 -183.5t-47 -189.5q-3 -15 -4.5 -32t-7 -31t-16 -23.5t-29.5 -9.5q-14 0 -26.5 6.5t-21.5 17t-14 24t-5 26.5q0 29 7 63t15 66.5t15 60t7 43.5zM126 488q0 -17 -12 -31.5t-30 -14.5q-19 0 -40 21.5t-39 51t-30 59
t-12 46.5q0 21 16 36t37 15q22 0 42 -21.5t35 -51t24 -60.5t9 -50zM405 460q-20 0 -31 12.5t-11 31.5q0 18 9 49t24.5 60.5t36 51.5t42.5 22q20 0 36.5 -14t16.5 -35q0 -17 -12 -47t-30 -59t-40 -50.5t-41 -21.5zM243 523q-20 0 -31 12t-16 29.5t-6 36.5t-1 34
q0 16 1.5 38.5t7.5 43.5t19 35.5t36 14.5q18 0 29 -8.5t17 -21t8 -28t2 -30.5t-2.5 -41t-10 -51.5t-20.5 -44.5t-33 -19z" />
    <glyph glyph-name="z.003" unicode="&#xe042;" 
d="M100 595q0 -17 -12 -31.5t-30 -14.5q-19 0 -40 21.5t-39 51t-30 59t-12 46.5q0 21 16 36t37 15q22 0 42 -21.5t35 -51t24 -60.5t9 -50zM379 567q-20 0 -31 12.5t-11 31.5q0 18 9 49t24.5 60.5t36 51.5t42.5 22q20 0 36.5 -14t16.5 -35q0 -17 -12 -47t-30 -59t-40 -50.5
t-41 -21.5zM217 630q-20 0 -31 12t-16 29.5t-6 36.5t-1 34q0 16 1.5 38.5t7.5 43.5t19 35.5t36 14.5q18 0 29 -8.5t17 -21t8 -28t2 -30.5t-2.5 -41t-10 -51.5t-20.5 -44.5t-33 -19zM29 406q0 28 28 45t66.5 26.5t77 12.5t59.5 3q19 0 40 -3t37.5 -11.5t27.5 -24t11 -39.5
q0 -16 -14.5 -42t-37 -57t-50 -63t-53 -61t-45.5 -51t-29 -32q17 -2 33 -5t33 -3q29 0 58.5 3.5t59.5 3.5q25 0 43 -10t18 -39q0 -30 -24 -46t-56 -24t-66 -9.5t-53 -1.5q-26 0 -56.5 2.5t-57 13t-44.5 31t-18 55.5t24.5 75t58 80t68.5 76.5t55 63.5q-35 -1 -68.5 -6
t-68.5 -5q-22 0 -39.5 8t-17.5 34z" />
    <glyph glyph-name="a.002" unicode="&#xe043;" horiz-adv-x="932" 
d="M143 -11q-28 0 -50 12t-37.5 31.5t-23.5 44.5t-8 50l1 33q3 40 24 89.5t54.5 93.5t76 74t86.5 30q25 0 43 -10t27 -10q8 0 20.5 9.5t34.5 9.5q31 0 43.5 -22t15.5 -52t0 -61.5t-3 -50.5v-61q0 -18 1.5 -40.5t-2 -42t-14.5 -33t-36 -13.5q-8 0 -17.5 3t-17.5 8.5
t-13.5 13.5t-5.5 17q0 2 -2 2q-6 0 -23 -19.5t-43 -43t-59.5 -43t-71.5 -19.5zM139 136q0 -6 2 -15.5t11 -9.5q23 15 45 36.5t39 46.5t27.5 53.5t10.5 57.5q0 2 -0.5 7t-1.5 10t-3 8.5t-6 3.5q-19 0 -41 -24t-40.5 -56.5t-30.5 -66t-12 -51.5zM570 453q-14 0 -28 12t-14 27
q0 17 18.5 42t44 48.5t52.5 40t43 16.5q25 0 41 -15t16 -41q0 -18 -20.5 -41t-48.5 -42.5t-57 -33t-47 -13.5zM604 180q0 29 17 37.5t41 8.5q18 0 48 -5t59.5 -15.5t51 -27t21.5 -40.5q0 -26 -16.5 -39.5t-40.5 -13.5q-16 0 -46 7.5t-60 20t-52.5 30t-22.5 37.5zM636 360
q0 19 21 31t49 19.5t56 10.5t41 3t27 -2t25 -7.5t18 -16t7 -27.5q0 -24 -15.5 -37.5t-38 -20t-46.5 -8.5t-41 -2q-16 0 -34 1.5t-33.5 7t-25.5 17t-10 31.5z" />
    <glyph glyph-name="b.002" unicode="&#xe044;" horiz-adv-x="797" 
d="M92 98q-5 8 -19 12q-24 5 -34.5 21.5t-14 37.5t-2.5 44t1 43q0 60 -1 119.5t-1 119.5q0 14 -0.5 38t3 47t14 40t32.5 17q21 0 34.5 -13.5t20.5 -34.5t9.5 -47t2 -52t-1.5 -48.5t-1 -36.5q0 -15 2 -28.5t5 -27.5q30 23 59 40.5t69 17.5q24 0 44.5 -9t36.5 -25t25 -36.5
t9 -44.5q0 -26 -11 -58.5t-29.5 -65t-43 -63.5t-52.5 -55.5t-57 -39t-57 -14.5q-61 0 -61 60q0 13 3 19.5t6.5 10t6.5 5.5t3 7zM151 131q0 -2 1 -2q12 9 30 27t35.5 39.5t30 43.5t12.5 37q0 5 -2 5q-10 -6 -28 -26.5t-35.5 -44.5t-30.5 -46.5t-13 -32.5zM450 453
q-14 0 -28 12t-14 27q0 17 18.5 42t44 48.5t52.5 40t43 16.5q25 0 41 -15t16 -41q0 -18 -20.5 -41t-48.5 -42.5t-57 -33t-47 -13.5zM484 180q0 29 17 37.5t41 8.5q18 0 48 -5t59.5 -15.5t51 -27t21.5 -40.5q0 -26 -16.5 -39.5t-40.5 -13.5q-16 0 -46 7.5t-60 20t-52.5 30
t-22.5 37.5zM516 360q0 19 21 31t49 19.5t56 10.5t41 3t27 -2t25 -7.5t18 -16t7 -27.5q0 -24 -15.5 -37.5t-38 -20t-46.5 -8.5t-41 -2q-16 0 -34 1.5t-33.5 7t-25.5 17t-10 31.5z" />
    </font>
</defs>
</svg>
